<?xml version="1.0" standalone="no"?>
<!DOCTYPE svg PUBLIC "-//W3C//DTD SVG 1.1//EN" "http://www.w3.org/Graphics/SVG/1.1/DTD/svg11.dtd" >
<svg xmlns="http://www.w3.org/2000/svg">
<metadata></metadata>
<defs>
<font id="liebe_ruthregular" horiz-adv-x="1368" >
<font-face units-per-em="2048" ascent="1528" descent="-520" />
<missing-glyph horiz-adv-x="409" />
<glyph unicode="&#xfb02;" horiz-adv-x="1382" d="M74 881q0 20 8 35.5t18.5 22.5t33 11t38.5 5t48 1t48 2q6 51 5 136.5t3.5 150t20.5 113.5q20 61 62 109.5t100 72.5q88 33 180 10.5t145 -90.5q96 65 205 92q113 31 141 -14q14 -23 15 -164q6 -225 4 -620.5t0 -603.5q23 -6 56.5 -7.5t54 -2.5t38 -16t17.5 -48 q2 -29 -14.5 -47.5t-49 -24.5t-60.5 -7t-73 1t-63 2q-6 -2 -19 -2q-41 -2 -78.5 -1t-68.5 4t-50.5 16.5t-23.5 37.5q-2 25 8.5 43.5t30.5 26.5t47 13t53.5 5h51.5q10 866 -2 1274q-63 -6 -166 -61q25 -37 10.5 -83t-62.5 -56q-37 -12 -68.5 1t-46 39.5t-11 60.5t29.5 58 q-49 51 -112 51q-66 -2 -105 -45t-50 -110.5t-13 -149.5t6 -161q37 0 100.5 -3.5t99.5 -3.5q59 -2 80 -21.5t21 -60.5q0 -43 -51.5 -54t-140.5 -6t-109 3v-301t2 -375q8 0 25.5 1t28.5 2t29.5 1t28 -1t25.5 -3t22.5 -6t17.5 -11t12 -17.5t5 -23.5t-4 -32q-4 -20 -23.5 -32.5 t-51 -16.5t-59.5 -4t-67.5 1t-56.5 -1h-16q-43 -2 -63.5 -3t-53.5 -1t-50 4t-35.5 12t-28 21.5t-9.5 32t4 33t15.5 22.5t22.5 12t30.5 6t33 2t38 -1t34.5 -1q10 264 2 678q-49 4 -93 0t-74.5 10.5t-32.5 57.5z" />
<glyph horiz-adv-x="2048" />
<glyph horiz-adv-x="2048" />
<glyph unicode="&#xd;" horiz-adv-x="0" />
<glyph unicode=" "  horiz-adv-x="409" />
<glyph unicode="&#x09;" horiz-adv-x="409" />
<glyph unicode="&#xa0;" horiz-adv-x="409" />
<glyph unicode="!" horiz-adv-x="491" d="M138.5 105.5q0.5 37.5 26.5 73.5t71 46q41 12 73.5 -9t47 -56t12.5 -75t-25 -67q-35 -45 -100.5 -41.5t-91.5 58.5q-14 33 -13.5 70.5zM176 547.5q0 27.5 2 89t2 74.5q0 86 -1 193.5t-2 222t-1 204.5v21v49t2 45.5t7 40t12.5 33t20.5 21.5t32 7q18 0 31.5 -9t21.5 -28.5 t12 -40t5.5 -54.5t1.5 -57.5t-1.5 -62.5t-1.5 -59v-709q0 -8 1.5 -35.5t0 -37t-3.5 -26.5t-8 -27.5t-18 -18.5q-23 -14 -59.5 -9t-38.5 27q-8 31 -12.5 75t-4.5 71.5z" />
<glyph unicode="&#x22;" horiz-adv-x="694" d="M77 1445q-1 11 0 17t2 15.5t5 14.5t9 11t13.5 9.5t20.5 7.5q20 6 64.5 4t60.5 -17q14 -14 15 -51t-6 -91t-9 -71l-10 -286v-22.5t-1 -21t-2 -16.5t-3.5 -15t-6.5 -10l-8 -10q-12 -8 -44 -8t-46 13q-8 6 -12 20t-7 35.5t-3 40t-1.5 49.5t-1.5 47q-4 82 -24 279q0 6 -2 18 t-2 19.5t-1 18.5zM434 1395q-8 57 1 90t50 43q23 8 69 3t58 -28q6 -10 7.5 -31.5t0 -37t-4.5 -47t-5 -37.5q-16 -238 -16 -322q0 -31 -1 -44t-4 -31.5t-9.5 -24.5t-16.5 -12.5t-26 -6.5q-18 -2 -30.5 1t-20 14.5t-12.5 19.5t-7 29.5t-3 36t-2 45t-3 47.5q-10 162 -25 293z " />
<glyph unicode="#" horiz-adv-x="1343" d="M25 465q4 25 28.5 39t62.5 19t87 6t102 -1q18 0 29 -2h2q12 61 41 190.5t33 147.5l6 27q-57 -4 -112.5 -2t-99.5 8t-68.5 25.5t-22.5 50.5q4 37 64.5 47t213.5 12h55l46 209q2 8 8 39t11 44t18.5 27.5t35.5 16.5q66 4 74 -22q8 -16 8 -44t-4 -49.5t-14.5 -66.5t-14.5 -66 l-18 -84q115 2 303 4q10 41 27.5 122t21.5 108q2 2 5 17.5t5.5 20.5t6.5 18t8 19.5t10 16.5t14.5 12t17.5 5t21.5 0t24.5 -11q45 -18 29 -119q-4 -39 -41 -207h8h37h60.5t56 -1t49 -5t39 -10t25.5 -17.5t9 -25.5q0 -20 -6 -34.5t-24.5 -22.5t-35 -13.5t-51 -7.5t-58 -2 h-73.5h-16h-15.5h-15.5h-18l-4 -22q-10 -53 -30.5 -144.5t-29.5 -134.5l-20 -76q23 0 39 -2q43 -2 110 -2q92 -2 119 -10t27 -43q0 -23 -8.5 -39t-24.5 -25.5t-34.5 -14.5t-47.5 -6t-51.5 -1t-58 1t-56.5 1h-43l-28 -149q-4 -12 -14.5 -64.5t-18.5 -91.5q-2 -4 -5 -18.5 t-4 -18.5t-5.5 -15.5t-9.5 -15.5t-12 -10t-17.5 -8t-24.5 -2q-70 -4 -70 65q0 25 15 109q6 31 15 67.5t19.5 80.5t16.5 71h-315q-12 -47 -39 -144.5t-41 -146.5q-2 -10 -6.5 -30.5t-7.5 -28.5t-10 -20.5t-17.5 -16.5t-26.5 -4q-25 -2 -41 7t-22.5 28.5t-8.5 37t4.5 49 t10.5 49t12 50.5q4 12 4 18q12 49 41 152q-203 0 -244 21q-39 16 -32 59zM481 528h312q14 74 30.5 149t27.5 126t17 86l2 12q-119 -2 -305 -6z" />
<glyph unicode="$" horiz-adv-x="1357" d="M152 327.5q0 34.5 14 61.5q23 47 72 57.5t85.5 -18.5t30.5 -78q8 -51 -41 -78q70 -141 287 -161q6 117 7 314.5t3 289.5q-66 27 -89 37t-80.5 37.5t-86 49t-63.5 55.5t-58 71q-37 68 -38 141q-14 186 102.5 283.5t320.5 107.5q2 25 1 51.5t0.5 53t2.5 51t8 46t17 37 t28.5 23.5t45.5 6q25 -2 36 -14t13 -34.5t0 -55.5t-4 -74t0 -90q125 -14 238.5 -77.5t142.5 -147.5q31 -80 4 -137.5t-98 -57.5q-49 0 -76 34t-21.5 77t39.5 67q-31 39 -96 64q-61 31 -135 33q-4 -109 -8 -516q223 -88 336 -189q109 -94 120 -261t-96 -284 q-125 -133 -379 -141q-2 -23 -2 -60.5t-1 -65.5t-4 -55.5t-12 -45t-26 -23.5q-37 -12 -58.5 2.5t-27.5 46t-9 72.5t1 84v47q-258 39 -375 180q-18 23 -33.5 52.5t-26.5 63.5t-11 68.5zM342 1102q4 -20 10 -39t18.5 -35t24 -29.5t30.5 -27t33.5 -22.5t38 -20t38 -17.5 t40 -17.5t37.5 -17q4 82 6.5 246.5t4.5 232.5q-137 -6 -217 -66.5t-64 -187.5zM743 106q150 2 243 74t81 209q-6 45 -28.5 85t-48 64.5t-75 53.5t-78 42t-87.5 38q0 -2 -2.5 -108.5t-3.5 -233.5t-1 -224z" />
<glyph unicode="%" horiz-adv-x="1640" d="M66 1124q10 152 85.5 257.5t198.5 117.5q164 18 257 -109.5t91 -324.5q-2 -164 -88 -277.5t-231 -113.5q-111 0 -186.5 67.5t-104.5 167t-22 215.5zM209 1139q-16 -139 29 -230.5t143 -91.5q76 0 125 74t49 182q0 129 -53.5 216t-143.5 69q-57 -10 -100 -71.5t-49 -147.5 zM347 -17.5q5 25.5 12.5 43t23.5 48.5q152 256 246 428l362 659l144 266q0 2 9 17.5t11 19.5t10.5 16.5t12.5 15.5t13 11.5t16 10.5t17.5 4t20.5 0q33 -2 47.5 -17.5t7 -44t-14.5 -48t-23 -52.5l-105 -189q-14 -27 -33.5 -60.5t-38 -66t-30.5 -61.5q-156 -276 -187 -338 q-14 -25 -32.5 -58.5t-38 -69.5t-33.5 -64l-207 -373q-6 -8 -13 -20.5t-14.5 -22.5t-15.5 -23.5t-16 -25.5q-16 -29 -25.5 -42.5t-28 -22.5t-41.5 -5q-33 8 -47 23.5t-9 41zM948 399q4 162 87.5 278t230.5 116q145 0 231 -119t86 -277q0 -123 -38 -222t-118.5 -157.5 t-191.5 -48.5q-82 10 -141.5 54.5t-89 110t-43 131t-13.5 134.5zM1092 403q-2 -74 13 -137t51 -106t89 -51q92 -12 143.5 71.5t51.5 206.5q2 55 -11.5 104.5t-37 83t-55 53t-68.5 19.5q-82 0 -126 -67.5t-50 -176.5z" />
<glyph unicode="&#x26;" horiz-adv-x="1484" d="M109 328q-6 72 7 138t35.5 113.5t62.5 99.5t71.5 84t81 78t71.5 72q-8 14 -42 61.5t-48 72t-34.5 68.5t-27.5 88t-3 91q10 111 87.5 180.5t194.5 77.5q137 10 223 -68.5t82 -215.5q-2 -55 -21.5 -107.5t-57 -101.5t-63.5 -77t-73 -73q-14 -12 -20 -18q47 -66 110.5 -150 t129 -169t86.5 -109q82 145 147 360q-4 2 -29.5 2h-33t-26 4.5t-25.5 11.5t-14 21.5t-5 34.5q0 43 45 52t154 3q25 -2 56.5 -2h53t45 -1t37.5 -4t26.5 -9t17.5 -17.5t5 -27.5q0 -47 -40 -62.5t-130 -11.5q-37 -119 -67 -203q-57 -139 -121 -254q63 -90 108 -139 q39 -45 65.5 -66.5t57.5 -27.5q57 -4 84 47q4 8 11.5 23.5t11.5 22.5t13 13.5t24 6.5q55 -4 55 -67.5t-37 -111.5q-37 -49 -98.5 -63t-120.5 4q-25 8 -51.5 24.5t-46 33t-46 45t-39 44t-40 51.5t-33.5 44q-201 -301 -498 -273q-154 12 -254 105.5t-114 251.5zM267 285.5 q34 -97.5 110 -135.5q59 -33 138 -36t147 27q123 59 219 205l-224 279q-100 131 -131 182l-84 -86q-51 -51 -72.5 -74.5t-53 -71t-48.5 -92.5q-35 -100 -1 -197.5zM424 1267.5q-2 -38.5 15.5 -81.5t30.5 -68.5t44 -71t35 -55.5l27.5 27.5t31.5 32t29.5 32t31 38t25 39 t20.5 45t11 44.5q10 74 -27 121q-47 59 -132 49t-120 -76q-20 -37 -22 -75.5z" />
<glyph unicode="'" horiz-adv-x="337" d="M74 1430v28.5t3 25.5t8 17t15.5 15.5t26.5 9.5q23 8 69 3t56 -26q6 -12 8 -32.5t1 -37t-4 -47t-5 -38.5q-16 -231 -14 -320q-2 -49 -4.5 -69.5t-15.5 -36t-40 -15.5q-14 0 -24.5 2t-17.5 7.5t-13 11.5t-9 18t-5.5 22.5t-3.5 28t-2 30.5t-2 35.5t-1 39.5q-10 160 -24 291 q-2 27 -2 37z" />
<glyph unicode="(" horiz-adv-x="555" d="M92 569q-4 285 82 598q51 190 145 332q74 107 140 119q29 6 55.5 -14.5t26.5 -55.5q0 -23 -13.5 -42t-43 -50t-48.5 -57q-92 -137 -155 -424q-31 -135 -38 -325.5t5 -278.5q25 -244 127 -459q29 -63 80 -123q8 -10 22.5 -25.5t21.5 -24.5t16 -22.5t13 -22.5t4 -21.5 t-6 -24.5q-66 -115 -202 53q-74 94 -138 266q-88 229 -94 602z" />
<glyph unicode=")" horiz-adv-x="555" d="M18 1548q0 35 26.5 55.5t55.5 14.5q66 -12 140 -119q94 -141 145 -332q86 -313 82 -598q-6 -373 -94 -602q-63 -172 -137 -266q-137 -168 -203 -53q-6 12 -6 24.5t4 21.5t13 22.5t16.5 22.5t21.5 24.5t22 25.5q51 59 80 123q102 215 127 459q12 88 5 278.5t-37 325.5 q-63 287 -156 424q-18 27 -48 57.5t-43.5 50t-13.5 41.5z" />
<glyph unicode="*" horiz-adv-x="968" d="M70 1348q2 39 18 58t42 17t49.5 -10t41.5 -22q18 -12 90 -71.5t107 -74.5q4 31 0 99.5t-8 122t7 100.5t40 51q43 8 65.5 -14.5t23.5 -62.5t-1 -85q-2 -25 -13 -209q31 16 105 69.5t113 74.5q16 10 36.5 17t48 10t44 -16.5t14.5 -62.5q-2 -14 -10.5 -26.5t-18.5 -21.5 t-28.5 -20t-28.5 -16.5t-28.5 -14.5t-22.5 -11q-27 -18 -79 -41t-73 -37q41 -29 126 -74t110 -57q2 -2 10 -7t12 -8.5t11.5 -8.5t11.5 -10t8 -11t6 -14.5t0 -16.5q-4 -133 -162 -26q-27 14 -63.5 39.5t-74.5 53t-60 40.5q2 -35 6 -130.5t8 -138.5q4 -70 -18.5 -102.5 t-90.5 -7.5q-18 29 -24 76t-4 88t6 109.5t6 103.5q-33 -14 -118 -82t-120 -88q-20 -16 -44.5 -18.5t-44 16t-23.5 61.5q0 14 4 25.5t11 19.5t17.5 14.5t18.5 10.5t19.5 9t15.5 7q137 82 209 119q-20 10 -236 131q-2 2 -14 8t-16.5 8t-13.5 9.5t-13 12.5t-7 14t-3 22z" />
<glyph unicode="+" horiz-adv-x="1140" d="M63 633q0 16 3.5 29.5t12.5 20.5t15 12t24.5 6t25 2.5t30 1.5h29.5q37 0 139 3t158 1q8 195 8 211q0 14 -2 41q0 29 1 54t2 48.5t4 44t9 35t16.5 24t26.5 11.5q20 2 34.5 -3.5t24 -19.5t14.5 -28.5t7 -42t2 -45v-51.5v-48v-235q41 0 118 2t105 2h17q47 0 70.5 -2 t56.5 -7.5t48 -18.5t15 -36q0 -18 -5 -30.5t-14 -20.5t-22.5 -13.5t-30 -6.5t-35 -2t-39 0t-42.5 -1q-41 0 -116 -3t-128 -3l-6 -252v-40.5v-41v-41t-2 -40t-6 -35t-11.5 -26.5t-16.5 -18.5t-22.5 -7t-31.5 6.5q-18 6 -28.5 25.5t-14.5 56t-5 62.5t-1 75v24q0 57 1 143.5 t1 108.5q-20 2 -113.5 -1t-116.5 -3h-24q-47 0 -70.5 1t-55.5 7t-45.5 21.5t-13.5 42.5z" />
<glyph unicode="," horiz-adv-x="423" d="M82 80q-8 72 48.5 113t115.5 16q63 -25 89.5 -107t16.5 -182q-6 -57 -33.5 -126.5t-58.5 -106.5q-61 -78 -113 -74q-14 2 -28.5 11t-22.5 20.5t-10 23.5q-2 18 6 33.5t29.5 37t23.5 25.5q86 98 76 236q-45 -12 -87 5.5t-52 74.5z" />
<glyph unicode="-" horiz-adv-x="708" d="M51 496q-6 66 43 82q20 6 51 8t73 2t74 -1t80 -3t64 -4h23q29 0 45 -1t45 -3.5t46 -6.5t36.5 -12t29 -19.5t9.5 -27.5q2 -35 -19.5 -52.5t-44 -20.5t-59.5 -3q-131 4 -289 4h-33.5h-34t-31 1t-28.5 2t-24.5 4.5t-22.5 7.5t-15.5 9t-11.5 14t-6 20z" />
<glyph unicode="." horiz-adv-x="382" d="M76 105.5q0 37.5 25.5 73.5t70.5 46q43 10 76 -10t46 -55t11 -76t-22 -66q-37 -45 -101.5 -41.5t-93.5 58.5q-12 33 -12 70.5z" />
<glyph unicode="/" horiz-adv-x="669" d="M78 -283q-57 37 35 256q16 47 41.5 132t40.5 124q39 106 88 287q20 66 71.5 241t79.5 277q14 47 38 119t45.5 140.5t35.5 127.5q0 2 4 22.5t8 32t12.5 29t20 26.5t25.5 11q20 2 36.5 3t25.5 -7t15.5 -13t7.5 -19.5t2 -23.5t-2 -24.5t-5.5 -25t-6.5 -23.5t-4 -20 q-10 -37 -22.5 -79t-24.5 -81t-23.5 -75t-24.5 -77t-24 -73q-25 -84 -65.5 -229.5t-61 -216.5t-53.5 -181.5t-67.5 -216t-77.5 -230.5q-6 -18 -13.5 -36.5t-14.5 -45t-13 -45.5q-2 -2 -4 -10q-8 -20 -12.5 -32.5t-15.5 -30t-23.5 -23.5t-32 -5t-41.5 15z" />
<glyph unicode="0" horiz-adv-x="1222" d="M102 745q-2 205 72 406t209 297q86 60 182 72q84 10 158 -7.5t127 -54.5t97 -93t72 -114.5t48 -128.5q23 -66 36 -154.5t16 -172.5t-1 -162q-33 -414 -237 -580q-63 -57 -174 -77.5t-222 10.5q-98 33 -172.5 104.5t-120 174t-67 221t-23.5 259.5zM250 746.5 q-4 -193.5 61.5 -371.5t192.5 -238q59 -27 124.5 -25.5t110.5 25.5q82 45 138.5 149.5t78 235.5t17.5 268.5t-38 261.5t-91 201q-105 145 -252 125q-45 -4 -82 -26q-119 -57 -187.5 -234.5t-72.5 -371z" />
<glyph unicode="1" horiz-adv-x="841" d="M90 1171q0 23 9.5 36.5t19.5 17.5t37.5 13t42.5 15q156 53 233 177q10 14 25.5 27t36 25.5t43 9.5t36.5 -26q8 -10 11.5 -32.5t3.5 -41t-1 -51t-1 -43.5q-6 -711 2 -1153q61 -12 119.5 -6t101.5 -10t41 -66q0 -16 -5 -28t-17.5 -19.5t-24.5 -11.5t-36 -5t-39 -1t-48 1 t-49 1q-43 0 -228 -4q-18 -2 -46.5 -3t-47 -2t-42 -1t-39 1t-32 6t-25.5 12t-16.5 19.5t-7.5 28.5q-2 43 12.5 60.5t57.5 17.5h227q-4 252 -4 754q0 264 13 360q-23 -27 -54.5 -54.5t-64.5 -47t-62 -29.5q-23 -8 -47 -13t-57 -6t-54.5 17.5t-23.5 54.5z" />
<glyph unicode="2" horiz-adv-x="1159" d="M131 50q-6 40 4 80t27 75q31 59 69.5 115.5t99 120t90.5 93t115 106.5t99 89q51 45 82 75t64.5 70.5t52 75.5t28.5 79t6 91q-6 102 -74.5 174t-179.5 76q-100 4 -180 -45t-100 -131q-10 -35 -10 -78t16 -65q14 18 37.5 23t45 -1t38 -27.5t16.5 -54.5q0 -55 -40 -84.5 t-95 -24.5t-98 42q-61 59 -70 163q-16 188 113 306t319 118q176 0 291 -109.5t125 -291.5q2 -43 -5 -85t-14.5 -71.5t-30 -67.5t-33.5 -56.5t-46 -55.5t-44 -47t-50 -48t-45 -42q-246 -227 -332 -322q-92 -104 -141 -188q51 12 161 18q217 8 441 -4q12 23 18 60t9 67.5 t11.5 59t28 45t51.5 16.5q27 0 42.5 -14.5t16.5 -44t-1 -47t-8 -50.5l-21 -104l-7 -49t-7 -43q-6 -20 -30.5 -30.5t-66.5 -12.5t-82 0t-97.5 5t-94.5 3q-94 0 -219 -6t-166 -7t-92 7q-31 14 -37 54z" />
<glyph unicode="3" horiz-adv-x="1179" d="M114 353.5q-1 31.5 4 65.5t23.5 62.5t48.5 42.5q45 25 90.5 13.5t63.5 -52.5q23 -53 -7 -95t-77 -28q20 -113 112.5 -187.5t229.5 -72.5q143 2 236.5 80t105.5 215q12 139 -51.5 224.5t-157.5 115.5q-57 20 -119.5 24.5t-93 9.5t-43.5 32q-8 12 -4 30.5t6 29.5t15.5 27.5 t20.5 26t22.5 24.5t21.5 26q12 14 184 225q63 86 136 164q-90 -25 -318 -17q-51 0 -147.5 1t-141.5 3q-2 -16 0 -44.5t5.5 -55t3.5 -57.5t-6.5 -53.5t-22.5 -37t-43 -14.5q-29 0 -46.5 9.5t-23.5 31t-6 39t2 49t2 47.5q0 12 -1 41t-1 40.5v34t2 30.5t6.5 23.5t11.5 21.5 t16 15.5t22.5 12.5t29.5 5q16 8 201.5 2t214.5 -6h203q16 0 50 3t51.5 3t41 -2t37.5 -12.5t25 -30.5q4 -10 6 -23.5t-2 -28t-7.5 -24.5t-13.5 -26.5t-15 -24.5t-17.5 -25.5t-16.5 -21.5q-82 -113 -215 -277q-86 -104 -133 -117q96 10 183 -20.5t151.5 -94t98.5 -162.5 t24 -216q-16 -193 -150.5 -305.5t-343.5 -112.5q-180 0 -308 91t-167 243q-8 29 -9 60.5z" />
<glyph unicode="4" horiz-adv-x="1232" d="M84 455q-10 25 0 62.5t31.5 74.5t64.5 100l250 357l246 360q12 18 22.5 30.5t28.5 30t35.5 23.5t42 4t49.5 -18q16 -10 25.5 -24.5t11.5 -33t2 -31t-2 -35t-2 -28.5q-8 -256 -4 -780q20 -2 54 -3t55.5 -2t48 -6.5t40 -14.5t20.5 -29.5t1 -49.5q-6 -27 -26.5 -37t-49.5 -8 t-64.5 3t-74.5 -1v-260q16 -2 48 -4t49.5 -3t41 -7t33.5 -16.5t17 -28t4 -42t-19 -37.5t-47 -14t-60.5 1t-74.5 7t-74 5h-135q-33 -2 -59.5 -1t-45 5t-30 14.5t-13.5 30.5q-4 29 4.5 47.5t20.5 27.5t38.5 13t46 4t54.5 -1t53 1q8 131 0 262q-88 0 -262 -1t-241 -1h-24.5h-23 h-21.5t-20.5 1t-17.5 4.5t-16 7.5t-12.5 9t-11.5 13t-7 19zM213 524q53 19 213 19h313q-2 254 0 467q4 240 33 338q-14 -35 -34.5 -74t-34 -61.5t-41 -64.5t-31.5 -52q-119 -182 -260 -377q-8 -12 -24.5 -36t-24 -34t-21.5 -28.5t-20.5 -26.5t-17.5 -21.5t-18 -20.5 l-15.5 -15.5t-16.5 -12.5z" />
<glyph unicode="5" horiz-adv-x="1179" d="M139 377q0 51 22.5 89t54.5 55.5t69 14t65 -27.5q23 -29 26 -65.5t-24.5 -62.5t-72.5 -13q8 -53 26 -95q68 -152 248 -172q139 -18 260 64q88 59 119 195.5t-29 271.5q-53 109 -185 154.5t-290 2.5q-10 -2 -51 -15t-63.5 -18t-51.5 0t-43 27q-26 42 -8 183l37 303 q2 8 5 43t5 52t7 40.5t11 34.5q20 29 68.5 35t108.5 -3q246 -25 499 29q57 10 86 -4t25 -65q0 -23 -16.5 -40.5t-48 -28.5t-60.5 -18.5t-74 -11.5t-68.5 -5t-62.5 -3h-18q-150 -6 -314 10q-4 -27 -8 -59.5t-6 -46.5l-27 -232q-2 -35 -24 -112q117 70 278 65 q147 -4 258 -70.5t169.5 -191.5t43.5 -287q-8 -117 -64 -216t-144 -154q-129 -82 -314.5 -71t-294.5 114q-55 51 -92 131t-37 174z" />
<glyph unicode="6" horiz-adv-x="1226" d="M138 534.5q-9 100.5 1 206.5q20 276 144 478q72 121 190 208t272 89q213 2 308 -148q47 -68 33.5 -147.5t-85.5 -85.5q-47 -6 -79.5 21.5t-30.5 69.5t43 72q-55 86 -193 86q-92 -2 -180 -65.5t-143 -151.5q-127 -190 -148 -491q45 154 167 233.5t284 67.5q98 -6 179 -49 t134 -110.5t82 -152.5t31 -178q2 -221 -123 -370.5t-348 -155.5q-102 -2 -188.5 24.5t-145.5 78t-104 123t-68 159.5t-32 188.5zM311 430q10 -154 113.5 -243t243.5 -83q154 8 242.5 116t88.5 255q0 139 -75.5 246t-225.5 119q-168 14 -284.5 -101.5t-102.5 -308.5z" />
<glyph unicode="7" horiz-adv-x="1044" d="M51 1336.5q-2 29.5 1 61.5t14.5 50t33.5 18q109 10 218.5 11.5t270.5 -0.5t222 -2q14 0 59 3t76 3t62.5 -7.5t42.5 -23.5q45 -76 -2 -145q-8 -16 -25.5 -40t-36 -50.5t-31.5 -43.5q-156 -238 -223 -385q-152 -328 -180 -671q0 -8 -2 -28.5t-3 -29t-3 -24t-5 -21.5 t-8.5 -16t-13.5 -14.5t-18.5 -7.5t-24.5 -3q-43 -2 -61.5 29t-15.5 72t5 84l3 12q33 299 143 563t256 469q43 66 127 156q-66 -23 -168 -23q-61 0 -137 1t-127 2t-106.5 1t-102.5 -2t-88 -8q-16 -72 -8 -139.5t-0.5 -118.5t-49.5 -55q-27 -4 -45 5t-27.5 21.5t-13.5 37 t-3 41t2 47t1 40.5q0 20 -3 60.5t-5 70z" />
<glyph unicode="8" horiz-adv-x="1271" d="M127 440q12 135 111.5 234.5t218.5 132.5q-70 16 -131.5 60t-101.5 124t-31 176q12 160 143 256.5t319 96.5q246 0 375 -144q63 -72 84 -174t-14 -207q-18 -49 -56 -92t-88.5 -72.5t-103.5 -42.5q98 -20 162 -63q158 -102 170 -303q8 -121 -34 -212t-122 -145.5t-180 -79 t-217 -22.5q-104 2 -196.5 32t-167 85t-113.5 148.5t-27 211.5zM276.5 388q2.5 -77 45.5 -140q37 -57 111.5 -94t161.5 -45.5t172 6t152.5 61.5t96.5 121q18 55 16 105.5t-21.5 94.5t-50 78.5t-67.5 55.5q-59 37 -147 68.5t-164 37.5q-84 -27 -158 -78t-111 -118 q-39 -76 -36.5 -153zM356 1065q23 -68 82.5 -105.5t157.5 -68.5q86 -29 143 -33q47 12 92.5 37t80 60.5t46.5 72.5q25 70 11.5 141.5t-56.5 116.5q-88 94 -264 94q-156 0 -246 -96t-47 -219z" />
<glyph unicode="9" horiz-adv-x="1241" d="M121 1028q6 207 142 350.5t355 143.5q137 0 243 -64.5t167.5 -175.5t85.5 -258q31 -174 12 -367q-33 -328 -181 -507t-363 -187q-141 -4 -251 52.5t-157 166.5q-20 41 -17 103.5t36 91.5q39 37 87 36t76 -36q33 -39 18.5 -86t-63.5 -51q31 -68 100.5 -105t168.5 -31 q154 10 257 140.5t140 378.5q18 119 14 264q-33 -162 -146.5 -255t-266.5 -91q-207 -2 -336 134t-121 353zM268 1020q-2 -150 85 -243t233 -93q129 0 221 78t119 221q33 170 -56 281.5t-247 111.5q-102 0 -184.5 -49t-126.5 -130t-44 -177z" />
<glyph unicode=":" horiz-adv-x="378" d="M74 107.5q0 37.5 25.5 73.5t70.5 46q43 10 76 -10t46 -56t11 -76t-22 -65q-37 -45 -101.5 -41.5t-93.5 58.5q-12 33 -12 70.5zM74 853q0 38 25.5 74t70.5 46q41 10 73.5 -10.5t47 -55.5t12.5 -75.5t-22 -65.5q-37 -45 -102.5 -42t-92.5 58q-12 33 -12 71z" />
<glyph unicode=";" horiz-adv-x="430" d="M84 80q-8 72 48.5 113t113.5 16q63 -25 89.5 -107t18.5 -182q-6 -57 -34.5 -126.5t-59.5 -106.5q-59 -78 -110 -74q-23 2 -40.5 19.5t-23.5 35.5q-2 18 6 33.5t29.5 37l25.5 25.5q84 98 74 236q-43 -12 -86 5.5t-51 74.5zM85 843q1 38 26.5 73t70.5 47q41 10 74 -10.5 t47 -56.5t12 -76t-24 -66q-35 -43 -100.5 -41t-92.5 57q-14 35 -13 73z" />
<glyph unicode="&#x3c;" horiz-adv-x="1060" d="M53 614q-2 49 111 123l313 197q23 12 48.5 32.5t50 41t40.5 30.5q27 18 75 48t65 40q79 53 145 78q27 8 52.5 -11t29.5 -46q4 -18 -6 -34.5t-20.5 -24t-34 -20.5t-29.5 -17q-78 -49 -294 -200t-355 -230q47 -35 100 -71t112.5 -74t94.5 -62q45 -29 159.5 -110t178.5 -122 q4 -4 20.5 -12t23.5 -13t20.5 -15.5t18.5 -18.5t9 -18.5t2 -22.5t-10 -27q-37 -61 -117 -16q-43 27 -84 55q-25 16 -54.5 34.5t-57 35t-52.5 33.5q-23 16 -66.5 51t-68.5 51l-287 186q-6 4 -34.5 22.5t-38 26t-27.5 22.5t-25.5 29.5t-7.5 28.5z" />
<glyph unicode="=" horiz-adv-x="1095" d="M66 782q0 12 2 22.5t7 18.5t9 13.5t14.5 9.5t16.5 6t21.5 3t23.5 2t27.5 2t29.5 1q106 6 307 6t289 4q10 0 34.5 2t36 2h32t30.5 -2t25.5 -5t22.5 -10t15.5 -15t11.5 -21.5t3 -29.5q0 -33 -14.5 -47.5t-37 -14.5h-54.5q-195 10 -658 -10h-29q-47 -2 -82.5 -1t-58 16.5 t-24.5 47.5zM72 406q0 23 9 39t21.5 24t40 12t46 5t57.5 1h12h238q76 0 229.5 9.5t235.5 7.5q33 -2 48 -16.5t15 -53.5q0 -12 -3 -22.5t-9 -17.5t-12.5 -12t-18.5 -8t-20.5 -5t-24.5 -3t-27.5 -1t-32 -1.5t-32.5 -1.5l-201 -10q-35 -6 -223.5 -5t-190.5 1q-12 0 -33.5 -1 t-32.5 -1t-28.5 1t-26 5t-18.5 10.5t-14 16.5t-4 27z" />
<glyph unicode="&#x3e;" horiz-adv-x="1060" d="M80 1130q-2 31 17.5 54.5t39.5 25.5q12 2 24.5 0t25 -7t22.5 -10t23.5 -14.5t21.5 -15.5t23.5 -17t23.5 -16q12 -8 65.5 -40.5t79.5 -53.5q16 -10 40 -28.5t50.5 -39t49.5 -36.5q45 -29 115.5 -73t131 -82t117.5 -77q59 -41 60 -82q0 -23 -17.5 -45t-37 -36.5 t-58.5 -40.5q-10 -6 -16 -11l-289 -186q-25 -14 -70 -50t-67 -52q-23 -16 -49.5 -31.5t-59.5 -35t-55 -36.5q-41 -31 -84 -55q-12 -8 -27.5 -13.5t-35 -7.5t-36 10.5t-22.5 39.5q-4 12 -4 22t2 18.5t8 16.5t11.5 13t15.5 12.5t16 10.5t18.5 10t18.5 11q102 63 312 211 t335 221q-47 33 -101 69t-116.5 76t-97.5 62q-27 16 -55.5 37t-58.5 42.5t-50 37.5q-31 18 -86 57t-82 54q-8 6 -27.5 17t-31 18.5t-21.5 19.5t-12 26z" />
<glyph unicode="?" horiz-adv-x="753" d="M43 1290q14 84 77.5 143.5t150.5 79t178.5 14.5t169 -47t114.5 -112q45 -82 44 -185.5t-46 -178.5q-20 -41 -59 -84t-76 -80t-73 -78t-60.5 -94.5t-28.5 -114.5q0 -10 -1 -26.5t-2 -29t-2 -29.5t-4 -28.5t-8 -25t-12.5 -20.5t-17.5 -13t-24.5 -5t-30.5 5q-57 14 -45 180 q4 66 19.5 119t52 104.5t60 78t83.5 85.5l41 41t32.5 37t28.5 42t17.5 43t11.5 52q10 98 -46 155.5t-134 67.5q-94 14 -170 -16.5t-95 -101.5q-25 -80 27 -105q33 47 82 25q35 -12 43 -48t-21 -73q-29 -43 -107.5 -40t-123.5 54q-70 80 -45 209zM251 105.5q1 37.5 26.5 73.5 t70.5 46q41 10 74 -10t47 -55t12 -76t-24 -66q-35 -45 -100.5 -41.5t-92.5 58.5q-14 33 -13 70.5z" />
<glyph unicode="@" horiz-adv-x="1941" d="M315 375q-51 520 271 825q225 213 555 211q129 0 237.5 -38t194.5 -115.5t133 -210t41 -306.5q-10 -299 -193 -475q-84 -80 -188 -92t-156 59q-61 90 -16 250q-31 -104 -108.5 -190t-157.5 -103q-55 -12 -105.5 11.5t-78 84t-30.5 155t16.5 187.5t64.5 176t106 120 q76 47 176.5 46t173.5 -50q16 45 86 30q35 -10 36 -51t-17 -100q-2 -14 -4 -21q-88 -358 -56 -436q16 -37 48 -42t66 15.5t67 57.5q129 141 139 370q6 158 -47 279t-167 189.5t-274 64.5q-225 -4 -389 -126t-241 -327q-53 -131 -51 -325.5t67 -329.5q80 -170 229.5 -241.5 t335.5 -61.5q117 6 236 52t186 112q8 6 19.5 17t16.5 15.5t14.5 12.5t13.5 11t12 7t13 5t12.5 1t13.5 -3t14 -9q35 -20 25 -59t-30.5 -68t-37.5 -41q-59 -53 -159.5 -97t-198.5 -67q-193 -45 -379 -6t-309 148q-193 170 -226 479zM843 489.5q-3 -49.5 9 -101.5t43 -62 q51 -14 131 63q160 152 193 410q-53 39 -117 45t-123 -27q-90 -53 -125 -231q-8 -47 -11 -96.5z" />
<glyph unicode="A" d="M0 72q0 14 4 24t9 18.5t14.5 12.5t17.5 7t23.5 4t26.5 1t29.5 1t31.5 1q25 57 61.5 180t48.5 162q20 57 54 166t57 172l98 287l98 301q31 84 107 84q94 0 121 -84q59 -188 100 -301l103 -297q33 -100 69.5 -226t72.5 -244t62 -202q27 -2 50.5 0t45 0t38 -8t25.5 -21.5 t9 -39.5q-2 -33 -26.5 -50.5t-67.5 -21.5q-34 -3 -69 -3h-17q-43 1 -96 3q-26 1 -46 1t-34 -1q-27 -4 -50 -4q-20 0 -37 3q-36 7 -40 44q-2 11 -2 21q0 57 61 69q23 4 97 6q-33 162 -107 377q-156 -14 -311 -14q-101 0 -201 6q-35 -84 -115 -367q31 -8 68 -10l55.5 -3 t31.5 -14.5t13 -45.5q0 -12 -2 -22.5t-10 -18t-16.5 -12.5t-22.5 -8t-26.5 -5t-35 -2h-38h-44h-46.5t-54 -1t-52.5 0t-43 2t-39 6t-27 12.5t-20.5 21.5t-6 33zM465 643q81 -5 168 -5q129 0 270 11q-31 92 -76 228.5t-70.5 213t-47 155.5t-25.5 120q-6 -66 -41 -179.5 t-91 -277.5t-87 -266z" />
<glyph unicode="B" horiz-adv-x="1456" d="M76 47q-1 8 -1 16q0 21 9 35q12 18 41 25.5t54.5 9.5t62.5 2t55 1q0 90 2 298t3 314v77q0 84 -1 195q-2 166 -8 311q-22 3 -47 3q-20 0 -42 -2q-13 -1 -25 -1q-33 -1 -63 9q-40 14 -40 53q0 23 7 38t16.5 24t31 13.5t35.5 5.5t47 1h47q86 4 154.5 4t162 -1t152.5 -1 q98 0 148.5 -2t119 -16.5t111.5 -45.5q98 -70 129 -192q14 -43 14 -93q0 -14 -1 -29q-5 -67 -23.5 -126.5t-63.5 -106.5t-108 -63q141 -12 215 -148q50 -86 49 -210q0 -28 -2 -59q-14 -163 -98 -255q-31 -35 -69 -60.5t-89 -40t-92 -22.5t-112 -10t-109.5 -2t-122.5 2 t-119 2h-67q-95 0 -158 -4q-43 -6 -82 -6q-31 0 -57 4q-62 8 -66 53zM436 139q45 0 141.5 -3t153.5 -3t132 3.5t127 17.5t85 36q71 51 93 174q7 40 7 77q0 78 -30 145q-25 49 -75 86t-107 43q-23 2 -52.5 3t-56.5 0t-62.5 -3t-62.5 -2q-66 0 -160 1t-125 1q1 -37 1 -84 q0 -93 -3 -229q-4 -202 -6 -263zM440 1246q0 -54 2 -187t2 -207q37 0 95.5 -1t98.5 -1h91t90 3t78 9t69.5 16.5t51.5 26.5q76 53 86 167q1 16 1 31q0 94 -54 161q-33 41 -108 59t-139 19h-29q-61 0 -159 -3q-123 -4 -172 -4q-4 -35 -4 -89z" />
<glyph unicode="C" horiz-adv-x="1431" d="M138 718v25q0 115 24 223q28 118 81.5 220t139.5 179t197 118q51 20 131 28q30 3 58 3q131 0 229 -53q120 -64 173 -204q2 20 2.5 58.5t1.5 67t5 58t15 47t32 19.5q33 2 51 -10t24 -44q5 -27 4 -53v-10q-1 -30 -5.5 -84.5t-4.5 -93.5q0 -225 -8 -256q-14 -43 -53 -47 q-29 0 -45 15.5t-20.5 36t-12.5 60.5t-16 69q-43 121 -127 192.5t-197 83.5q-22 2 -43 2q-174 0 -309 -131q-41 -41 -79 -103.5t-62.5 -135t-30.5 -138.5q-6 -73 -6 -138q1 -117 21 -205q32 -138 120 -247q136 -169 335 -169q48 0 99 10q57 12 112.5 42.5t101.5 76.5t73 104 q6 8 14 25.5t13.5 26.5t14.5 20.5t18.5 15.5t22.5 4t28 -6q29 -14 34.5 -47t-2.5 -60.5t-22 -54.5q-141 -298 -498 -298q-34 0 -70 3q-193 14 -338 156.5t-194 339.5q-29 129 -32 259z" />
<glyph unicode="D" horiz-adv-x="1519" d="M57 72q0 27 9.5 40t33 19t46 6h69.5t82 2q18 254 17.5 552t-17.5 640q-14 1 -30 1q-17 0 -35 -1q-38 -2 -59 -2t-46 5t-40 22.5t-24 46.5q-2 7 -2 14q0 34 62 47q55 13 252 13h243q305 0 441 -68q125 -57 211 -180q104 -150 126 -407q5 -62 6 -121q0 -186 -54 -343 q-55 -156 -203 -258q-45 -33 -108.5 -55t-119 -32.5t-141.5 -14.5t-138 -4t-151.5 3t-142.5 3q-115 0 -166 -4q-21 -3 -39 -3q-37 1 -55 13q-26 18 -27 66zM444 135q81 -5 168 -5q56 0 112 2q148 5 241 36q133 47 209.5 180t80.5 336q1 24 1 48q0 206 -78 356 q-88 168 -269 223q-37 10 -77.5 16t-94 8t-86.5 2t-105.5 -1t-101.5 -1q12 -188 14 -537v-89q1 -300 -14 -574z" />
<glyph unicode="E" horiz-adv-x="1421" d="M68 49q2 12 2 31q4 29 26.5 42t55 14t71.5 2t76 1q1 84 1 199q0 174 -2 416q-1 174 -1 303q0 174 2 270q-23 2 -64.5 2t-68.5 2t-54.5 9.5t-37.5 26.5q-6 11 -7 27q0 10 3 23q8 35 54 45.5t134 10.5h893q27 0 42 -14.5t20.5 -40t7.5 -59.5q1 -23 1 -48v-25v-26 q0 -27 1 -56q2 -39 3 -55t1 -48t-5 -47.5t-13.5 -34t-24 -25.5t-37.5 -7q-43 2 -55 49q-10 40 -9 137v35v19q0 47 -8 102h-633q-6 -118 -6 -238.5t6 -244.5q48 -3 126.5 -3t187.5 3q0 10 2 57t5 67.5t10 51.5t20.5 44t35.5 15h5q42 1 56 -29q13 -28 13 -76v-13 q-12 -313 -12 -422q1 -51 -57 -65q-16 -4 -30 -5q-34 0 -50 27q-6 12 -6 26l6 181q-55 -2 -155.5 -2.5t-154.5 -2.5q0 -285 5 -559q120 4 253 4q187 0 400 -8q8 73 8 154q0 41 -2 84q0 8 -2 26v78t16.5 56.5t51.5 21.5q27 -2 44 -18.5t23 -53t8 -63.5t2 -78v-18 q0 -25 -4 -152q-2 -12 -1 -48t0 -61.5t-9 -39.5t-39 -22.5t-81 -8.5t-101 2t-124 5t-124 3q-129 0 -279.5 -4t-269.5 -4h-27.5t-27.5 -1t-25.5 0t-22.5 2t-19.5 5t-15.5 10t-9 16q-4 7 -4 15v6z" />
<glyph unicode="F" horiz-adv-x="1255" d="M55 1396q0 55 74 70q31 5 123 9q241 8 456 8q242 0 453 -10q12 -2 22.5 -9.5t16.5 -23t9 -30.5t4 -44t1 -49.5t-1 -57t-1 -61.5q0 -49 -1 -78.5t-8 -61.5t-22.5 -46.5t-39.5 -14.5q-20 0 -34.5 13.5t-21 44t-7.5 54.5t-3 73v32l-8 119q-165 13 -335 13q-141 0 -286 -9 q-3 -133 -3 -259.5t3 -246.5q49 -3 127 -3t185 3q2 29 1 58t0 56.5t4 49t14 35.5t30 17q35 2 56.5 -5.5t28.5 -27t9 -35.5t0 -51q0 -129 6 -420q0 -4 1 -8q0 -57 -28 -76q-14 -10 -34 -10q-21 0 -47 12q-12 10 -19.5 40t-9.5 61.5t-4 81.5t-4 77q-55 -2 -158.5 -2h-159.5 q0 -285 -4 -545q27 -3 54 -3q22 0 44 2q12 1 24 1q34 0 62 -11q34 -14 33 -55v-5q0 -14 -2 -25.5t-11 -19t-16 -11.5t-24.5 -6t-27 -3t-35 -2t-35.5 -1q-106 -4 -190 -4h-54q-16 2 -45 3t-43 2t-34.5 3t-32 6t-22.5 11.5t-16.5 18.5t-5.5 26q0 31 11.5 47t35.5 21q26 5 48 6 h27.5h37.5q43 -1 72 -1q6 213 6 626t4 566q-24 3 -50 3q-25 0 -53 -3q-18 -2 -35 -2q-35 1 -65 9q-47 14 -47 58z" />
<glyph unicode="G" horiz-adv-x="1490" d="M184 866q39 310 201 473q68 66 160 113t192 55q28 2 55 2q136 0 234 -51q117 -61 162 -192q4 18 4 46.5t-1 52.5t1 50.5t6 45t16.5 30.5t30.5 12h5q37 0 54 -25q19 -28 20 -77v-20q0 -43 -3 -97q-4 -59 -4 -207q0 -23 -1 -31l-3 -24t-9.5 -23.5t-19.5 -13.5t-33 -8 q-23 -2 -36 8t-19 23.5t-15.5 44t-17.5 51.5q-41 109 -119.5 181.5t-197.5 80.5q-19 2 -38 2q-181 0 -319 -139q-59 -59 -105 -167t-56 -224q-6 -65 -6 -125q0 -285 137 -451q129 -158 350 -158h6q190 2 293 129q98 122 98 349v18q-93 4 -159.5 4t-106.5 -4q-20 -2 -37 -2 q-86 0 -96 43q-5 18 -5 33q0 50 60 65q34 8 139 8q53 0 123 -2l109 -2q43 -2 58.5 -3t33.5 -12t23.5 -33.5t5.5 -63.5v-18q0 -315 -138 -483q-143 -173 -411 -173q-199 0 -339 92t-218 266q-75 174 -75 385q0 80 11 166z" />
<glyph unicode="H" horiz-adv-x="1558" d="M61 1395v6q0 50 62 61q41 11 250 11h174h43t34.5 -3.5t32 -9.5t17.5 -20.5t10 -34.5q0 -23 -18.5 -39t-56.5 -23.5t-64.5 -9.5t-75.5 -4h-12q-15 -219 -15 -410v-63h79q350 0 601 16q0 56 1 226v64q0 119 -3 169q-25 4 -92 6t-102 13.5t-39 42.5q-2 33 22.5 52t66.5 24.5 t94 7.5q26 1 52.5 1t53.5 -1q33 -2 49 -2h65.5h55h46t38 -1t28.5 -4.5t21.5 -8.5t15.5 -12t9 -17.5t3 -24.5q0 -23 -13 -37t-42 -19t-55.5 -7.5t-67.5 -4.5t-63 -4q1 -49 0 -133q0 -169 -2 -480q-1 -104 -1 -190q0 -302 11 -395q28 -3 57 -3q25 0 49 2q13 1 25 1 q39 0 69 -12q38 -15 37 -58q0 -27 -15 -44q-13 -15 -42 -20t-52.5 -5t-74.5 1t-78 1q-27 -2 -63.5 -2h-80.5t-75 -2q-16 -1 -30 -1t-28 1q-26 2 -45.5 9t-29.5 24.5t-6 48.5q4 39 44 51q27 8 58 8q16 0 32 -2q25 -3 50 -3t51 3q-8 165 -8 338q0 124 4 252q-254 -16 -598 -16 h-78q-3 -63 -3 -166q0 -53 1 -115q1 -93 1 -163.5t-1 -119.5q29 -8 60 -8q16 0 32 2t31 2q32 0 61 -9q42 -13 42 -56q0 -20 -8.5 -34.5t-17.5 -22t-30.5 -10.5t-34 -4t-44.5 -1q-115 -8 -265 -8q-145 0 -178 29q-21 17 -21 44q0 11 3 23q8 31 46 40q26 6 57 6q14 0 28 -1 q19 -2 38 -2l56 4q1 110 1 209.5t-1 187t-1 186.5t1 209q2 220 12 396q-32 -2 -59 -2q-184 0 -191 70z" />
<glyph unicode="I" horiz-adv-x="741" d="M63 74q0 14 8.5 24.5t24 16.5t30.5 10t39.5 6t44 3t47.5 2t44 3q0 157 1 611v267q0 231 -1 318q-29 4 -79 4t-78.5 1t-52 15.5t-25.5 45.5v6q0 49 30 63q24 10 73 10q15 0 32 -1q100 -2 179.5 -2t139.5 2q18 1 34 1q50 0 80 -9q40 -12 40 -56q0 -27 -12.5 -43t-38 -22.5 t-50 -8.5t-64.5 -3t-67 -3q0 -166 -1 -323q0 -472 5 -871q18 0 56.5 2t63 2t52 -4t43 -17t17.5 -38v-16q0 -22 -4 -34q-6 -18 -24.5 -26t-57.5 -8t-120 -1t-136 -1h-29h-64.5t-56 2t-52 7t-37 12.5t-27.5 20.5q-7 11 -7 25v7z" />
<glyph unicode="J" horiz-adv-x="960" d="M111 354q16 80 81 114q30 15 57 15q32 0 60 -22q31 -25 35 -69q1 -6 1 -12q0 -37 -23 -68q-25 -36 -70 -36q-1 -9 -1 -17q0 -51 39 -101q46 -60 122 -60q111 0 160 83t51 253v65q0 123 -5 369q-4 198 -4 330q0 81 2 137q-16 0 -50 -1t-52 -1h-46t-43 5t-30.5 12.5 t-24 19.5t-8.5 31q0 47 20 63q17 14 63 14q11 0 24 -1q21 -2 279 -2q147 0 193 -9.5t50 -54.5q0 -23 -12 -38t-40 -21t-51.5 -9.5t-64.5 -4.5t-57 -3q-6 -82 -6 -171t1 -157.5t3 -169t4 -173.5q0 -33 1 -119t1 -125v-10q0 -224 -88 -340q-89 -117 -256 -117h-6 q-162 0 -252 122q-66 89 -66 197q0 40 9 82z" />
<glyph unicode="K" horiz-adv-x="1486" d="M53 59q-1 5 -1 10q0 13 5 23q6 14 21.5 22.5t32 13.5t42 7t46 3t50.5 1h48q4 831 4 1196h-46t-49.5 1t-44 3t-41 6.5t-30.5 11.5t-23.5 19.5t-7.5 28.5q0 47 52.5 57.5t261.5 12.5q25 1 54 1h30q47 -1 89 -5.5t71.5 -20.5t29.5 -41q0 -29 -12 -44t-34.5 -21.5t-53.5 -7.5 h-22q-22 0 -48 1h-35q-2 -43 -2 -137q0 -70 1 -168q1 -62 1 -109q0 -125 -6 -141q20 25 68.5 69t125.5 109.5t109 94.5q57 51 149.5 133t140.5 124t58 46q-81 -9 -137 -9q-42 0 -72 5q-68 12 -67 57q1 35 21 51q18 14 66 13h13q43 -2 121 -2t129 -3q14 0 54 2.5t72 3.5h14 q25 0 51 -2q34 -4 56 -15t24 -29q4 -27 -5.5 -46.5t-21.5 -28.5t-40 -15.5t-45 -7.5t-52 -3h-9.5h-7.5t-6 -2q-51 -41 -227 -205q-76 -74 -168 -155.5t-109 -98.5q96 -129 282.5 -362.5t285.5 -364.5h58.5t54 -1t41 -15t18.5 -43v-9q1 -33 -13 -51t-55 -18h-8q-23 0 -315 -4 q-34 -3 -69 -3h-17q-43 1 -77 6t-54.5 22.5t-20.5 48.5q0 25 20 40t50 19q20 3 48 3q14 0 31 -1q119 -4 166 -20q-68 59 -186 207l-358 452q-131 -96 -177 -141q-5 -87 -5 -279q0 -96 1 -217q14 -2 36 -2h38h37.5t36 -2t31 -6t24.5 -10t17.5 -15.5t7.5 -21.5t-6 -31 q-2 -12 -12.5 -21.5t-28 -14.5t-35 -8t-48 -3h-54t-62.5 1t-66 1q-37 0 -88 -4q-52 -4 -84 -6q-13 -1 -26 -1q-20 0 -39 2q-33 3 -49.5 18.5t-18.5 45.5z" />
<glyph unicode="L" horiz-adv-x="1265" d="M90 41q-9 24 -9 42q0 60 99 60h154v193v307q2 63 5 205.5t3 226.5q0 154 -2 260q-27 4 -67 4t-67.5 1t-54 5.5t-42 16.5t-15.5 35t7.5 38t24.5 24t35.5 13.5t49.5 5.5h29.5h25.5q24 -1 63.5 -3t63.5 -5q68 1 197 7h17q63 1 89 -13q30 -16 33 -61q2 -23 -10 -37t-42 -20.5 t-54.5 -8.5t-70.5 -2t-67 -2v-82.5v-84v-83.5l-8 -411q-4 -313 -4 -314v-213q148 -4 294.5 -4t293.5 4q2 43 3 121t1 115q2 27 0 52.5t1 48t8 40t21.5 27.5t43.5 10q18 0 33.5 -8t23.5 -25.5t12 -34t4 -47v-49t-2 -55.5v-12t-1 -10.5t-1 -12.5q-1 -17 -1 -36q0 -29 2 -63 q1 -21 1 -42q0 -36 -3 -74q-5 -60 -19 -74q-10 -8 -27.5 -12t-32 -4t-35 1t-24.5 1q-72 1 -185 1q-114 0 -266 -1q-306 -2 -397 -2q-29 0 -44 1t-36.5 4t-34 12.5t-16.5 23.5z" />
<glyph unicode="M" horiz-adv-x="1888" d="M76 63v8q0 25 11 39q13 18 35.5 22.5t51.5 5.5t59.5 -1t61.5 2q1 18 1 139v146q-1 258 -1 289q0 16 6 372q0 47 -1 134.5t-1 105.5h-18q-43 0 -63.5 1t-47.5 5t-38 13.5t-19.5 27t-8.5 43.5q0 47 68 57q48 7 155 6q45 0 101 -1q51 0 86 -40t68 -130q113 -295 180 -486 q10 -27 44 -112.5t62.5 -165.5t46.5 -150q23 -76 27 -127q18 96 29 131l229 631l96 266q66 178 117 179q20 0 56 1t58.5 1t55.5 -1t53.5 -2.5t45 -4.5t39 -8t28.5 -12t20.5 -17.5t6.5 -22.5q0 -18 -5.5 -31.5t-17.5 -20.5t-22.5 -12.5t-34 -7.5t-34.5 -2h-41h-40 q2 -39 4 -119.5t4 -123.5q0 -74 3 -223.5t5 -231.5q0 -170 -4 -492q23 -4 67 -6t72.5 -4t51 -17.5t24.5 -45.5q0 -18 -7 -31.5t-24.5 -22t-35 -12.5t-47 -5t-50 -1t-57.5 1t-57 1q-18 0 -56 -1t-57.5 -1t-50.5 1t-48.5 5t-35.5 9t-26.5 14.5t-10.5 21.5q-4 25 4 42.5 t20.5 26.5t36 14t42 5t50.5 1t46 3q4 123 4 832q0 268 4 368q-14 -55 -62.5 -192t-122 -341t-96.5 -265l-114 -314q-2 -6 -9.5 -25.5t-9.5 -25.5t-8 -20.5t-10 -19.5t-11.5 -15t-13.5 -14.5t-14 -9.5t-18.5 -6t-22.5 -1q-23 0 -41 8.5t-30.5 26.5t-19.5 31.5t-15.5 38 t-10.5 32.5q-53 123 -252 680q-102 295 -141 424q6 -98 6 -189t-1 -204t-1 -172q0 -28 2 -322q1 -98 0 -165q0 -133 -2 -140q16 -4 52 -6t61.5 -6t51.5 -13.5t36 -31t4 -51.5q-4 -16 -18.5 -25.5t-43 -11.5t-51 -2t-64.5 3t-59 3q-40 1 -79.5 1t-77.5 -1h-21q-29 -1 -53 -1 h-22q-32 1 -53 16.5t-21 47.5z" />
<glyph unicode="N" horiz-adv-x="1579" d="M76 63v9q0 24 8 38q10 18 36.5 23.5t49.5 7.5t63.5 2h63.5q2 104 2 221t-2 246v217.5v221.5l-2 280q-13 2 -33 2q-15 0 -34 -1q-44 -3 -69.5 -3t-48 18.5t-22.5 59.5q0 47 34 57.5t122 10.5h26q152 0 170 -9q14 -6 31.5 -25.5t29 -37t32 -52t30.5 -49.5q43 -72 129 -218 t146 -238l260 -434q72 -117 110 -230q-18 158 -20 250q0 25 -2 331t-2 329v75.5v84.5v75h-53.5t-48 -1t-39 1t-34 6t-23.5 13.5t-16 23.5t-5 37q0 16 9 28.5t24.5 19.5t38 12t49 6.5t57.5 2.5h21q21 0 42 -1h19.5h19h19.5h157q63 1 90 -15q24 -14 24 -56q0 -6 -1 -13 q0 -20 -12.5 -34t-36 -19t-46 -7t-58 -3t-56.5 -3v-227q1 -95 1 -179.5t-1 -158.5v-167t1 -158.5t3 -156t2 -157.5q0 -49 -4 -78t-23.5 -50.5t-54.5 -23.5q-8 0 -15 2t-13.5 4t-14.5 8.5t-13 11.5t-13.5 15t-13.5 17.5t-14 19.5t-15.5 21.5t-16.5 26t-18 26.5 q-53 84 -320 532q-84 141 -260 418q-70 111 -102 225q14 -106 16 -252q4 -225 4 -899q23 -2 64 -3t64.5 -3t50 -9t38 -23.5t9.5 -43.5q-2 -12 -6.5 -22t-13.5 -17.5t-17 -12.5t-23.5 -8t-26 -5t-31 -1t-32.5 1t-36.5 1t-37.5 1q-33 0 -85 2t-88 2h-62h-23.5h-22.5h-19.5 t-18.5 2t-14.5 5t-13.5 7t-8 10.5t-7 15.5t-4 21z" />
<glyph unicode="O" horiz-adv-x="1513" d="M154 601q-6 58 -7 116q0 133 33 266q35 141 114 261t191 190q117 72 275 80l38 2q136 0 246 -56q193 -98 295 -342q43 -104 59 -252q8 -78 7 -150q0 -66 -6 -128q-10 -90 -37 -177t-74 -172t-122.5 -150.5t-170.5 -98.5q-103 -32 -210 -32q-37 0 -75 4q-146 15 -247 79 q-57 35 -114.5 95.5t-96.5 133.5q-78 139 -98 331zM308 878q-13 -75 -14 -153q0 -88 18 -178q32 -170 128 -287q78 -92 207 -135q79 -22 150 -22q54 1 104 13q115 30 193 109q94 101 136 275q29 121 29 243q1 54 -5 107q-18 176 -89 293q-104 170 -272 215q-56 14 -110 14 q-89 0 -169 -38q-129 -62 -203.5 -179t-102.5 -277z" />
<glyph unicode="P" horiz-adv-x="1318" d="M57 1415q0 39 52.5 49t181.5 11q31 2 133.5 3t155.5 1q221 0 294 -15q141 -23 232.5 -105.5t124.5 -219.5q11 -56 11 -115q0 -47 -7 -96q-16 -111 -60.5 -183.5t-116 -115.5t-155.5 -57q-83 -13 -185 -16q-34 -1 -68 -1q-68 0 -138 4q-47 2 -72 2v-97v-97v-74t-1 -87 t-3 -79q35 -4 82 -5t69.5 -3t47 -7.5t36 -18.5t13.5 -36q0 -20 -5 -34.5t-19 -22.5q-16 -8 -30 -12q-12 -3 -30 -3h-10q-26 1 -45 2t-53 5q-67 7 -178 7q-44 0 -95 -1q-76 0 -110.5 11t-36.5 50q-1 7 -1 13q1 36 21 52q22 19 64 18h4q45 -1 104 -7q18 0 29 -2q5 227 5 327 q0 33 -1 52q-4 104 -4 401q2 76 12 424h-47h-51.5t-45 2t-43 7.5t-30.5 13.5t-23.5 22.5t-7.5 32.5zM438 961q0 -45 1 -133.5t1 -127.5q26 0 134 -4q86 -3 137 -3h23q52 1 127 15.5t120 43.5q63 43 93 131q22 64 22 130q0 25 -4 51q-12 93 -60 157q-27 37 -67.5 61.5 t-79.5 36.5t-102.5 17t-103.5 5t-119 -2t-116 -2q0 -31 -3 -162t-3 -214z" />
<glyph unicode="Q" horiz-adv-x="1517" d="M136 743q3 131 30 244q53 205 196.5 356.5t344.5 167.5q33 3 65 3q271 0 438 -207q74 -92 118 -228.5t56 -284.5q3 -40 3 -81q0 -107 -22 -215q-30 -148 -93.5 -266.5t-177 -195.5t-260.5 -85q-3 -28 -3 -55q0 -92 33 -156q43 -82 121 -109q36 -11 72 -11t71 11 q72 23 123 82q20 21 39 21t37 -22q20 -26 20 -54q0 -20 -10 -41q-4 -8 -8 -14q-57 -76 -167 -105q-52 -15 -106 -15q-58 0 -118 17q-123 35 -194 146q-61 98 -61 261q0 24 1 48q-150 23 -252 92.5t-180 192.5q-59 96 -89 234q-27 125 -27 245v24zM292 867q-13 -76 -13 -154 q0 -90 18 -182q33 -171 127 -281q84 -96 209 -135q80 -22 152 -22q54 0 104 13q115 29 190 109q94 100 136 273q29 122 29 246q0 53 -5 106q-18 178 -90 303q-104 176 -268 217q-63 15 -120 15q-91 0 -166 -39q-122 -62 -200 -185q-74 -119 -103 -284z" />
<glyph unicode="R" horiz-adv-x="1476" d="M61 61q0 47 32 59.5t138 20.5h21.5t21 1t23.5 3q1 148 1 233.5t-1 106.5q-1 30 -1 83q0 105 3 300l6 461q-41 9 -78 9q-19 0 -37 -2q-16 -2 -30 -2q-34 0 -58 12q-36 16 -36 71q0 23 11 35t37 18q26 5 46 6q10 0 26 0.5t38 -0.5q44 -1 65 -1q43 0 162 -1h73q67 0 109 1 q53 1 94 1t71 -1q58 -2 132 -16.5t129 -43.5q106 -53 155 -164q36 -83 36 -178q0 -41 -7 -85q-22 -144 -104 -212q-71 -63 -199 -63h-12q121 -12 174 -70q80 -82 106 -299q2 -16 4 -45t4.5 -51.5t5.5 -47t9 -43t16 -26.5q14 -18 37 -21.5t45 11.5q12 8 16.5 27.5t11.5 33 t29 15.5h3q37 1 47 -55q3 -17 3 -33q0 -36 -18 -60q-39 -70 -124 -82q-16 -2 -32 -2q-66 0 -118 41q-49 39 -64.5 121t-27 194.5t-43.5 188.5q-27 59 -76 95t-114.5 47.5t-146.5 14.5q-35 1 -71 1q-48 0 -98 -2q-43 -2 -66 -2v-63t1 -63.5l2 -59t1 -62.5v-64q0 -45 -4 -202 q23 -2 65 -3.5t68.5 -4.5t56 -9t45 -22.5t15.5 -40.5q0 -14 -4 -24.5t-10 -19t-13.5 -13.5t-20.5 -8t-23.5 -4t-28 -1h-29.5t-33.5 1t-35.5 1q-61 1 -109 1q-97 0 -145 -5q-8 0 -39 -5t-49.5 -6t-42 3t-35 21.5t-11.5 49.5zM442 952q2 -49 2 -153h136q68 0 132 -2 q18 -1 37 -1q45 0 87 4q60 5 108.5 18t85.5 43t53 75q17 48 19 116q0 5 1 9q0 64 -20 121q-16 47 -56 78.5t-86 45.5q-47 15 -117 21q-60 5 -107 5h-15q-52 -1 -133.5 -4t-122.5 -3q0 -72 -2 -196.5t-2 -176.5z" />
<glyph unicode="S" horiz-adv-x="1349" d="M170 1157q0 162 124 258q119 92 299 92h15q133 -2 248 -54t182 -146v16q-4 43 -6 86v9q0 37 14 67q16 33 54 35q48 0 62 -29q10 -21 10 -67q0 -17 -1 -38q2 -137 5 -182q2 -43 2 -76q0 -52 -6 -78q-10 -44 -52 -46q-14 0 -25.5 9t-16.5 20t-16 36t-22 41 q-59 115 -172.5 184.5t-251.5 73.5h-16q-118 0 -190 -56q-78 -60 -76 -153q0 -61 50 -111.5t130 -87t175 -73.5t191.5 -85t175.5 -106.5t129 -148.5t50 -203v-6q0 -180 -121 -278q-123 -100 -313 -101q-166 2 -293 73.5t-207 203.5q2 -16 7 -53.5l8 -60t5.5 -51t-1.5 -47 t-9 -28.5q-12 -12 -39.5 -17.5t-53 10t-32.5 52.5q-6 41 -8 75t-3 83t-3 90q-6 53 -6 99q0 42 5 79q11 76 60 78q18 4 30.5 -4.5t18 -17.5t16.5 -34.5t19 -39.5q72 -172 200 -259.5t265 -89.5h8q127 0 206 62t79 184v6q-2 72 -42 133.5t-103.5 102.5t-144.5 81t-164.5 72.5 t-163.5 74.5t-142.5 86t-101.5 109.5t-41 145.5z" />
<glyph unicode="T" d="M39 1366q0 29 8 59.5t27 42.5q8 6 24.5 10.5t39 5.5t40 1t44 -1t36.5 -1q84 0 226.5 -4t187.5 -4q30 -1 77 -1q94 0 257 3h266q39 0 47 -31q6 -25 6 -99v-40v-103q0 -166 -18 -196q-16 -23 -43 -25q-52 1 -68 31q-14 27 -14 101v20q0 45 -1 106.5t-1 89.5q-102 4 -205 4 l-205 -4l-6 -155q-4 -119 -4 -290q0 -114 2 -251q3 -277 3 -404q0 -63 -1 -88q16 2 45 2q25 2 48 2q17 0 34 -1q39 -3 67 -10q30 -6 42 -30q7 -12 6 -30q0 -15 -5 -33q-4 -14 -21 -23.5t-41 -11.5t-52.5 -3t-52.5 -1h-13q-53 0 -321 -8q-16 -1 -30 -1q-16 0 -28 1 q-24 2 -40.5 8t-25.5 22.5t-9 45.5q0 12 6 21t18 16.5t25.5 12.5t36 8t38 5t44 3t44 2t44.5 1q0 29 1 79t1 67l-4 213q0 6 -5 155q1 351 5 527v151q-291 6 -441 6q-4 -74 -4 -123q0 -33 2 -55q3 -28 3 -54v-13q-1 -32 -6 -55t-20.5 -37.5t-41.5 -16.5q-29 0 -45.5 14.5 t-21.5 43t-6 70.5v17q0 35 3 78q0 29 -2 79t-2 79z" />
<glyph unicode="U" horiz-adv-x="1456" d="M29 1384q-4 19 -4 33q0 19 7 31q13 20 54 27q45 7 75 7h7q31 -1 94.5 -5t97.5 -4h41h40.5h38t36.5 -2.5t30.5 -5.5t27 -7t20.5 -11t14 -17.5t6 -22.5q2 -27 -11 -43t-36.5 -21.5t-54.5 -8.5t-63.5 -1t-63.5 -2q0 -69 -7 -447q-3 -156 -3 -257q0 -145 6 -178 q10 -197 115 -281q76 -58 196 -72q29 -3 58 -4q90 0 172 32q108 42 143 130q29 76 33 198q1 40 1 81q0 82 -5 165q-3 148 -3 277q0 195 7 350h-54.5t-53 -1t-47 2t-37 11.5t-25 27.5t-9.5 48q0 12 5.5 21.5t16.5 15.5t23.5 10t31 6t35.5 3t41 1h42h45h43h139h15q35 0 51 -1 t38.5 -5t32 -11t16.5 -21.5t7 -36.5q0 -23 -12 -36t-36 -19.5t-46.5 -7.5t-57 -2t-57.5 -3q-9 -178 -9 -385q0 -69 1 -141q2 -29 4 -103.5t3 -109.5v-42v-56q-1 -64 -5 -102t-11 -87t-20.5 -87t-31.5 -71q-57 -94 -176 -145q-115 -49 -237 -49h-10q-128 2 -250 51t-184 135 q-68 96 -81 258q-4 70 -8 150q-3 62 -2 121v32q1 74 2 159t4.5 158.5t4.5 162t1 159.5q-20 2 -83 5t-93.5 12.5t-34.5 31.5z" />
<glyph unicode="V" horiz-adv-x="1411" d="M-45 1394q2 14 2 33q9 33 73 41q52 7 170 7h60h57h63.5t51.5 -2.5t45.5 -6.5t30.5 -11t23.5 -18.5t9.5 -27.5q2 -39 -22.5 -51t-63.5 -15q-98 -6 -142 -8q29 -94 66 -206.5t79 -237.5t60 -182q25 -74 76 -216.5t81 -236.5t38 -158q8 98 133 473l47 142q156 451 201 620 q-23 4 -60 6t-61.5 4.5t-51 7.5t-40 18t-11.5 36q0 14 4.5 25.5t12.5 18.5t17 12.5t25.5 8.5t30 4t38 1h43t50 -1t54.5 -1q33 0 92 -3q133 0 174 -8.5t45 -48.5v-9q0 -23 -9 -38q-11 -18 -31.5 -24.5t-47.5 -8.5t-56.5 0t-58.5 -2q-16 -47 -57 -184q-49 -164 -125 -387 l-170 -498q-4 -8 -27.5 -74.5t-35.5 -109.5q-2 -2 -8.5 -22.5t-7.5 -25.5t-8 -22.5t-12 -24t-15.5 -18.5t-20.5 -16t-24.5 -9.5t-32.5 -5.5q-27 0 -49.5 15.5t-40 47.5t-23.5 48t-18 49q-23 63 -71 189.5t-73 199.5q-14 45 -33.5 104.5t-38 118t-34.5 103.5 q-117 346 -170 524h-35t-34 -1t-32.5 0t-31 3t-27.5 6.5t-21.5 11.5t-14.5 17q-7 8 -7 19v5z" />
<glyph unicode="W" horiz-adv-x="2123" d="M-27 1397q0 23 9.5 38t19.5 23t37 12.5t44 4.5h56h33h135h58q119 0 141 -7q43 -14 47 -59q2 -27 -10.5 -41t-37 -19.5t-49 -7.5t-60.5 -2t-56 -4q16 -88 49 -207q27 -96 133 -436q141 -449 158 -581q6 74 96 366l174 561q31 106 43 154q-6 25 -13 49.5t-13 37.5 t-11.5 29.5t-7.5 28.5q-72 0 -96 2q-37 6 -55.5 19.5t-18.5 54.5q0 27 21.5 42t58.5 21q38 5 88 6h34q35 0 73 -1q213 -2 250 -19q31 -12 32 -45q0 -27 -14 -42t-42 -21t-55.5 -7t-64.5 -1t-55 -5q27 -113 67 -251l115 -379q25 -78 60.5 -187.5t52 -162t33 -118t20.5 -116.5 q35 195 166 586q51 154 119 405q8 33 17 71t20.5 83t17.5 67q-14 2 -41 3t-48.5 1t-47 3.5t-42 10.5t-28.5 20.5t-14 33.5q-2 27 14.5 42t45 19.5t66.5 6.5q19 1 38 1t39 -1q14 -2 20 -2q31 0 71 -1t64.5 -2t57 -1t47.5 2h18q46 -1 70 -9q28 -10 30 -47v-10q0 -19 -6 -32 q-8 -17 -22.5 -26.5t-35 -13.5t-44 -4t-49 -1t-51.5 -1q-12 -47 -58.5 -202.5t-66.5 -243.5q-12 -45 -26.5 -93.5t-31 -101.5t-26.5 -88l-158 -493q0 -4 -4 -13q-10 -33 -17.5 -50t-21.5 -41.5t-33.5 -36t-46.5 -13.5q-47 0 -79 57.5t-72 182.5q-135 403 -185 569 q-20 70 -55 268q-12 -123 -55 -260q-6 -27 -17.5 -63.5t-19.5 -65.5t-18.5 -64.5t-18.5 -66.5q-18 -55 -143 -446q-14 -45 -43 -78t-68 -33q-49 0 -77 40t-50 107l-111 361l-106 330q-47 158 -154 544q-16 0 -43.5 -1t-43 -1t-38 1t-35 4t-25.5 10.5t-18.5 18.5t-5.5 28z " />
<glyph unicode="X" horiz-adv-x="1433" d="M53 1401q-2 12 -2 22q-1 23 9 35q14 18 55 17h237h48h45.5t39 -1t34.5 -3.5t27.5 -6.5t24 -9t15.5 -15t6 -23q4 -23 -6.5 -37t-35 -20t-43 -8t-55 -4t-49.5 -2q49 -45 189 -265q43 -68 135 -202l125 192q8 10 20 33q37 57 55.5 86t44 67.5t41 58t23.5 23.5q-24 5 -49 5 q-16 0 -32 -2q-11 -1 -21 -1q-28 1 -52 11q-32 14 -32 57q2 45 38 55q30 9 100 9h28h26h58.5h54.5h50.5t45 -1.5t40 -4.5t32.5 -6t24.5 -9t16.5 -14t6 -19q2 -23 -6 -39t-19.5 -23t-36 -11.5t-42 -5.5t-52.5 -1h-11h-8h-11l-199 -317l-172 -258l180 -268l244 -357 q26 -4 48 -4q11 0 21 1q30 3 55 -1t36 -18q11 -15 11 -41q0 -32 -13 -58q-12 -18 -45 -23q-15 -2 -38 -2q-28 0 -66 3q-70 6 -95 6q-57 0 -139 -4q-33 -1 -59 -1h-25q-34 1 -52 21q-16 18 -16 52v8q2 35 36 44q22 6 50 6q16 0 33 -2q16 -2 33 -2q34 0 71 7q-37 16 -225 305 q-80 127 -135 205q-27 -39 -78 -120t-65 -103q-27 -43 -76 -123t-75 -117t-42 -47h39h37t30.5 -1t28.5 -3t22.5 -5t18.5 -9.5t12.5 -15.5t8.5 -21.5t2 -26.5q0 -20 -12.5 -31.5t-40 -14.5t-51.5 -4h-20q-22 0 -56 1q-50 2 -80 2h-47q-27 -1 -54 -1h-27q-40 1 -70 6 t-49.5 18.5t-19.5 35.5q-2 31 8.5 49.5t28.5 24.5t46 8q14 1 30 1t35 -1h29q68 96 102 154l164 258l133 203l-148 223q-197 289 -235 354q-47 0 -70.5 1t-56.5 6.5t-49.5 19.5t-22.5 39z" />
<glyph unicode="Y" horiz-adv-x="1247" d="M-38 1412q1 13 7 22.5t10.5 15.5t15.5 10t17 6t23.5 3t24 1h29h30.5h295q43 0 62.5 -19t19.5 -58q-2 -18 -6.5 -30.5t-15.5 -20t-22.5 -11.5t-33 -5t-39 -1h-48h-52.5q14 -10 38.5 -47t66.5 -111.5t62 -107.5q23 -39 58 -95.5t54.5 -89t41 -70.5t31.5 -63.5t10 -44.5 q2 16 8 36t14.5 38t23.5 46t27.5 50.5t33 58.5t36.5 62q20 39 50 94.5t50.5 93t42 75.5t38 58.5t28.5 22.5q-23 4 -52.5 2t-63 0t-61.5 7.5t-47 21.5t-19 43q0 45 37.5 57.5t117.5 12.5h213h19h57t43 -4.5t36 -11.5t19 -21.5t8 -36.5q0 -25 -8 -39t-29.5 -20.5t-37 -8.5 t-50 -2t-49.5 -2q-57 -111 -126.5 -233.5t-162 -284.5t-124.5 -221q0 -55 -1 -114.5t-1 -105.5t-1 -106.5t-1 -116.5q25 -4 65.5 -6t70 -4t58.5 -9t42 -24.5t7 -46.5q-4 -16 -14 -27.5t-29.5 -16.5t-39 -9t-51.5 -4h-55.5t-62 1t-61.5 1h-60.5h-62t-55.5 1t-50.5 5t-38 11.5 t-27.5 20.5t-9 30q0 29 12 46t35 22t52.5 7t62.5 0q10 -1 21 -1q23 0 46 3q0 55 2 151.5t2 162.5v129l-55 98l-385 637q-25 2 -48.5 1t-45 0t-36.5 5t-25.5 17.5t-10.5 35.5q-1 9 -1 18v10z" />
<glyph unicode="Z" d="M138 56q-4 13 -5 27q0 44 45 99l461 590q27 31 55.5 71t59 81t57.5 71l129 172q109 137 158 172q-59 -12 -181 -15q-52 -1 -123 -1q-96 0 -224 2q-224 4 -259 6q-5 -44 -5 -90q0 -56 7 -115q4 -34 4 -60q0 -32 -7 -52q-11 -29 -57 -30q-8 0 -17 1q-12 0 -21.5 5 t-15.5 13.5t-11.5 16.5t-8.5 22.5t-4 24.5t-2 28.5t-1 30t-1 32t-1 30.5v22q-3 36 -3 74v18q1 48 6 85.5t23.5 61.5t51.5 24q502 -5 688 -5h53q49 2 98 2l74 -1q86 -3 99 -23q12 -19 12 -42q0 -44 -45 -104l-185 -247l-223 -299l-233 -297l-129 -168q-88 -113 -150 -154 q25 6 56.5 10.5t69.5 5.5t67.5 1t72.5 -1t64 -1q171 -2 290 -2t187 2q2 35 4 239q0 57 14 87q14 28 54 28h6q37 0 54.5 -24.5t17.5 -60.5v-77q-2 -12 -2 -18q-3 -69 -3 -114q0 -22 1 -38q0 -12 3 -40t4 -44v-7q0 -13 -3 -29q-4 -20 -17 -32q-14 -16 -51 -21q-31 -4 -59 -4 h-11q-34 1 -91.5 4t-80.5 3q-124 2 -298.5 2t-399.5 -2q-100 0 -118 54z" />
<glyph unicode="[" horiz-adv-x="548" d="M100 291q0 137 7.5 422.5t1.5 505.5v35.5v37v44v46.5v27q0 41 1 59.5t5 43t13 34.5t25.5 17.5t43.5 9.5q63 4 180 -2h26q39 -2 55.5 -3t35 -9.5t23.5 -24.5t3 -45q-2 -20 -9 -33.5t-25.5 -18.5t-33 -6t-44.5 -1h-15h-137q0 -154 -8 -722.5t-2 -930.5q33 -4 68.5 -2 t70.5 0t63.5 -6.5t46 -20.5t18.5 -44t-11.5 -44t-35 -21.5t-51 -7.5t-63.5 0h-18h-50.5h-52t-49 2t-40 6.5t-25.5 12.5q-10 12 -12.5 29.5t-0.5 53.5t2 48q0 74 -3 247t-3 261z" />
<glyph unicode="\" horiz-adv-x="663" d="M14 1489q0 10 2 25.5t8.5 22.5t15.5 16.5t25.5 8.5t36.5 -1q14 -2 25.5 -14.5t20 -31t12.5 -35t8 -36t6 -23.5q14 -57 35.5 -126.5t45.5 -140.5t36 -120q23 -80 46 -160.5t53 -181t52 -178.5q47 -172 90 -285q14 -39 40 -124t42 -132q88 -223 35 -260q-14 -8 -26.5 -13 t-22.5 -3t-18.5 3t-15.5 10t-12 15.5t-11 19.5t-8.5 19.5t-7.5 21.5t-7 17q-6 20 -14 46t-14.5 44.5t-14.5 36.5q-51 152 -97 296.5t-70.5 227.5t-78 269t-79.5 281q-12 43 -55.5 175t-61.5 210q-2 6 -5 20t-6.5 24.5t-6.5 28t-3 27.5z" />
<glyph unicode="]" horiz-adv-x="550" d="M27 -297q0 23 7 38t13 22.5t28.5 10.5t31 3h40.5q125 4 144 4q14 483 14 1646q-55 10 -112.5 4t-104.5 4.5t-51 47.5q-4 31 2 49t26.5 26.5t38 10.5t56.5 2q16 0 24 2q82 6 160 2t94 -31q4 -8 7.5 -22.5t4.5 -34t1 -33.5v-37.5v-32.5q0 -92 -3.5 -236t-3.5 -194 q-2 -145 0 -351t2 -308q0 -94 -6 -263t-6 -241q0 -10 1 -35.5t1 -42t-4 -35t-12 -26.5q-12 -10 -47 -14.5t-98.5 -3.5t-69.5 1h-19q-35 -2 -63.5 -1t-50 6.5t-33.5 20.5t-12 42z" />
<glyph unicode="^" horiz-adv-x="1232" d="M137 631l49 82l181 315q72 129 161 311q2 4 9 13q14 31 24 48t27.5 41.5t37 35t42.5 8.5q25 -2 51 -27.5t38.5 -46t35.5 -59.5l168 -320q14 -27 30.5 -54.5t33.5 -55t24 -39.5q12 -18 26.5 -48t29.5 -60t32 -54l53 -90q57 -106 -29 -133q-16 -2 -25.5 -3t-20.5 6t-16 11 t-13.5 16.5t-12.5 19.5t-11 20.5t-11 21.5q-39 72 -113 197.5t-96 166.5q-12 20 -77 144.5t-103 187.5q-33 -59 -92.5 -174t-84.5 -158q-29 -51 -68.5 -118.5t-77.5 -130t-65 -111.5q-2 -6 -6 -16q-12 -20 -18 -31.5t-19.5 -29t-25.5 -23t-29.5 -3t-36.5 16.5q-49 35 -2 123 z" />
<glyph unicode="_" horiz-adv-x="759" d="M2 -313q-2 37 9.5 52t41.5 23q23 6 77 7.5t107.5 -0.5t116.5 -4.5t88 -2.5q16 0 65.5 1t83.5 1t74 -2t63.5 -7t29.5 -13q10 -25 6 -59q-6 -41 -62.5 -49.5t-212.5 -6.5h-75q-76 2 -191 0q-141 -2 -180 7.5t-41 52.5z" />
<glyph unicode="`" horiz-adv-x="391" d="M31.5 1438.5q-13.5 27.5 15.5 74.5q20 29 43 34t41.5 -4t46.5 -32q43 -35 117 -110q12 -12 43 -41t47 -45q23 -20 35 -32.5t24.5 -28t16.5 -26.5t4 -24.5t-6 -25.5q-8 -16 -19.5 -24.5t-25 -8.5t-24.5 2t-27.5 11t-27.5 16.5t-28.5 20.5t-25.5 17l-166 144 q-70 55 -83.5 82.5z" />
<glyph unicode="a" horiz-adv-x="1110" d="M111 197v14q0 180 202 285q57 31 134 56.5t140.5 49t104.5 47.5q59 37 59 91q0 8 -1 16q-8 57 -70 91t-154 34h-7q-149 0 -212 -84q28 -31 28 -65q-1 -14 -5 -28q-16 -50 -68 -61q-13 -3 -25 -3q-30 0 -55 20q-35 30 -35 83q2 119 113.5 188t261.5 73h12q252 0 334 -168 q20 -39 31.5 -85t12.5 -112t1 -106.5t-5 -131t-7 -125.5v-12q0 -25 -1 -38t0 -36.5t5 -37t10.5 -28.5t17.5 -22.5t28 -7.5q47 0 59 62q0 4 9 4t19.5 -5t18.5 -16q13 -21 13 -45q0 -22 -10 -47q-22 -53 -79 -74q-23 -10 -55 -10q-13 0 -28 2q-50 6 -85 37t-48 88q-6 27 -6 62 q0 37 7 81q-49 -127 -143 -200.5t-227 -75.5h-12q-68 1 -126 21q-62 22 -106.5 78.5t-50.5 140.5zM266 215q6 -67 52 -99q44 -30 108 -30h8q176 6 295 225q43 87 43 261v30q-18 -47 -82.5 -81t-162 -67.5t-144.5 -60.5q-117 -71 -117 -168v-10z" />
<glyph unicode="b" horiz-adv-x="1132" d="M37 80q2 20 11 32.5t31.5 18.5t37 8t48.5 3t44 1q22 100 22 317v19q0 35 1 215v104q0 88 -1 111q0 88 2 265q0 199 -2 239q-16 -2 -41.5 -6t-44 -8t-39 -4t-33 5t-21.5 20.5t-9 41.5q0 14 6 24.5t20.5 18.5t29 14.5t37 11.5t41 8t47 8t44.5 7q25 6 43 6q59 0 60 -55 q0 -117 -1 -264t-1 -223t-3.5 -151.5t-11.5 -118.5q47 115 133 179t205 66h17q163 -1 249 -147q81 -138 82 -349q0 -26 -2 -53q-12 -338 -213 -446q-74 -41 -170 -44h-12q-90 0 -175 44q-91 47 -134 141v-20q0 -92 -35 -111q-16 -10 -64 -10q-21 0 -47 2h-12q-31 0 -45 1 t-36.5 6t-33 12.5t-17.5 22.5t-7 38zM367 287q31 -89 109 -141q73 -50 156 -49h10q89 3 153 63q84 80 98 266q3 35 3 67q0 142 -50 242q-58 115 -162 115q-111 0 -209 -105q-20 -20 -43.5 -59t-42 -81t-18.5 -64q0 -41 -2 -125t-2 -129z" />
<glyph unicode="c" horiz-adv-x="950" d="M96 520q12 217 125.5 347t306.5 130q109 0 197 -45t129 -131q18 -37 24 -79q1 -10 1 -21q-1 -29 -13 -57q-16 -36 -61 -48q-13 -3 -24 -3q-41 0 -65 39q-13 21 -13 42q0 28 24 56q-25 50 -81 78q-52 26 -113 26h-9q-121 0 -197.5 -93t-84.5 -261v-30q0 -220 112 -304 q68 -50 165 -51q16 0 33 2q118 10 177 80q6 8 24.5 33.5t35 37t38.5 6.5q39 -4 47 -42q3 -14 2 -27q0 -22 -8 -41q-20 -66 -79.5 -112t-131.5 -66q-65 -17 -130 -17q-5 1 -11 1q-70 2 -125 18q-161 45 -233 185q-64 123 -63 298q0 24 1 49z" />
<glyph unicode="d" horiz-adv-x="1124" d="M118 334q-8 61 -8 117q0 127 40 233q29 80 85 148.5t121 101.5q94 47 225 47q92 0 201 -23q4 30 4 117q0 43 -1 101q-2 104 -2 164q0 41 1 63q-10 0 -35.5 -4t-40 -6t-37 -3t-35.5 2t-27.5 10t-20.5 21.5t-6 36.5q0 41 24.5 54.5t89.5 17.5q29 4 82 19.5t72 15.5h9 q17 1 29 -5q15 -8 23.5 -22t13.5 -30.5t6 -40t1 -42t-1 -46t-1 -42.5q0 -63 -2 -197t-2 -212v-328q-1 -184 -1 -299t1 -160q27 -8 56 -8q14 0 29 2q13 2 24 2q29 0 53 -11q27 -13 27 -52q0 -7 -1 -15q0 -12 -3 -22t-9 -17.5t-12.5 -11.5t-17.5 -7t-20.5 -4t-23.5 -1h-25.5 t-30 1t-30.5 1q-10 0 -26.5 -2t-31 -4t-28.5 -2t-25.5 4t-19.5 12q-10 14 -13 64q-2 25 -2 61.5t2 84.5q3 95 3 108q-23 -70 -61 -142.5t-104.5 -139.5t-135.5 -79q-26 -4 -52 -4q-46 -1 -90 11q-70 18 -114 65q-100 101 -126 297zM250 455q-1 -13 0 -26q0 -85 22 -157 q26 -82 76 -125q37 -33 85 -39q11 -1 21 -2q36 0 66 17q59 35 125 145q119 190 135 328q2 18 2 49q0 24 -1 55.5t-1 55.5q0 32 2 51q-110 34 -198 34t-156 -34q-76 -39 -123 -134t-55 -218z" />
<glyph unicode="e" horiz-adv-x="991" d="M126 607q30 161 120 261q82 92 220 118q44 8 86 9q91 0 177 -39q158 -78 197 -311q9 -57 8 -98q0 -67 -23 -88q-24 -24 -215 -24q-28 0 -61 1q-138 3 -228.5 3t-134.5 -3q-1 -12 0 -23q0 -53 14 -103q18 -60 53.5 -107t82.5 -76q57 -34 136 -34q24 -1 52 3q112 14 176 86 q47 39 80 39q25 0 43 -22q15 -19 15 -41q0 -35 -39 -78q-63 -76 -178 -108q-70 -19 -142 -19q-47 1 -95 9q-122 20 -202 91q-96 85 -134 239q-21 86 -21 174q0 70 13 141zM272 553q60 3 153 3q47 0 102 -1t102 -1q93 0 153 3v16q0 117 -56 198q-60 87 -163 93q-10 1 -20 1 q-111 0 -179 -81q-74 -88 -92 -231z" />
<glyph unicode="f" horiz-adv-x="788" d="M86 881v10q0 16 5 27q7 14 16.5 21t30 11t36.5 5t46 2t48 1q-3 56 -3 109q0 45 2 87q5 95 19.5 170t56.5 132t112 84q53 22 107 22q16 0 32 -2q70 -8 126 -37.5t92 -84.5q32 -50 32 -110v-13q0 -72 -50 -105q-29 -18 -56 -18q-22 0 -44 12q-27 14 -36 43t4.5 59.5 t50.5 45.5q-20 31 -49 48t-57.5 21t-54.5 1t-46 -15q-49 -25 -73.5 -98.5t-24.5 -161.5t4 -186q207 -2 263 -29q46 -22 46 -62q0 -9 -2 -18q-8 -29 -61 -36q-29 -4 -68 -4q-33 0 -74 3q-88 6 -104 6q0 -100 2 -325.5t2 -356.5h26q47 2 88 3h3q39 0 61 -22q15 -15 15 -43 q0 -13 -3 -28q-6 -18 -24.5 -30.5t-45 -16.5t-58.5 -5t-63.5 0t-62.5 -1q-16 0 -42.5 -2t-43 -3t-40 -1t-38 1t-32 3t-27.5 8t-20.5 14.5t-14.5 20.5t-4 26q0 35 14.5 51.5t39 17.5t57 1t69.5 2q5 95 5 303q0 157 -3 377q-35 4 -67.5 4h-59t-43 14.5t-16.5 47.5z" />
<glyph unicode="g" horiz-adv-x="1085" d="M113 -283q-1 13 -1 25q0 80 56 154q65 84 172 120q-57 0 -102 13.5t-73 38t-34 57.5q-3 17 -3 33q0 50 32 95q43 60 133 97q-76 43 -114 129q-29 67 -29 146q0 23 2 47q18 162 143 249q107 74 265 74q27 0 56 -2q18 57 45 109.5t78.5 106t110.5 65.5q23 5 44 5 q47 0 85 -25q51 -33 51 -92v-9q0 -37 -28 -65q-22 -22 -50 -22q-9 0 -20 3q-27 6 -44.5 29.5t-17.5 52.5q-82 -31 -131 -184q231 -84 242 -336v-18q0 -80 -31 -147q-35 -75 -107.5 -126t-172.5 -66q-50 -7 -99 -7q-80 0 -157 18q-55 -20 -98 -53q-36 -28 -36 -58q0 -5 1 -10 q6 -25 46 -35t152.5 -17.5t167.5 -13.5q70 -10 130.5 -30.5t118.5 -55.5t93 -93q37 -61 37 -139q0 -148 -129 -231q-131 -84 -344 -86q-84 0 -157.5 14.5t-135 44t-101.5 80t-46 115.5zM264 -260q8 -72 95 -108q82 -33 192 -33h12q133 2 221 50q86 47 86 130q0 51 -38 92 q-35 39 -87.5 58.5t-112.5 32.5q-51 11 -92 11h-12q-46 -2 -71 -6q-84 -27 -143 -91q-51 -55 -51 -115q0 -11 1 -21zM314 692q-9 -31 -9 -62q0 -44 17 -89q53 -143 235 -144q94 0 165 36t93 110q15 43 15 83q0 32 -9 62q-16 88 -86 135t-160 47q-121 -4 -184 -57 q-57 -47 -77 -121z" />
<glyph unicode="h" horiz-adv-x="1226" d="M48 1488q5 17 23.5 28.5t37 16.5t53.5 11q45 6 119 33q20 7 36 7q15 0 27 -6q24 -13 30.5 -46t9.5 -73q2 -24 2 -48q0 -16 -1 -31q-2 -29 -2 -41v-63q0 -446 -27 -569q44 123 178 217q104 73 212 73q31 0 63 -6q59 -12 100 -45t63.5 -88t35 -112.5t15.5 -140.5 q2 -62 2 -115v-34q-1 -66 -3 -160.5t-2 -156.5q24 -5 48 -5q15 0 29.5 2t27.5 2q21 0 39 -5q28 -8 30 -43v-10q0 -34 -12 -52q-14 -20 -64 -24q-98 -8 -194 -10q-34 -3 -67 -3h-16q-40 1 -72 7t-49.5 25.5t-14.5 52.5q1 37 29 49q21 9 47 9q9 0 18 -1q15 -2 30 -2q22 0 45 4 q9 281 9 373v16q-2 137 -27 223.5t-90 98.5q-15 3 -31 3q-78 0 -170 -67q-63 -45 -117.5 -129t-66.5 -157q-4 -32 -4 -89q0 -38 2 -87t2 -88q0 -59 -4 -95h85q42 1 68 -23q20 -18 21 -50q0 -10 -2 -21q-6 -20 -24.5 -32.5t-48.5 -15.5t-56.5 -3t-63.5 3t-51 3h-29h-44 t-39.5 1t-38 3t-32 5t-27.5 8t-19 13.5t-14.5 18.5t-4.5 23q0 27 9.5 43t31 21t39 6t50 -1t46.5 0l5 314q-1 98 -1 201t1 210q0 74 3 198t3 200q0 94 -2 155q-12 0 -34 -5t-40 -9t-40 -5t-37 1t-27.5 13t-14.5 30q-3 16 -3 28q0 10 2 18z" />
<glyph unicode="i" horiz-adv-x="626" d="M82 891q2 29 20.5 44t38 19t58.5 6.5t57 6.5q6 0 24.5 4t26.5 5t23.5 2t23.5 -1t18.5 -8t16.5 -19q8 -14 10 -35.5t0 -48t-2 -39.5q7 -103 9 -211q2 -77 1 -183v-89q-1 -164 -1 -205q14 0 41.5 1t42 2t35 -2t29.5 -11q9 -9 15 -25q5 -12 5 -30q0 -6 -1 -13 q-2 -20 -20 -34.5t-56 -19.5t-66 -7t-79 -2h-22h-41q-29 -1 -55 -1h-25q-37 1 -63.5 6t-42 20.5t-17.5 39.5q0 25 7 40.5t27.5 21.5t37 7t51.5 2t53 3q6 104 6 210t-3 260.5t-3 215.5q-14 -2 -41.5 -3t-43 -2t-37 2t-33 10.5t-19.5 22.5q-6 12 -6 29v9zM193 1331 q31 52 94 58q9 1 18 1q49 0 83 -39q33 -38 33 -85q0 -10 -1 -20q-8 -58 -68 -81q-39 -15 -70 -15q-56 0 -87 50q-20 34 -20 67q0 32 18 64z" />
<glyph unicode="j" horiz-adv-x="587" d="M-42 -341q-3 18 -3 35q0 56 33 89q40 34 77 34h3q38 -1 63 -32q18 -25 18 -50q0 -10 -3 -19q-9 -35 -42 -54q4 -49 52 -57q10 -2 18 -2q36 0 59 28q53 61 54 271q-2 145 -2 437v478q-20 0 -47 -4t-47.5 -9t-41 -7t-35 4t-23.5 26.5t-9 53.5q0 39 39 54t108.5 24.5 t102.5 21.5q23 8 40 4t26.5 -16.5t16.5 -29.5t8 -38.5t2 -42t-1 -39.5v-24v-623q0 -41 2 -130t2 -136v-23q0 -260 -86 -346q-55 -57 -152 -62h-16q-87 0 -149 54q-55 49 -67 130zM215 1311q33 51 96 59q7 1 13 1q51 0 86 -41q35 -39 35 -87q0 -8 -1 -17q-8 -59 -67 -81 q-38 -15 -69 -15q-57 0 -89 52q-21 33 -21 67q0 31 17 62z" />
<glyph unicode="k" horiz-adv-x="1222" d="M51 61q2 25 11.5 39.5t31 21.5t37.5 8t51 2t56 3q-2 207 -2 791q0 49 3 148.5t3 144.5v178q-16 0 -49 -6.5t-55.5 -7.5t-46 3.5t-33.5 22.5q-7 11 -7 30q0 10 2 23q2 31 45 50.5t115 34t74 16.5q16 4 29.5 4t23.5 -3t17.5 -11.5t11.5 -16.5t7 -21.5t5 -23.5t2 -25.5 v-25.5v-25.5v-21.5q0 -47 -1 -104.5t-3 -128t-2 -116.5q-2 -96 -2 -222.5t2 -282.5q100 72 160 118l125 93q10 8 32.5 25.5t32.5 25.5t28.5 19t33 18.5t30.5 9.5h-14q-45 0 -65.5 1t-45 5t-33 15.5t-8.5 29.5q0 16 5.5 27.5t14.5 18.5t22.5 11.5t30.5 5.5t36.5 2t41 0 t44.5 -1q12 1 43 1h35q60 -1 82 -1q2 2 8 2q25 2 38 2t36.5 -1t36 -6.5t23.5 -17.5t13 -31q2 -29 -6 -45t-29.5 -22t-43 -7t-58.5 -1t-61 -5q-20 -16 -65.5 -52t-59.5 -46q-18 -16 -78 -63t-78 -64q63 -80 189 -232.5t192 -238.5q8 0 38 3t50.5 1t38.5 -14t26 -42 q2 -8 2 -16q0 -21 -16 -41q-18 -23 -62 -23q-7 0 -14 1q-13 1 -29 1q-37 0 -85 -4q-68 -5 -119 -5q-45 0 -68.5 1t-48 8t-35 22.5t-10.5 42.5q0 16 10.5 26t34 15.5t42 6.5t53 2t49.5 1q-10 4 -29 18.5t-43.5 41t-49 55t-58 69.5t-59.5 73t-62.5 79t-57.5 71 q-25 -16 -85 -69t-97 -76q-1 -30 -1 -91.5t1 -156.5q27 -6 74 -6t68.5 -9t29.5 -42q6 -35 -4 -55.5t-35 -25.5t-50.5 -4t-62 5t-59.5 2q-10 0 -61.5 -4t-82 -4t-70.5 3t-60 21q-18 16 -17 40v5z" />
<glyph unicode="l" horiz-adv-x="602" d="M39 1450q0 37 39 56.5t101.5 32t80.5 20.5t34 11q7 1 12 1q8 0 14 -2q12 -4 20 -9.5t12 -18.5t8.5 -22.5t5.5 -26.5t2 -28.5t1 -29v-25.5q8 -180 10 -390t2 -493.5v-386.5q12 -2 42 -2t43 -1t34.5 -5t32 -12t18.5 -23.5t8 -38.5q0 -27 -17.5 -43t-51 -20t-65.5 -4t-77 3 t-67 3q-53 0 -82 2t-63 8t-50 22.5t-18 43.5q-2 23 5 37t17 21t30.5 10t35 3t41 -2t36.5 -2q7 256 7 532q0 346 -11 726q-6 0 -16 -2q-39 -8 -60.5 -11.5t-52 -1.5t-45 18.5t-16.5 49.5z" />
<glyph unicode="m" horiz-adv-x="1822" d="M82 909q2 33 25.5 44t91.5 24q12 2 31.5 7t34 9t30.5 7q17 4 29 5h7q9 1 17 -1q12 -2 21.5 -9.5t15.5 -19.5q15 -24 15 -74q0 -15 -1 -33q-4 -86 -14 -168q27 76 82 144.5t138 110.5q73 37 149 37q11 0 22 -1q90 -8 146 -85q55 -74 55 -193v-8q49 111 139 198 q98 91 219 91q20 0 41 -3q80 -10 132.5 -57t71.5 -116q18 -70 26 -158q4 -52 5 -106q0 -36 -2 -72q-5 -91 -5 -180t4 -163q16 -4 37.5 -5t39 0t36 -1t30.5 -7t20.5 -16.5t8.5 -31.5q1 -5 1 -10q0 -10 -3 -20q-4 -14 -12.5 -22t-16.5 -15t-25.5 -10t-29 -4t-33 -1h-33.5 t-36.5 2t-35.5 2q-18 0 -86 -7q-34 -4 -61.5 -3.5t-47.5 3.5q-40 7 -48 42q-10 35 13.5 58.5t58 31.5t79.5 8q-5 62 -5 140v26q1 94 6 178q2 35 2 69q0 48 -4 96q-7 81 -27 128q-23 44 -67 62q-27 11 -58 11q-20 0 -43 -5q-76 -18 -161 -126t-97 -192q-6 -44 -6 -137v-49 q1 -66 1 -115.5t-1 -83.5q20 -4 40 -4q18 0 38 3q11 2 21 2q27 0 49 -14q26 -16 26 -57v-12q-2 -23 -16.5 -36t-41 -17t-50 -4t-60.5 2t-56 2q-10 0 -76 -6q-33 -3 -59.5 -3t-46.5 3q-39 6 -53 29t-13 50t13 46q12 12 32.5 15t56.5 0t52 -3q-3 35 -3 89t3 126q3 79 3 150 q0 58 -2 110q-5 114 -36 170q-27 52 -73 64q-19 5 -39 5l-55 -11q-46 -18 -91 -54q-61 -49 -108 -125.5t-56 -132.5q-6 -30 -6 -94q1 -42 3 -98q3 -69 3 -117q0 -53 -4 -82q23 -6 47 -6q14 0 28 2q13 2 26 2q22 0 42 -7q30 -11 33 -52q0 -18 -11 -32.5t-33.5 -22t-46 -12.5 t-60.5 -5h-62.5t-65.5 1t-56 1q-37 0 -52.5 1t-39 5t-33 12.5t-16.5 22.5t-5 37q0 12 3 20t9.5 14.5t12.5 10.5t18.5 7t19.5 4t23.5 2t24.5 0t26.5 -1h26.5q4 103 5 237q0 67 0.5 127.5t-0.5 114.5v74q0 76 1 162q-20 0 -59 -7t-63 -11q-22 -4 -42 14q-18 16 -18 55v8z" />
<glyph unicode="n" horiz-adv-x="1226" d="M80 897q2 39 26.5 52.5t86.5 23.5q20 2 64 14t58 12h8q25 0 39 -11q18 -13 21.5 -47t2.5 -63.5t-5 -85t-4 -87.5q41 96 106 165q98 109 226 123q22 2 42 3q154 0 228 -136q41 -76 47 -198q2 -46 2 -98q0 -86 -6 -187q-7 -116 -7 -192q0 -30 1 -54q31 -4 60.5 -5t53.5 -2 q24 0 36 -18q8 -11 8 -32q0 -11 -3 -25q0 -12 -7 -22.5t-21.5 -15.5t-27.5 -9t-36.5 -4h-41t-47 1t-48.5 1q-12 -2 -37.5 -2h-38h-35t-34 2t-28.5 4t-26.5 6t-19.5 10.5t-15.5 14.5t-7.5 18q-2 23 1.5 38t13.5 23.5t23.5 12.5t29.5 4t34.5 -1t36 -2t33.5 1q0 225 11 358 q5 46 5 89q0 26 -2 52q-5 68 -20 120q-16 52 -57 80q-32 21 -77 22q-13 0 -27 -2q-92 -12 -190.5 -125t-111.5 -211q-6 -37 -6 -100q1 -42 3 -94q4 -75 4 -126q0 -40 -3 -67q14 -2 48 0t60 1t42 -9q14 -8 19 -31t-2 -46.5t-21 -33.5q-18 -14 -54 -14q-35 0 -89 5 q-38 4 -65 4q-11 0 -20 -1q-25 0 -59.5 -3t-52 -4t-41 -1t-35.5 3t-23.5 9t-15.5 17.5t-4 27.5q0 31 17.5 47.5t36 19.5t57.5 6t55 5q4 26 4 84q0 39 -2 93q-3 89 -3 148q0 29 1 50q7 133 7 228q0 64 -3 112q-6 0 -32.5 -6.5t-37 -7.5t-33 -3t-32.5 2t-22.5 11.5t-16.5 23 t-4 35.5z" />
<glyph unicode="o" horiz-adv-x="1058" d="M138 621q38 172 153 270q45 41 89 63.5t95 33.5t119 11q182 0 294.5 -137t119.5 -352v-28q0 -240 -130 -388q-119 -135 -318 -134q-31 0 -64 3q-129 12 -223.5 102.5t-127.5 217.5q-24 90 -24 182q0 77 17 156zM268 432q4 -88 39 -161.5t96.5 -119t135.5 -47.5h6 q139 0 224 96q87 98 91 281q1 11 1 23q0 122 -60 221q-43 71 -109 105q-52 27 -114 26q-18 0 -37 -2q-78 -10 -142.5 -67.5t-99.5 -150.5q-31 -83 -31 -181v-23z" />
<glyph unicode="p" horiz-adv-x="1163" d="M55 872q-2 14 -2 25q0 14 3 23q5 18 21.5 25t33 9t44 3t44.5 6q12 2 43.5 10t46 10t35 -4t32.5 -25q17 -30 17 -107v-24q-4 -90 -13 -168q27 76 70 143.5t104.5 121t129.5 71.5q44 10 84 10q39 0 74 -9q71 -19 116 -70q86 -94 118 -260q15 -80 15 -161q0 -85 -17 -171 q-34 -166 -124 -260q-76 -82 -193 -101q-35 -7 -72 -7q-63 0 -133 20q-110 30 -157 104q6 -43 9 -124q2 -61 2 -135v-51v-65q0 -57 1 -90q18 0 44 1t40 1t32.5 -1t29 -4t20.5 -10t14 -18.5t6 -27.5q0 -23 -7 -37t-15 -21.5t-28.5 -11.5t-32 -4h-39.5q-23 0 -50.5 -3 t-54.5 -5t-41 -4h-22q-35 -2 -53 -3q-10 -1 -22 -1t-26 1q-30 1 -45.5 5t-33 10t-25.5 19.5t-10 29.5q-2 27 6 42t28.5 22.5t39 8.5t50 2t50.5 3v85v97q0 72 1 453v218q0 183 -1 222v137q-14 -2 -48 -8t-50.5 -6t-38 2t-34 16.5t-16.5 40.5zM389 272q10 -61 60.5 -103 t114.5 -55q34 -6 70 -6q30 0 62 4q68 11 111 46q51 41 83 129t35 187v26q0 85 -17 164q-19 90 -76 144q-47 46 -112 46q-12 0 -24 -2q-70 -10 -139 -80q-47 -47 -96 -135t-68 -160q-11 -56 -11 -113q0 -45 7 -92z" />
<glyph unicode="q" horiz-adv-x="1073" d="M180 233q-30 103 -30 212q0 112 32 231q33 119 118 208t202 107q36 5 70 5q43 0 82 -8q69 -15 120 -53t82 -95v13q0 75 22 105q11 15 33 15q21 0 52 -15q27 -10 34 -44q4 -17 4 -35q0 -16 -3 -33q-7 -35 -15 -87t-8 -83q-1 -21 -1 -46v-27q1 -42 1 -73.5t1 -71.5t1 -67 q0 -57 -5 -175t-5 -173q-1 -19 -1 -48q0 -57 3 -153q2 -73 2 -128t-2 -93h30q25 0 49.5 1t45 -3t35 -12t20.5 -25q3 -9 3 -19.5t-3 -23.5q-6 -27 -27.5 -39t-42 -13t-58.5 0t-56 -1q-10 0 -33 -2q-41 -4 -63.5 -5t-60.5 -2h-15q-27 0 -45 3q-21 4 -44.5 12t-35 23.5 t-13.5 35.5q0 20 7.5 35t17.5 21t29.5 8t34 2t41 -1t42.5 -1q2 36 2 128q0 70 -1 171v67q0 176 14 216q-53 -109 -148 -173q-83 -56 -188 -56q-13 0 -27 1q-109 8 -188.5 81t-110.5 183zM297 451q0 -150 55.5 -240t147.5 -98q10 -1 19 -1q92 0 177 68q95 76 125 189 q12 41 13 155q1 11 1 22q0 95 -12 134q-25 82 -105 134q-62 41 -136 41q-20 0 -41 -3q-109 -16 -175.5 -121.5t-68.5 -279.5z" />
<glyph unicode="r" horiz-adv-x="958" d="M84 879q-2 39 27.5 54t91 25.5t92.5 24.5q18 6 32.5 8t24.5 -2t17.5 -12t11.5 -19.5t7 -24.5t4 -29.5t1 -33v-34.5q0 -84 -12 -197q41 150 136 255q92 101 203 101h9q90 -2 138 -62.5t55 -141.5q1 -13 1 -26q1 -52 -19 -93q-24 -51 -77 -60q-13 -3 -26 -3q-23 1 -45 13 q-32 20 -37 56q-1 7 -1 14q0 26 12 48q15 28 52 38q-4 36 -30 54q-20 14 -47 13q-8 0 -17 -1q-86 -8 -174 -138.5t-113 -271.5q-2 -33 -2 -77q0 -33 1 -72q2 -55 2 -100q0 -30 -1 -54q29 -2 63 -1t62.5 3t47 -14.5t16.5 -55.5q-3 -69 -170 -69q-38 0 -84 4q-28 2 -60 0 q-16 -1 -32 -1t-32 1q-32 2 -57.5 7t-42 20.5t-16.5 40.5q-2 14 0 23t6 16.5t10.5 13.5t13.5 9t18.5 5t20.5 2h22.5h23.5h25.5h25.5q0 104 -1 345v145q0 130 1 200q-14 0 -39.5 -3t-40 -4t-36 0t-33 7t-20.5 19.5t-9 34.5z" />
<glyph unicode="s" horiz-adv-x="958" d="M98 733q0 115 88 186.5t226 71.5q203 -4 293 -160q-9 48 -9 81q0 83 54 83q18 0 31.5 -6t19.5 -17t9 -26.5t3 -34v-40v-44.5q0 -12 1 -32.5t1 -31.5v-28.5t-3 -26t-7 -19.5t-11.5 -15t-18.5 -7t-25 -3q-16 0 -44 31.5t-56.5 67.5t-87 66.5t-128.5 32.5h-8q-73 0 -122 -34 q-50 -35 -50 -89q0 -21 5 -35t16.5 -27t22.5 -23.5t31.5 -20.5t35 -17.5t42 -17.5t44 -16.5t49 -16.5t49.5 -16q147 -53 227 -124t80 -196t-86 -197q-82 -69 -205 -69h-14q-225 4 -334 172q4 -33 5 -52.5t-0.5 -46t-16.5 -39.5t-41 -15q-27 -2 -41 16t-17.5 49t-3.5 94 q0 16 -1 43t-1 42.5t1 37t5.5 33.5t10.5 24.5t17 17.5t28 5q16 0 27.5 -14.5t31 -49t45.5 -63.5q119 -131 266 -131q78 0 126 39q45 37 44 98v8q0 68 -56 107t-177 80q-51 18 -69.5 24.5t-63.5 24.5t-64.5 29.5t-54.5 31t-50 39t-33.5 45t-26 55t-9.5 66.5z" />
<glyph unicode="t" horiz-adv-x="768" d="M20 885q0 27 12.5 44t41 23t52.5 7q12 1 28 1t36 -1q40 -2 60 -1q2 23 2 46q0 17 -1 34q-2 29 -2 57v19q1 37 5 65.5t19 46t42 21.5q7 1 12 1q21 0 35 -12q16 -15 21.5 -48t6.5 -65.5t1 -82t4 -79.5q23 0 78 1t82 1q104 -2 135 -13.5t35 -56.5q0 -49 -37 -63 q-29 -11 -95 -12q-18 0 -40 1q-114 5 -150 5q-12 0 -16 -1q0 -49 2 -157.5t2 -165.5q0 -45 -4 -131q-3 -69 -3 -116v-21q1 -52 11 -82q15 -48 63 -54q6 -1 13 -1q39 0 66 36q20 25 37.5 68t34 60t46.5 7q43 -12 49 -62l2 -16q0 -44 -30 -98q-25 -51 -70 -84t-96 -41 q-26 -5 -51 -5q-69 0 -127 37q-78 50 -88 157q-4 80 -4 118.5t3 118.5t3 115v313q-28 2 -54 2t-50 -2q-11 -1 -21 -1q-35 0 -63 12q-34 14 -38 55z" />
<glyph unicode="u" horiz-adv-x="1222" d="M63.5 922.5q12.5 13.5 40 23.5t47 16.5t61.5 14.5t56 12q11 3 21 3q45 0 68 -52q25 -55 25 -136q0 -12 -1 -24q-2 -57 -9 -138t-7 -97q-5 -66 -4 -149q-1 -20 -1 -42q2 -110 21 -153q23 -53 72 -77q27 -13 60 -13q26 0 54 8q104 27 226 217q43 61 49 104q12 80 12 224 q0 23 -2 84t-2 92q-12 -2 -43 -7.5t-45 -6.5t-33.5 1t-29 14.5t-11.5 35.5t3 38t11.5 24t28 16.5t31.5 9.5t43 8q18 2 47 8t46 10q14 3 28 3h8q18 -1 31 -9q6 -4 10 -12t7 -22.5t5 -26t2.5 -32t1 -31.5t0.5 -33.5v-30.5q2 -178 2 -342q0 -35 -2 -104.5t-1.5 -119t0.5 -96.5 q20 -2 58.5 1t61.5 3q23 -1 41 -17q16 -15 16 -43v-7q-3 -48 -73 -68q-56 -16 -112 -16q-16 0 -30 1q-72 5 -86 19q-14 18 -14 81t14 173q-16 -35 -37.5 -68.5t-54.5 -73.5t-68.5 -71t-84 -53.5t-95.5 -28.5q-17 -1 -33 -1q-49 0 -92 14q-57 18 -97 55t-60 90 q-27 61 -31 163q-1 34 -1 66q0 66 5 129q2 33 8 129.5t6 114.5t-2 104q-58 -17 -97 -17q-81 0 -81 72q0 23 12.5 36.5z" />
<glyph unicode="v" horiz-adv-x="1083" d="M-11 881q0 30 14 55t42 25h4q102 -5 192 -5h29t36 1t35 1t31.5 -1t29 -3t22.5 -7t18.5 -13t9.5 -20.5t3 -28.5q0 -25 -9.5 -38t-30 -18.5t-34.5 -6.5t-45 0t-43 1q8 -8 15 -19t16.5 -31.5t17.5 -40t21.5 -57.5t23.5 -71t31.5 -93t38.5 -110q4 -14 23.5 -67t29.5 -85 t22.5 -79t14.5 -80q14 84 94 301q16 45 38.5 105.5t35 93.5t29 75t25.5 64.5t19.5 46t18.5 35.5t14 18q-21 -2 -39 -2q-114 0 -114 75v1q0 47 90 55q36 3 83 4q72 0 171 -8q74 -2 91 -30q8 -14 8 -33t-9 -43q-4 -10 -13.5 -15.5t-27 -8.5t-30.5 -4t-38.5 -1h-38.5 q-86 -248 -286 -760q-14 -39 -42 -67.5t-65 -32.5q-7 -1 -14 -1q-17 0 -33 7q-22 10 -38.5 28.5t-33 45.5t-25.5 48.5t-20 47.5l-241 682q-25 2 -48.5 1t-42 -3t-36 2t-25.5 14q-15 15 -15 50z" />
<glyph unicode="w" horiz-adv-x="1683" d="M-12 899q0 45 49 55.5t182 10.5q33 -2 51 -2q4 0 11 2q47 0 69.5 -1t51 -5.5t41 -14.5t16.5 -29q6 -35 -10.5 -56t-44 -27.5t-59.5 -8.5t-56 4q18 -27 38.5 -83t73.5 -232q18 -59 29 -94q76 -250 88 -320q12 82 80 293l115 348q35 113 67 152q23 28 61 28q15 0 33 -4 q37 -8 62 -47t53 -127q80 -233 113 -338q4 -12 17.5 -54t21.5 -71.5t19 -68.5t18.5 -73t9.5 -60q6 82 82 332q10 37 23.5 84t20.5 71.5t17 57t15.5 50t12.5 40t11 34t9 25.5t9.5 23.5t9.5 18.5t9 17q-20 -2 -38 -2q-47 -1 -83 11q-51 16 -51 62q0 41 33 51q35 12 127 12 q66 2 117.5 2t89.5 -2q33 0 51 -12.5t22 -27t4 -34.5q0 -25 -7 -39t-19.5 -19.5t-30.5 -7.5t-40.5 -1t-47.5 -1q-88 -322 -197 -682q-14 -51 -32.5 -90t-52.5 -67q-29 -25 -64 -25h-10q-90 12 -134 158q-25 76 -78 238.5t-80.5 257t-37.5 159.5q-8 -63 -29.5 -141t-75 -239 t-84.5 -263q-23 -72 -57.5 -116t-77.5 -50q-9 -1 -18 -1q-48 0 -75 37q-32 44 -62 142l-213 684q-20 -1 -38 -1q-130 0 -130 77z" />
<glyph unicode="x" horiz-adv-x="1161" d="M23 74q4 14 5 22t13 14.5t20.5 9.5t26.5 5t31.5 3t35 3t35.5 2q12 16 91 121q33 41 70.5 87t67.5 83t58 74l-129 157l-129 172q-29 4 -53.5 2t-46 0t-36.5 7.5t-23.5 23t-4.5 45.5q1 45 63 53q30 4 66 5q38 0 84 -5q33 -2 61.5 -2h52.5t43 -1t34.5 -5t26 -11t15.5 -19.5 t5 -30.5q0 -16 -7 -25.5t-23.5 -14.5t-29 -8t-39 -5t-36.5 -2q12 -6 25.5 -21.5t37 -47.5t35.5 -48l111 -139l106 131q14 16 39 46.5t42 51t30 33.5q-10 2 -26.5 3t-25 1t-22.5 2t-18.5 4t-14.5 6t-10 10t-5 15.5t1 19.5q2 16 8 27.5t19.5 18.5t26.5 10.5t38 4.5h23h21 q19 -1 55 -2.5t63 -1.5q12 0 32.5 1.5t31 1.5t26.5 -1.5t23.5 -2.5t20.5 -3t17 -7t13.5 -11t8.5 -14.5t3 -19.5t-2 -25q-2 -18 -16.5 -27.5t-31 -10.5t-49 -2t-53.5 -3q-33 -45 -153 -193q-14 -18 -35 -42t-46.5 -54.5t-39.5 -46.5l129 -156l172 -213q13 0 65 1h14 q40 0 52 -5q23 -6 32 -36q4 -12 4 -24q0 -19 -8 -35q-14 -28 -46 -30q-45 0 -149.5 -4t-119.5 -4q-22 -1 -41 -1q-46 0 -68 7q-30 10 -30 47t24.5 48t118.5 26q-29 20 -143 162q-86 106 -108 137q-33 -49 -103 -137q-98 -123 -129 -154h41t42 -1t32.5 -5t26 -15.5t6.5 -31.5 q0 -25 -13.5 -39.5t-36 -19.5t-54.5 -7q-21 -1 -45 -1h-24h-25q-26 0 -54 -1q-23 0 -62 -3t-58.5 -3t-43 3t-35.5 13.5t-16 26.5q-5 12 -5 22q0 5 1 9z" />
<glyph unicode="y" horiz-adv-x="1101" d="M-7 886q1 15 3 32q6 20 25.5 31.5t52 14.5t62.5 3t75 -3t68 -3h22h54.5t43 -3.5t36.5 -10.5t19.5 -21.5t8.5 -34.5q2 -29 -14.5 -44.5t-37 -17.5t-57.5 -3t-51 -3q6 -10 17.5 -33.5t25.5 -60.5t27.5 -70.5t33 -86t31.5 -87.5q123 -315 131 -415q2 94 113 393 q113 295 145 360q-29 -2 -53 -1t-51 6.5t-40 16.5t-21.5 30.5t6.5 50.5q6 12 27.5 19t52 9t67.5 3h24q25 0 48 -1h31h22h40t34.5 -1t32 -3t25.5 -5t21.5 -8t14.5 -13t11 -18.5t3 -22.5q-2 -25 -10 -40.5t-23.5 -21.5t-35 -8t-42 -1t-44.5 1l-357 -934q-4 -8 -10 -24 q-33 -86 -52.5 -133.5t-56 -111t-75.5 -93.5q-33 -29 -80 -40q-27 -6 -53 -6q-19 0 -38 3q-44 8 -82 30.5t-57 66.5q-12 29 -12 62q0 18 4 37q2 37 29 64.5t66 27.5q5 1 10 1q34 0 55 -23q18 -21 18 -48q0 -7 -2 -14q-6 -36 -43 -55q27 -21 53 -21q13 0 26 6q38 15 63 66 q68 133 106 332q-139 332 -321 811h-24.5t-26 -1t-24.5 0t-24.5 2t-21.5 5t-18.5 8.5t-13.5 12.5t-10 17q-2 7 -2 17v6z" />
<glyph unicode="z" horiz-adv-x="1030" d="M121 25q-8 16 -8 31.5t8 31.5q16 32 55 76q45 53 153.5 176t166.5 192q209 254 292 314q-61 -10 -253 -10q-33 0 -123 -1t-142 -1q-2 -23 -4 -58t-3 -57.5t-7 -44t-22.5 -31.5t-43.5 -8q-16 2 -28 9t-19.5 23.5t-10.5 31t-4 42t-1 44t2 53t2 53.5q0 33 15.5 49t52.5 18 h563q12 0 24 2q6 1 13 0.5t13 -0.5q13 -2 24.5 -2t23.5 -1t22.5 -3t20.5 -6t17.5 -8t13.5 -11t8 -16q2 -7 2 -15q0 -46 -70 -130l-253 -307q-207 -256 -326 -348q53 16 291 18q94 1 151 1t76 -1q3 23 3 70v25v11q0 57 10 87q10 34 42 36q23 0 39.5 -9t23.5 -18t12 -34t5 -37 t2 -45q1 -27 1 -51q0 -133 -29 -154q-10 -8 -40 -12t-56.5 -4t-65.5 1t-49 1q-172 1 -272 1t-128 -1q-41 -2 -76 -2q-26 0 -48 1q-52 3 -66 28z" />
<glyph unicode="{" horiz-adv-x="636" d="M16 651q-2 20 7.5 34.5t22.5 22t32.5 13.5t38 10t38 12.5t33.5 18.5q39 27 54.5 87t12.5 131t-2 157t11 166q18 104 87 188t173 88q78 2 78 -68q2 -37 -11 -51t-47 -22t-52 -21q-43 -25 -67 -76t-28 -110.5t-4 -131t2 -137t-9 -130t-38 -105.5q-25 -39 -74 -61.5 t-98 -18.5q35 -6 71 -24.5t62.5 -41t40.5 -44.5q39 -63 51 -154q6 -45 7.5 -96t-0.5 -84t-7.5 -98.5t-7.5 -92.5q-12 -180 68 -233q20 -14 57 -23.5t57.5 -23t22.5 -47.5q0 -33 -18.5 -50.5t-45 -18.5t-57.5 6t-59.5 19.5t-46.5 26.5q-111 74 -119 264q-2 33 0 69t6 81t6 74 q6 176 -13.5 261t-98.5 132q-14 10 -54.5 23.5t-61 31t-20.5 47.5z" />
<glyph unicode="|" horiz-adv-x="317" d="M84 -176q0 29 2 41q4 1030 4 1247v53v82v78q-2 45 -1 83t5 64.5t19.5 43t42.5 18.5q14 2 24 0t18.5 -7t13.5 -11.5t8 -17.5t5 -20.5t3 -25.5t1 -27.5v-32v-32.5q4 -315 4 -504.5t-4 -524.5t-4 -521q0 -113 4 -203q2 -16 2 -29.5t-2 -26t-5 -23.5t-9 -18.5t-15.5 -13.5 t-23.5 -6q-35 -8 -56.5 21.5t-27.5 81t-8 113t0 118.5z" />
<glyph unicode="}" horiz-adv-x="643" d="M35 1509q0 41 20.5 55.5t63.5 12.5q72 -2 129 -47t88 -104.5t43 -122.5q12 -70 12 -166.5t-3 -162t11.5 -128t53.5 -88.5q20 -16 67 -27.5t77 -28t30 -55.5q0 -23 -16.5 -41t-37 -26.5t-46 -17.5t-35.5 -15q-80 -49 -99.5 -134t-13.5 -257q0 -18 8 -100.5t6 -123.5 q-4 -90 -35.5 -159.5t-87.5 -104.5q-27 -18 -63.5 -31.5t-74.5 -19.5t-64.5 10.5t-26.5 57.5q0 35 22.5 49t60.5 22t56 23q82 53 70 237q-2 25 -6 76t-6 79t-3.5 69t0 74.5t7.5 68.5q16 121 65 180q53 61 160 86q-135 0 -184 94q-29 59 -34 167t1 201t-15.5 181t-82.5 125 q-14 8 -34 14.5t-33 9.5t-25.5 10t-18.5 20.5t-6 37.5z" />
<glyph unicode="~" horiz-adv-x="1081" d="M121 489q-45 57 37 142q49 51 97 80t124 37q55 4 114.5 -21t101.5 -57.5t90 -62t83 -32.5q20 0 37.5 2.5t32 8.5t29 16t26.5 22.5t29 30.5q2 4 9 13.5t12 14.5t12.5 13.5t14.5 13.5t15 8t17.5 3t19.5 -4q39 -16 43 -61.5t-33 -94.5q-111 -154 -284 -131q-59 8 -128 53 t-127.5 83t-103.5 32q-63 -6 -129 -78q-29 -29 -49.5 -44t-45 -14t-44.5 27z" />
<glyph unicode="&#xa1;" horiz-adv-x="430" d="M98.5 1461.5q-0.5 37.5 25.5 73.5t73 46q33 8 60.5 -3t43.5 -36.5t23.5 -55.5t2.5 -60.5t-22 -51.5q-37 -45 -101.5 -42t-92.5 59q-12 33 -12.5 70.5zM139 1004.5q2 54.5 15 101.5q6 47 23.5 59.5t55.5 -0.5q37 -14 45.5 -43.5t8.5 -105.5v-25v-708q0 -16 2 -63.5t1 -77 t-4 -66.5t-15.5 -55.5t-30.5 -20.5q-45 -4 -67.5 48t-25.5 126q-2 164 -2 571q0 27 -4 116t-2 143.5z" />
<glyph unicode="&#xa2;" horiz-adv-x="1046" d="M137 774q10 141 73.5 255t176.5 167q39 20 115 33q4 35 3 70.5t0 70.5t4 62.5t17.5 45t38.5 17.5q29 2 45.5 -13.5t22.5 -41t8 -60t1 -71.5t1 -74q80 -2 143 -43q74 -43 121 -119t35 -147q-8 -43 -41 -60.5t-72 -5.5q-37 14 -48 51t18 80q-51 100 -164 115v-674l4 -84 q111 18 160 94q6 8 19 34t24.5 36t29.5 10q47 -4 62.5 -37.5t-2.5 -74.5q-59 -166 -293 -201q-4 -23 -5 -57.5t-1 -61.5t-2 -54.5t-8.5 -46t-21.5 -29.5t-40 -11t-40 14t-21 44t-7 57.5t-1 72.5t-3 72q-47 6 -92 29q-137 51 -204.5 201.5t-55.5 334.5zM274 758 q-12 -156 47.5 -276t178.5 -132q-4 139 0 408.5t4 339.5q-59 -12 -108.5 -59.5t-81 -121t-40.5 -159.5z" />
<glyph unicode="&#xa3;" d="M121 178q10 74 67 121q35 33 90.5 40t105.5 -5t95 -35q25 96 20 197.5t-32 187.5q-31 0 -75 -2t-68.5 -3t-54 -1t-46 4t-32 12t-21.5 22.5t-6 35.5q0 43 29.5 54t87 5t141.5 2q-8 27 -28.5 74t-34 92t-19.5 94q-10 121 36 214t130 145.5t192 64.5q197 16 330 -82 q59 -41 104.5 -105.5t51.5 -131.5q12 -70 -10.5 -120t-75.5 -63q-78 -20 -113 43q-31 53 8 92q20 23 60 23q-29 119 -157 179.5t-249 13.5q-51 -16 -92 -58.5t-55 -91.5q-12 -37 -12.5 -78t9 -84t19.5 -73.5t27.5 -74.5t23.5 -63h193q10 0 29.5 1t28.5 1t26.5 -1t27 -2 t22.5 -4t20.5 -8t14.5 -12t10 -17.5t5 -22.5q0 -18 -4 -31.5t-14.5 -22t-20.5 -12.5t-29.5 -6t-30.5 -2h-34h-33h-172q70 -242 -4 -440q219 -109 361 -135q70 -14 122 4t70 69q10 31 9 59.5t-7 49t4 39t43 30.5q43 12 67.5 -17.5t26.5 -75.5t0 -91q-12 -90 -66 -142 t-131 -61.5t-156 1t-154 36.5q-100 37 -238 117q-43 -78 -115.5 -125t-165.5 -31q-78 12 -119.5 72.5t-31.5 134.5zM251 136q7 -32 41 -39t74.5 17.5t63.5 69.5q-61 31 -103 30t-62.5 -23.5t-13.5 -54.5z" />
<glyph unicode="&#xa4;" horiz-adv-x="1216" d="M47 205q0 16 12.5 36.5t26.5 35t37.5 38t34.5 33.5q2 2 10 11.5t19.5 20.5t19.5 21q-29 39 -60 111q-37 109 -32 221q2 94 36.5 183.5t81.5 142.5q-16 14 -44.5 46t-45.5 44q-4 4 -19 16.5t-23.5 20.5t-20.5 21.5t-18.5 26.5t-6.5 28q-4 27 20.5 52t61.5 23q12 0 21.5 -6 t15.5 -13t14.5 -17.5t14.5 -14.5l129 -129q106 78 280 81t277 -81q18 14 92 88l22.5 22.5t29.5 31t30.5 22.5t36.5 10q10 0 21.5 -5t20.5 -13t15 -18.5t8 -18.5q4 -20 -5 -43t-20.5 -35t-33 -30.5t-25.5 -22.5q-10 -8 -19 -18.5t-18.5 -19.5t-17.5 -18.5t-17.5 -19.5 t-17.5 -18q86 -106 88 -316.5t-86 -318.5q6 -8 11.5 -16.5t11.5 -14.5l13 -13l13.5 -13.5l14.5 -14.5l14 -14t29.5 -30t37 -40t15.5 -31q8 -27 -8.5 -52t-42.5 -34q-49 -12 -129 76q-76 84 -78 88q-51 -41 -132 -65.5t-165 -24.5q-180 -4 -289 82q-10 -12 -106 -106 q-6 -6 -19.5 -23.5t-27 -28t-27.5 -10.5q-20 -2 -38.5 8.5t-31 28.5t-12.5 37zM258 631q18 -102 88 -174t160 -88q102 -20 198.5 6t153.5 96q51 57 71.5 159.5t-1.5 209.5q-31 129 -119 196.5t-227 55.5q-111 -8 -193 -70q-70 -53 -109.5 -162.5t-21.5 -228.5z" />
<glyph unicode="&#xa5;" horiz-adv-x="1325" d="M8 1399q0 14 2 26.5t8.5 20.5t11.5 14t18 9.5t20.5 5.5t26 3t26.5 1t29.5 -1t29.5 -1q41 0 103.5 1t109.5 1t86 -4q41 -4 54.5 -18.5t15.5 -53.5q-2 -31 -25.5 -45.5t-51.5 -16.5t-71 -2t-63 -4q23 -29 90 -137q25 -41 77 -123t93 -149.5t80 -137.5q152 258 227 396 q59 111 90 151q-43 2 -83 2t-70.5 -1t-50 13.5t-21.5 47.5q-2 55 34 69.5t118 14.5h211h16h48t39 -2t34 -7.5t22.5 -12.5t17.5 -20.5t5 -29.5q0 -23 -8.5 -37t-16.5 -22.5t-28.5 -12.5t-34 -4t-43 -1t-43.5 -1q-57 -113 -252 -450q-33 -55 -78 -99q55 18 96 21q57 2 223 2 q61 0 66 -64q0 -59 -59 -59q-29 0 -166 -2t-213 -6q-10 0 -8 -90t0 -97q57 -4 268 0q125 0 149 -10q35 -16 29 -57q-4 -14 -10 -24.5t-19.5 -16.5t-26 -9t-36 -4t-38.5 -1h-45h-48h-219q-2 -33 -2 -111t-4 -113q57 -12 113.5 -5t95 -11.5t34.5 -73.5q-2 -14 -10 -24.5 t-27.5 -16.5t-38 -9t-51.5 -4t-56.5 -1t-65.5 1t-68 1q-23 0 -65 -1t-63.5 -1t-53 1t-49 6t-35 12.5t-24.5 20.5t-7 32q0 37 20.5 53t53 16t73.5 -1t80 1q4 18 3 111.5t-1 113.5q-23 2 -54.5 2.5t-60 -1t-65.5 -2.5t-61 -1h-37h-38.5t-33.5 1t-31.5 5.5t-24 12.5t-17.5 20.5 t-5 30.5q0 23 9.5 35t34 17t43 6t60.5 -1t60 -2q29 0 103.5 1t115.5 1v187q-104 10 -260 4q-84 -2 -125 9t-41 50q0 47 29 58.5t117 11.5q139 0 219 -21q-39 33 -97 119l-260 424q-18 2 -59 2t-61.5 3t-38 18.5t-19.5 46.5z" />
<glyph unicode="&#xa6;" horiz-adv-x="315" d="M86 43.5q4 266.5 4 325.5q10 25 63.5 25.5t67.5 -32.5q8 -23 10 -57.5t1 -98t-1 -67.5q0 -49 -1 -152.5t-1 -188.5t2 -148q2 -37 0 -66.5t-7 -50t-20.5 -32t-41 -11.5t-42 11.5t-23.5 37t-9 45t-2 58.5v10q-4 125 0 391.5zM90 791.5v39.5q0 76 2 245t2 237q0 16 -1 44.5 t-1 45t1 38t4 35t8.5 28t15.5 21.5t24 9q25 6 42.5 -1t26.5 -18.5t14 -37t6.5 -47t1.5 -58.5q0 -420 -5 -551q0 -8 -2 -26q0 -41 -2 -59.5t-8 -40t-19.5 -30t-35.5 -8.5q-14 0 -24.5 2.5t-18.5 9.5t-13.5 13t-8.5 20.5t-5 23.5t-3 30.5t-1 35z" />
<glyph unicode="&#xa7;" horiz-adv-x="1277" d="M125 489q-20 98 6 181q51 156 248 227q-100 59 -143 150.5t-17 193.5q31 117 155 185.5t288 68.5q113 0 219 -35t174 -110q63 -72 77.5 -161t-40.5 -147q-41 -37 -93.5 -29.5t-78.5 48.5q-23 35 -9.5 80t60.5 59q-29 76 -118 117t-186.5 41t-183.5 -37t-110 -102 q-61 -166 219 -279q18 -8 57 -22q86 -33 129 -50.5t111.5 -49.5t106.5 -56.5t81 -58t67.5 -71.5t37.5 -81q49 -166 -35 -293q-33 -51 -91.5 -90t-127.5 -53q92 -53 147 -123t51 -174q-6 -106 -64 -184t-145.5 -115t-193 -44t-202.5 16.5t-177 78.5t-117 133 q-27 53 -29.5 115.5t28 108.5t91.5 46q43 0 72 -27.5t34 -60t-13.5 -64.5t-57.5 -38q33 -61 89.5 -102t129 -60.5t152.5 -13.5q76 6 145.5 48t92.5 97q35 96 -15.5 163t-171.5 128q-68 35 -172 77t-174 71.5t-140.5 71.5t-111.5 98.5t-51 127.5zM270 615q-10 -44 1.5 -96 t50.5 -93q55 -55 211.5 -122.5t263.5 -100.5q72 2 138 39t95 102q35 74 9.5 151.5t-107.5 131.5q-115 72 -305 141q-125 45 -135 45q-49 -4 -104.5 -43t-82.5 -76q-25 -35 -35 -79z" />
<glyph unicode="&#xa8;" horiz-adv-x="499" d="M-18 1323q22 55 90 61q61 6 101 -35.5t32 -99t-66 -90.5q-88 -45 -139 29q-45 66 -18 135zM367 1307q18 49 71 67q68 25 111 -15t40 -100.5t-52 -91.5q-88 -53 -148 17q-49 55 -22 123z" />
<glyph unicode="&#xa9;" horiz-adv-x="1734" d="M98 702q-6 190 53.5 350t166 266.5t248.5 167t304 64.5q248 6 402 -77q123 -70 205 -164.5t127 -233.5q57 -172 43 -391q-10 -143 -60 -264q-55 -139 -145 -234.5t-236 -152.5q-147 -61 -319 -64q-346 -6 -562 195t-227 538zM240 709q8 -287 199.5 -458t486.5 -142 q145 14 249.5 57t184.5 137q57 66 98 167t51 202q25 231 -45 399q-66 166 -218.5 262t-379.5 86q-129 -4 -243.5 -55t-202.5 -140t-137.5 -223.5t-42.5 -291.5zM473 662q-31 287 107 462q106 140 278 142q82 4 146.5 -40t99.5 -116q-10 61 -1 106.5t52 45.5q12 -2 21.5 -5.5 t15.5 -10.5t11 -15t7 -21.5t4.5 -24.5t2.5 -29.5v-32v-37v-37.5v-33v-46.5t-4.5 -40t-10.5 -29.5t-20.5 -17t-36.5 -4q-8 2 -15.5 6t-12.5 13t-9 16.5t-9 20.5t-9 21q-12 31 -35 66t-41 49q-72 72 -174 57q-78 -10 -135.5 -73.5t-79 -153.5t-18.5 -183t41 -173t100 -113 q70 -37 135 -30.5t112 31t78 61.5q10 12 22.5 29.5t19.5 26.5t19.5 19.5t22.5 8t29 -8.5q78 -53 -17 -172q-33 -45 -90 -79.5t-123 -47.5q-201 -35 -330.5 76t-152.5 316z" />
<glyph unicode="&#xaa;" horiz-adv-x="716" d="M45 653q-6 47 8 64.5t51 17.5h447h16h42.5t31.5 -1t26.5 -5t17.5 -10t12 -15.5t3 -23.5q2 -18 -2 -30.5t-16 -20.5t-21.5 -13.5t-34 -7.5t-40 -2h-49.5q-74 -2 -163 1t-157 3q-70 -8 -119 -2t-53 45zM68 1006q10 86 71 137q43 35 146.5 73.5t128.5 51.5q51 23 51 59 q2 45 -45 63.5t-102.5 10.5t-75.5 -33q14 -27 6 -58.5t-39 -45.5q-27 -12 -59.5 -1t-40.5 44q-16 63 17.5 113t97 70.5t134 24t131.5 -25.5t86 -82q20 -47 25.5 -128t0.5 -148.5t-3 -122t18 -60.5q16 -4 31 21.5t35 17.5q39 -18 35 -72.5t-45 -76.5q-66 -33 -120 3t-54 122 q-27 -61 -99.5 -106.5t-146.5 -47.5t-131 43q-63 68 -53 154zM197.5 991q1.5 -35 27.5 -55q37 -27 100.5 4t112.5 104.5t45 153.5q-29 -27 -130 -69t-126 -68q-31 -35 -29.5 -70z" />
<glyph unicode="&#xab;" horiz-adv-x="1024" d="M39 506q0 23 14.5 49.5t26.5 40.5t45 51q35 39 100.5 108.5t87.5 96.5q8 8 21.5 24.5t23 27.5t26 25.5t34.5 26.5q23 14 59.5 -2t40.5 -45q2 -23 -9 -48t-22.5 -38.5t-40.5 -44.5q-25 -25 -78 -79t-90.5 -96t-68.5 -85q25 -33 55.5 -69.5t48 -55t65.5 -70t60 -63.5 q4 -4 22.5 -23.5t23.5 -25.5t15.5 -21.5t14.5 -27.5t2 -25q0 -23 -18.5 -42t-42.5 -23q-18 -2 -38 8t-32 22.5t-31.5 36t-27.5 29.5l-191 211q-10 10 -30.5 31.5t-32 34t-21.5 30t-12 31.5zM475 508q-2 43 88 139l195 209q6 8 24.5 31.5t36 40t37.5 26.5q23 14 56.5 -4 t41.5 -49q4 -6 0 -17.5t-4 -16.5t-7 -16t-10 -15.5t-11.5 -14.5t-11.5 -14t-11 -13.5t-10 -11.5l-31.5 -31.5t-32 -33t-31 -32.5t-30.5 -31.5t-30.5 -32t-30 -34t-29 -34.5t-27.5 -35q12 -16 26.5 -33.5t28 -34t30 -34t29.5 -32.5t30.5 -33.5t32 -34t32.5 -35t33 -35.5 q2 -2 9 -10.5t10 -11.5t10.5 -11t10.5 -12t8 -11.5t7 -12.5t5 -11t4 -12.5t1 -12.5q-2 -27 -21.5 -46t-43.5 -21q-20 -2 -37.5 8t-29 21.5t-26 30t-18.5 22.5l-205 223q-8 10 -31.5 34.5t-33.5 36t-20.5 29t-12.5 29.5z" />
<glyph unicode="&#xac;" horiz-adv-x="1128" d="M61 639q2 23 16.5 36t42 18t52.5 7t66.5 3.5t64.5 1.5q82 8 273.5 -2.5t279.5 -6.5q10 2 47 4t56.5 3.5t45 -4t37.5 -17.5q12 -14 17.5 -53t5.5 -75t-2 -91t-2 -70q0 -25 4 -139v-18q2 -31 1 -55.5t-5 -41t-16.5 -26t-32.5 -11.5q-70 -4 -86 84q-6 33 -8 131q0 33 1 123 t-1 119q-115 -6 -331 -2t-341 0q-35 -4 -70 -3t-61.5 6t-41 25.5t-12.5 53.5z" />
<glyph unicode="&#xad;" horiz-adv-x="708" d="M51 496q-6 66 43 82q20 6 51 8t73 2t74 -1t80 -3t64 -4h23q29 0 45 -1t45 -3.5t46 -6.5t36.5 -12t29 -19.5t9.5 -27.5q2 -35 -19.5 -52.5t-44 -20.5t-59.5 -3q-131 4 -289 4h-33.5h-34t-31 1t-28.5 2t-24.5 4.5t-22.5 7.5t-15.5 9t-11.5 14t-6 20z" />
<glyph unicode="&#xae;" horiz-adv-x="1144" d="M140 874.5q-38 194.5 38 370.5q45 100 141.5 176t233.5 90q276 29 434 -180q111 -145 105 -373q-4 -115 -49.5 -216t-129.5 -164q-133 -96 -311 -92.5t-303 100.5q-121 94 -159 288.5zM262 1124q-35 -137 1 -263t118 -189q90 -68 222 -71t212 50q70 45 111 127t45 176 q6 199 -78 303q-35 43 -80 75t-101.5 50.5t-115.5 16.5q-84 -6 -153.5 -41t-114.5 -95.5t-66 -138.5zM375 795q2 29 59 30v184.5v178.5q-27 0 -41 16.5t-10 40.5q2 23 18.5 36t36.5 11q45 -4 93.5 -2t88 5t80.5 -4t70 -27q39 -27 52.5 -84.5t-9 -110.5t-82.5 -65 q47 -18 63.5 -61.5t-6.5 -119.5q39 8 56.5 -13.5t9.5 -49t-37 -35.5q-35 -10 -69.5 2t-47.5 41q-10 20 -6 85t-14 83q-8 12 -19.5 19.5t-20.5 11.5t-25.5 7t-24.5 4t-27.5 1h-25.5v-152q37 4 52 -28.5t-7 -61.5q-18 0 -56.5 -3t-61 -3t-47 3t-35.5 18.5t-7 42.5zM537 1069 h12q39 -4 61.5 -5t55 3t48 21.5t15.5 46.5t-18.5 44t-51 18t-59 3t-63.5 -4v-127z" />
<glyph unicode="&#xaf;" horiz-adv-x="626" d="M0 1266q0 49 24.5 64.5t94.5 12.5q49 -4 199.5 -0.5t193.5 3.5q29 0 47.5 -3.5t32.5 -10.5t21.5 -22.5t9.5 -39.5q0 -14 -2.5 -24.5t-8.5 -18.5t-13 -13.5t-20.5 -8.5t-24.5 -4t-30.5 -2t-34 0t-40 1h-43.5h-218h-35.5h-35h-28.5t-26.5 2t-21.5 5t-18.5 7.5t-12.5 11.5 t-8 16t-2 24z" />
<glyph unicode="&#xb0;" horiz-adv-x="749" d="M86 1171q-10 59 0 115.5t29.5 97.5t48.5 74q88 92 213 92q205 0 280 -178q49 -135 6.5 -253t-135.5 -161q-90 -43 -194.5 -28.5t-165.5 78.5q-66 66 -82 163zM225 1300q-25 -76 6 -143t84 -86q31 -12 76 -11t76 19q25 10 44 33t31.5 59.5t10.5 81.5q-4 49 -28.5 90 t-59.5 62q-41 22 -111 12q-47 -10 -81.5 -39.5t-47.5 -77.5z" />
<glyph unicode="&#xb1;" horiz-adv-x="1140" d="M68 821q0 16 3 29.5t12 21l15 12.5t24.5 6t25 2t30 1h29.5q37 0 139.5 3t157.5 1q8 195 8 211q0 14 -1 42t-1 41t1 36.5t2 37t4 32t7 27.5t10.5 19.5t14.5 16.5t20 6q14 2 27.5 -1t22 -11t15.5 -18.5t10 -27t5 -30.5t2 -35.5v-37v-39v-38.5v-235q41 0 118 2t105 2h17 q47 0 70.5 -2t56.5 -7t48 -18.5t15 -35.5q0 -18 -5 -30.5t-14 -21t-22.5 -13.5t-30 -6t-35 -2t-39 0t-42.5 -1q-37 0 -79 -2t-82 -3t-83 -1l-6 -252v-41v-41.5v-41t-2 -39.5t-6 -34.5t-11.5 -27t-16.5 -18.5t-22.5 -7t-31.5 6q-18 6 -28.5 25.5t-14.5 56.5t-5 62.5t-1 74.5 v25q0 57 1 143t1 109q-20 2 -113.5 -1t-116.5 -3h-24q-47 0 -70.5 1t-55.5 7t-45 21.5t-13 41.5zM74 55q-10 76 49 84q25 2 46 2t60 -2t54 -2q555 0 620 -4q12 0 28.5 -1t27 -1t23.5 -1t22.5 -2t19.5 -3t17.5 -5t14.5 -8.5t10 -11.5t6 -14t3 -20q2 -20 -5 -35t-22.5 -22 t-31 -11t-41 -4h-45t-50 3t-49.5 3h-198q-66 0 -191 -2t-198 -2q-45 0 -64.5 1t-48.5 6t-41 17.5t-16 34.5z" />
<glyph unicode="&#xb2;" horiz-adv-x="602" d="M31 732q-2 52 22 97q14 29 32.5 56.5t38 49t46.5 46.5t49.5 43t52 44t52.5 46q102 94 104 166q2 53 -34 90t-93 35q-31 0 -57.5 -10.5t-44 -27.5t-25.5 -38q-14 -33 -2 -59q18 37 51 16q39 -25 13 -74q-10 -23 -37 -35t-58 -8q-45 6 -69.5 39t-24.5 86q0 102 75 165 t195 61q104 -4 168 -62.5t70 -154.5q6 -80 -18.5 -129.5t-79.5 -106.5q-45 -47 -195 -176q-70 -63 -96 -100q80 10 139 12q6 0 62.5 1t78.5 -1q4 4 5.5 12t2.5 16.5t3 19.5t5 21.5t8 20.5t11 17.5t17.5 12.5t25.5 5q59 0 51 -82q-2 -8 -4 -16.5t-3 -18.5t-3 -18 q-2 -18 -1 -37t0 -37.5t-9 -24.5q-4 -6 -13.5 -9t-22.5 -4t-23.5 -2t-31 0t-30.5 1h-360q-41 0 -43 52z" />
<glyph unicode="&#xb3;" horiz-adv-x="616" d="M35 885q-2 94 63 94q8 0 15.5 -1t12.5 -5t8 -7t6 -11.5t5 -12.5t6.5 -14t6.5 -15q12 -59 58 -97t110 -34q55 4 92 40t39 96q4 139 -142 178q-6 2 -16 3t-14 3t-9.5 4t-7.5 6t-4 10q0 23 35 70q14 18 43 52t35 42q12 14 26.5 32.5t21.5 28t19.5 20.5t24.5 24 q-53 -20 -147 -21q-82 0 -156 6q0 -10 -1 -34.5t-3 -41t-12.5 -33t-28.5 -18.5q-27 -6 -44.5 0t-23.5 22.5t-8 31t0 36.5q0 2 -1 24.5t0 33t5 31t11.5 30.5t20.5 19.5t34 9.5q35 2 112.5 -1t102.5 -3q27 0 121 8q70 2 98.5 -5t42.5 -42q23 -55 -51 -144q-88 -109 -133 -141 q18 0 42.5 -8t46 -23.5t38.5 -31.5q57 -66 53 -187q-2 -147 -125 -217q-45 -27 -119 -31t-143 19q-66 20 -113 77.5t-53 127.5z" />
<glyph unicode="&#xb4;" horiz-adv-x="389" d="M14 1193q-2 7 0 15.5t4 15.5t8.5 16t12.5 16.5t16.5 17.5t18.5 19.5t22 21.5q16 16 46 43.5t44 42.5q74 78 115 110q29 23 47.5 32t42 4t43.5 -34q27 -47 13.5 -74.5t-82.5 -82.5l-166 -144q-8 -4 -25.5 -17t-29 -20.5t-27 -16.5t-27.5 -11t-25.5 -2t-23.5 8t-21 25 q-4 8 -6 15z" />
<glyph unicode="&#xb6;" horiz-adv-x="1454" d="M98 899q-8 193 74 342.5t225 200.5q152 53 459 33q57 -2 92 -2t102.5 3t100.5 3q18 0 47 1t47.5 2t42 1t38.5 -1t32.5 -3t28 -7.5t20.5 -13.5t14 -18t4 -25q2 -27 -6 -43t-25.5 -23.5t-35 -9.5t-48 -3t-48.5 -3q-6 -178 -7.5 -433t-0.5 -591t-1 -461h39h35h30.5t27 -4 t20.5 -10t12 -18.5t4 -30.5q2 -23 -6 -38t-19.5 -23.5t-39 -12.5t-47 -4h-60.5h-30q-59 0 -216 -3t-239 -1h-23q-35 0 -52 1t-41.5 4t-37 8t-25 14.5t-16.5 25t-2 35.5t10.5 32.5t26 17.5t32.5 6t46 1h49q4 49 1 294t-3 300q-289 -31 -452.5 84t-178.5 373zM249.5 1019 q-20.5 -136 24.5 -257q88 -219 457 -176q10 307 10 753q-283 14 -399 -110q-72 -74 -92.5 -210zM871 332.5q-1 -165.5 3 -484.5h240q2 119 3 276t2 311.5t1 308v312t2 277.5q-41 0 -121.5 -2t-119.5 -2q0 -127 -4.5 -479t-5.5 -517.5z" />
<glyph unicode="&#xb7;" horiz-adv-x="329" d="M76 529.5q0 37.5 25.5 73.5t70.5 46q43 10 76 -10t46 -55t11 -76t-22 -66q-37 -45 -101.5 -41.5t-93.5 58.5q-12 33 -12 70.5z" />
<glyph unicode="&#xb8;" horiz-adv-x="356" d="M-6 -389q-6 20 10 51t35 31q20 -4 58 -39t73 -41q29 -4 51.5 1t38.5 20.5t19 41.5q4 39 -16.5 68t-67.5 39q-6 0 -18.5 3t-17.5 5t-14.5 4t-13.5 4t-11 5t-10.5 6.5t-7.5 6.5t-7 8t-5 9q-16 37 39 129q37 61 54 82t40 21q76 8 74 -37q-2 -43 -72 -148q90 -8 142 -67 q53 -61 45 -154q-10 -92 -81 -138t-173 -30q-63 8 -111.5 43t-52.5 76z" />
<glyph unicode="&#xb9;" horiz-adv-x="567" d="M27 1212q-8 45 51 70q18 10 36.5 22.5t37 29t31 27.5t28.5 31.5t22.5 29t21.5 28.5t15 23q27 37 76.5 46t63.5 -28q8 -31 4 -98q-14 -387 -8 -582q111 -2 138 -14.5t25 -65.5q-2 -25 -18 -36t-36.5 -14t-57.5 -3q-31 0 -90.5 -1t-87.5 -1h-9q-41 0 -62.5 1t-51 5 t-45 14.5t-17.5 26.5q-12 86 49 88q18 0 64.5 -2t71.5 -2q-4 94 -3 315q0 131 25 234q-37 -86 -92 -137q-47 -41 -90 -56q-33 -12 -58.5 -0.5t-33.5 49.5z" />
<glyph unicode="&#xba;" horiz-adv-x="690" d="M-4 674q0 23 12 38t33.5 20t50.5 7t59.5 1t63.5 1q47 2 135 2t123 2q20 0 60 1.5t61.5 1.5t47.5 -5.5t39 -18.5t13 -38q2 -20 -4 -34.5t-14 -21.5t-29.5 -11.5t-39 -4.5h-54.5h-31q-98 0 -375 -8q-29 -2 -56.5 -1t-47.5 6t-33.5 20.5t-13.5 42.5zM47 1110 q-16 174 61.5 283t206.5 123q174 18 263 -99q55 -72 71.5 -183.5t-15.5 -218t-106 -157.5q-68 -47 -169 -49t-171 39q-39 23 -69.5 62.5t-49 90t-22.5 109.5zM182 1122.5q8 -65.5 33 -104.5q35 -57 105.5 -69.5t119.5 18.5q41 23 60.5 79t17.5 117.5t-22.5 116.5t-57.5 78 q-48 30 -114 16q-33 -4 -60.5 -23.5t-46 -46t-27.5 -55.5q-16 -61 -8 -126.5z" />
<glyph unicode="&#xbb;" horiz-adv-x="1009" d="M74 894q-4 11 0 15q8 31 41.5 49.5t56.5 6.5q16 -10 31.5 -23.5t25 -25t22.5 -27t21 -23.5l193 -209q90 -98 88 -141q-2 -12 -12.5 -28.5t-20.5 -29t-32.5 -37t-32.5 -34.5l-203 -223q-6 -4 -20.5 -22.5t-24.5 -30t-28.5 -20.5t-37.5 -9q-27 2 -46 22.5t-19 47.5v11t3 12 t5 12.5t8 12.5t8 11t9.5 11t10.5 11.5t11 12.5l10 10q18 20 61.5 66.5t67 72t55 63.5t58.5 70q-33 41 -71 83t-95 101.5t-78 80.5q0 2 -8 11t-12 12t-12.5 13.5t-11.5 15.5t-10 16t-7 16.5t-4 16.5zM512 147q0 12 3 23.5t13.5 27t15.5 21.5t24.5 26.5t21.5 22.5 q12 14 60 64.5t65.5 70t49.5 55.5t56 70q-33 41 -70.5 83t-91 96.5t-75.5 78.5q-31 33 -42.5 46.5t-22.5 39t-7 46.5q2 31 38.5 47t59.5 2q25 -16 42.5 -34t37 -41.5t25.5 -31.5q23 -25 89 -94.5t99 -108.5q33 -37 45.5 -52t27.5 -41.5t13 -47.5q0 -20 -12 -38.5t-45 -51.5 l-39 -39l-191 -209q-4 -6 -25.5 -30.5t-32.5 -36t-31.5 -21.5t-39.5 -8q-25 2 -43 21.5t-18 43.5z" />
<glyph unicode="&#xbc;" horiz-adv-x="1605" d="M86 1221q-8 47 51 71q16 8 30.5 17.5t28 19.5t25.5 21.5t24.5 23.5t20.5 22.5t19.5 25t17.5 22.5t15.5 20.5t13.5 18.5q25 35 75 45t64 -29q10 -23 4 -98q-12 -371 -8 -582q66 -2 93.5 -16.5t25.5 -65.5q0 -25 -13.5 -36t-31 -14t-49.5 -3q-25 0 -76 -1t-78 -1 q-178 -6 -186 49q-4 41 11 64.5t40 23.5q18 0 62 -2t71 -2v248q6 223 37 317q-27 -66 -81 -127t-112 -84q-31 -14 -57.5 -0.5t-36.5 52.5zM328 7.5q4 25.5 11 43t23 47.5q152 256 246 428l363 660l143 266q2 4 9 16.5t10.5 16.5t9.5 14t10 14.5t10 11.5t12.5 10t14.5 7 t17.5 5t19.5 -1q33 -2 46 -17.5t7 -44t-14.5 -48t-24.5 -52.5l-104 -188q-12 -27 -32 -60.5t-38 -66.5t-33 -61q-156 -276 -186 -338q-16 -31 -52 -95.5t-53 -97.5l-206 -373q-6 -14 -28 -44.5t-30 -47.5q-16 -29 -26.5 -42t-28.5 -22t-41 -5q-31 8 -45 23.5t-10 41z M949.5 274.5q-23.5 38.5 0.5 85.5q8 12 22.5 39t22.5 39q49 96 90 168q63 109 115 189q18 31 57 44t76 7t53 -27q18 -23 17 -104v-190t-2 -171h28.5h26.5t21.5 -1t19.5 -5t13.5 -10t10.5 -16.5t3 -26.5q0 -35 -25.5 -46t-95.5 -11v-127h20q68 -4 85.5 -12.5t17.5 -49.5 q0 -31 -23.5 -40t-89.5 -11h-239q-43 0 -59.5 13.5t-16.5 45.5q0 16 12 28.5t34.5 16.5t44 5.5t49.5 2.5t38 1v127q-12 2 -122 0t-126 -2q-55 0 -78.5 38.5zM1053 340q66 14 108 16h113q2 186 2 267q0 39 20 129q-27 -66 -77 -160q-25 -47 -97 -174q-23 -41 -69 -78z" />
<glyph unicode="&#xbd;" horiz-adv-x="1671" d="M88 1221q-8 47 51 71q16 8 33.5 19.5t31 21.5t29 25.5t25.5 27t23.5 28t19.5 24.5t17.5 24.5t13.5 20.5q25 35 76 45t65 -29q8 -23 4 -98q-12 -371 -10 -582q68 -2 95.5 -16.5t25.5 -65.5q-2 -25 -15.5 -36t-30 -14t-48.5 -3q-27 0 -77 -1t-77 -1q-178 -6 -186 49 q-4 41 11 64.5t40 23.5h29.5t32 -1t33.5 -2t36 -1q-2 188 8 348q6 145 31 217q-27 -66 -82 -127t-111 -84q-31 -14 -58.5 -0.5t-35.5 52.5zM342 7.5q4 25.5 12 43t23 47.5q152 256 246 430l364 658l143 268q0 2 9.5 17.5t11.5 18.5t10 15.5t12.5 15.5t12.5 11t15 10t18.5 4 t21.5 2q16 -2 28.5 -6t17.5 -13t8 -18.5t0 -23.5t-6 -24.5t-10 -27t-11.5 -26t-10.5 -23.5l-106 -190q-12 -25 -31.5 -59.5t-38 -67.5t-32.5 -59q-154 -276 -185 -338q-16 -31 -52 -96.5t-54 -96.5l-205 -373q-8 -14 -28.5 -45.5t-30.5 -46.5q-16 -29 -25.5 -43t-28 -23 t-43.5 -3q-31 6 -45 21.5t-10 41zM1028 57.5q-2 55.5 21 98.5q25 53 61.5 96t112 105.5t96.5 80.5q100 92 102 166q2 49 -32.5 86t-90.5 37q-68 0 -105.5 -41t-27.5 -92q29 35 62 11.5t14 -66.5q-14 -27 -47 -40.5t-72 -2.5q-39 12 -59.5 43.5t-20.5 78.5q0 66 32 117 t93.5 80t145.5 29q70 0 122 -29t81.5 -77t35.5 -111q12 -129 -98 -244q-29 -29 -58.5 -56.5t-79.5 -68.5t-63 -53q-70 -63 -82 -86q53 8 140 10h133q4 6 8 40t18.5 58.5t49.5 24.5q61 2 53 -82q-2 -10 -5 -27.5t-5 -25.5q0 -8 -1 -36t-3.5 -44.5t-6.5 -20.5t-9 -7t-13 -4 t-15.5 -2t-18.5 -1h-19.5h-23.5h-23h-361q-39 0 -41 55.5z" />
<glyph unicode="&#xbe;" horiz-adv-x="1714" d="M129 885q-4 94 64 94q8 0 14 -1t11 -5t9 -7t7.5 -11.5t5.5 -12.5t5 -14t5 -15q14 -59 60 -97t110 -34q55 4 92 40t39 96q4 139 -143 178q-6 2 -15.5 3t-13.5 3t-9 4t-7.5 6t-4.5 10q0 23 33 70q16 18 45 52t35 42q12 14 26.5 32.5t21.5 28t18.5 20.5t25.5 24 q-53 -20 -147 -21q-84 0 -156 6q-2 -10 -2 -34.5t-2 -41t-12.5 -33t-28.5 -18.5q-27 -6 -44 0t-23.5 22.5t-8.5 31t-2 36.5q2 2 1 24.5t0 33t4 31t10.5 30.5t21.5 19.5t35 9.5q35 2 112.5 -1t102.5 -3q27 0 121 8q70 2 97.5 -5t41.5 -42q25 -55 -49 -144q-90 -109 -135 -141 q20 0 43.5 -8t46 -23.5t39.5 -31.5q55 -66 53 -187q-2 -147 -127 -217q-45 -27 -119 -31t-141 19q-68 20 -114 77.5t-52 127.5zM414 -17.5q4 25.5 11 43t24 48.5q152 256 245 428l363 659l143 266q2 2 10.5 17.5t10.5 19.5t11 16.5t13 15.5t12.5 11.5t15.5 10.5t17 4t23 0 q33 -2 46 -17.5t7 -44t-14.5 -48t-22.5 -52.5l-106 -189q-14 -29 -49 -91t-54 -97q-156 -276 -186 -338q-16 -31 -52 -95.5t-53 -96.5l-206 -373q-6 -14 -28 -45t-30 -47q-16 -29 -26.5 -42.5t-28.5 -22.5t-41 -5q-31 8 -45 23.5t-10 41zM1053.5 274.5q-23.5 38.5 1.5 85.5 q6 10 13 23.5t15.5 28t14.5 26.5q49 96 92 168q63 109 113 189q20 31 59 44t75 7t52 -27q18 -23 18 -104q-2 -66 -2 -190v-171h27.5h27t22.5 -1t19.5 -5t12.5 -10t9 -16.5t3 -26.5q0 -35 -25.5 -46t-95.5 -11v-127h23q66 -4 83 -12.5t17 -49.5q0 -20 -11 -31.5t-33.5 -14.5 t-65.5 -5h-240q-45 0 -61.5 13.5t-16.5 45.5q0 16 13.5 28.5t36 16.5t43 5.5t48 2.5t37.5 1v127q-10 2 -120.5 0t-127.5 -2q-53 0 -76.5 38.5zM1157 340q63 14 109 16h110q4 186 4 267q1 39 19 129q-25 -66 -78 -160q-23 -47 -94 -174q-25 -41 -70 -78z" />
<glyph unicode="&#xbf;" horiz-adv-x="753" d="M1 308.5q1 103.5 46 178.5q20 41 59 84t76 80t73 78t60.5 94.5t28.5 114.5q0 10 1 26.5t2 29t2 29.5t4 28.5t8.5 25t12.5 20.5t17 13t24.5 5t30.5 -5q57 -14 46 -180q-4 -66 -19.5 -119t-52.5 -104.5t-60.5 -78t-83.5 -85.5q-45 -45 -65.5 -67.5t-40.5 -63.5t-25 -84 q-6 -66 22 -117t69 -76t90 -31q94 -14 169.5 17t94.5 102q25 80 -27 105q-33 -47 -82 -25q-35 12 -43 48t21 73q29 43 107.5 40t123.5 -54q70 -80 45 -209q-14 -84 -77.5 -143.5t-150.5 -79t-178 -14.5t-169 47t-115 112q-45 82 -44 185.5zM297 1407q2 41 25 66 q35 45 100 41.5t92 -58.5q14 -33 13 -70.5t-26.5 -73.5t-70.5 -46q-41 -10 -73.5 10t-47 55t-12.5 76z" />
<glyph unicode="&#xc0;" d="M0 72q0 14 4 24t9 18.5t14.5 12.5t17.5 7t23.5 4t26.5 1t29.5 1t31.5 1q25 57 61.5 180t48.5 162q20 57 54 166t57 172l98 287l98 301q31 84 107 84q94 0 121 -84q59 -188 100 -301l103 -297q33 -100 69.5 -226t72.5 -244t62 -202q27 -2 50.5 0t45 0t38 -8t25.5 -21.5 t9 -39.5q-2 -33 -26.5 -50.5t-67.5 -21.5t-86 -3t-96 3t-80 0q-51 -8 -87 -1t-40 44q-12 76 59 90q23 4 97 6q-33 162 -107 377q-258 -23 -512 -8q-35 -84 -115 -367q31 -8 68 -10l55.5 -3t31.5 -14.5t13 -45.5q0 -12 -2 -22.5t-10 -18t-16.5 -12.5t-22.5 -8t-26.5 -5 t-35 -2h-38h-44h-46.5t-54 -1t-52.5 0t-43 2t-39 6t-27 12.5t-20.5 21.5t-6 33zM371.5 1917q21.5 47 54.5 51.5t72 -18.5q61 -27 176 -92q16 -10 33.5 -19.5t40 -21t38.5 -19.5q2 0 11 -4q63 -31 82.5 -49.5t9.5 -52.5q-4 -18 -12.5 -29.5t-20.5 -16t-22.5 -5.5t-29 3.5 t-29.5 8.5t-33.5 13t-30.5 11q-96 43 -219 101q-84 37 -113 64.5t-7.5 74.5zM465 643q203 -12 438 6q-31 92 -76 228.5t-70.5 213t-47 155.5t-25.5 120q-6 -66 -41 -179.5t-91 -277.5t-87 -266z" />
<glyph unicode="&#xc1;" d="M0 72q0 14 4 24t9 18.5t14.5 12.5t17.5 7t23.5 4t26.5 1t29.5 1t31.5 1q25 57 61.5 180t48.5 162q20 57 54 166t57 172l98 287l98 301q31 84 107 84q94 0 121 -84q59 -188 100 -301l103 -297q33 -100 69.5 -226t72.5 -244t62 -202q27 -2 50.5 0t45 0t38 -8t25.5 -21.5 t9 -39.5q-2 -33 -26.5 -50.5t-67.5 -21.5t-86 -3t-96 3t-80 0q-51 -8 -87 -1t-40 44q-12 76 59 90q23 4 97 6q-33 162 -107 377q-258 -23 -512 -8q-35 -84 -115 -367q31 -8 68 -10l55.5 -3t31.5 -14.5t13 -45.5q0 -12 -2 -22.5t-10 -18t-16.5 -12.5t-22.5 -8t-26.5 -5 t-35 -2h-38h-44h-46.5t-54 -1t-52.5 0t-43 2t-39 6t-27 12.5t-20.5 21.5t-6 33zM465 643q203 -12 438 6q-31 92 -76 228.5t-70.5 213t-47 155.5t-25.5 120q-6 -66 -41 -179.5t-91 -277.5t-87 -266zM496 1696q-8 35 14 54t86 52q2 0 4 2l113 60q100 59 176 94 q39 23 74.5 17.5t50.5 -52.5q16 -51 -10.5 -76.5t-110.5 -62.5l-217 -105q-6 -2 -22.5 -8t-24.5 -9t-23.5 -8t-24 -6t-21.5 -2t-21.5 2t-17.5 8t-15 15t-10 25z" />
<glyph unicode="&#xc2;" d="M0 72q0 14 4 24t9 18.5t14.5 12.5t17.5 7t23.5 4t26.5 1t29.5 1t31.5 1q25 57 61.5 180t48.5 162q20 57 54 166t57 172l98 287l98 301q31 84 107 84q94 0 121 -84q59 -188 100 -301l103 -297q33 -100 69.5 -226t72.5 -244t62 -202q27 -2 50.5 0t45 0t38 -8t25.5 -21.5 t9 -39.5q-2 -33 -26.5 -50.5t-67.5 -21.5t-86 -3t-96 3t-80 0q-51 -8 -87 -1t-40 44q-12 76 59 90q23 4 97 6q-33 162 -107 377q-258 -23 -512 -8q-35 -84 -115 -367q31 -8 68 -10l55.5 -3t31.5 -14.5t13 -45.5q0 -12 -2 -22.5t-10 -18t-16.5 -12.5t-22.5 -8t-26.5 -5 t-35 -2h-38h-44h-46.5t-54 -1t-52.5 0t-43 2t-39 6t-27 12.5t-20.5 21.5t-6 33zM264.5 1643q-2.5 18 11 33.5t24.5 23.5t40 24l268 156q63 39 137 0l254 -147q6 -4 16.5 -10.5t15.5 -9.5t14.5 -8t13.5 -9t10 -9.5t10 -9.5t7.5 -10t3.5 -12q4 -10 -2.5 -26.5t-17.5 -31 t-26 -18.5q-16 0 -21 -1t-24.5 6t-28.5 10t-34 14.5t-39 17.5q-178 88 -219 105q-92 -35 -240 -111q-35 -16 -53 -23.5t-44 -14.5t-40 -2t-22 22q-12 23 -14.5 41zM465 643q203 -12 438 6q-31 92 -76 228.5t-70.5 213t-47 155.5t-25.5 120q-6 -66 -41 -179.5t-91 -277.5 t-87 -266z" />
<glyph unicode="&#xc3;" d="M0 72q0 14 4 24t9 18.5t14.5 12.5t17.5 7t23.5 4t26.5 1t29.5 1t31.5 1q25 57 61.5 180t48.5 162q20 57 54 166t57 172l98 287l98 301q31 84 107 84q94 0 121 -84q59 -188 100 -301l103 -297q33 -100 69.5 -226t72.5 -244t62 -202q27 -2 50.5 0t45 0t38 -8t25.5 -21.5 t9 -39.5q-2 -33 -26.5 -50.5t-67.5 -21.5t-86 -3t-96 3t-80 0q-51 -8 -87 -1t-40 44q-12 76 59 90q23 4 97 6q-33 162 -107 377q-258 -23 -512 -8q-35 -84 -115 -367q31 -8 68 -10l55.5 -3t31.5 -14.5t13 -45.5q0 -12 -2 -22.5t-10 -18t-16.5 -12.5t-22.5 -8t-26.5 -5 t-35 -2h-38h-44h-46.5t-54 -1t-52.5 0t-43 2t-39 6t-27 12.5t-20.5 21.5t-6 33zM317 1655q-76 53 35 166q82 80 193 80q66 2 163 -57.5t136 -61.5q68 -8 123 57l28.5 28.5t22.5 18.5t25.5 9t21.5 -11q31 -27 36 -55.5t-10.5 -56t-46.5 -62.5q-47 -51 -115.5 -69.5 t-135.5 -2.5q-39 8 -75 24.5t-72 38t-54 30.5q-80 43 -164 -39q-2 -2 -15.5 -14.5t-17.5 -15.5t-16 -11.5t-20.5 -8.5t-19.5 2.5t-22 10.5zM465 643q203 -12 438 6q-31 92 -76 228.5t-70.5 213t-47 155.5t-25.5 120q-6 -66 -41 -179.5t-91 -277.5t-87 -266z" />
<glyph unicode="&#xc4;" d="M0 72q0 14 4 24t9 18.5t14.5 12.5t17.5 7t23.5 4t26.5 1t29.5 1t31.5 1q25 57 61.5 180t48.5 162q20 57 54 166t57 172l98 287l98 301q31 84 107 84q94 0 121 -84q59 -188 100 -301l103 -297q33 -100 69.5 -226t72.5 -244t62 -202q27 -2 50.5 0t45 0t38 -8t25.5 -21.5 t9 -39.5q-2 -33 -26.5 -50.5t-67.5 -21.5t-86 -3t-96 3t-80 0q-51 -8 -87 -1t-40 44q-12 76 59 90q23 4 97 6q-33 162 -107 377q-258 -23 -512 -8q-35 -84 -115 -367q31 -8 68 -10l55.5 -3t31.5 -14.5t13 -45.5q0 -12 -2 -22.5t-10 -18t-16.5 -12.5t-22.5 -8t-26.5 -5 t-35 -2h-38h-44h-46.5t-54 -1t-52.5 0t-43 2t-39 6t-27 12.5t-20.5 21.5t-6 33zM340 1749q14 62 82 78q45 10 82 -10.5t52.5 -55t7 -76.5t-42.5 -71q-78 -57 -142 8q-53 55 -39 127zM465 643q203 -12 438 6q-31 92 -76 228.5t-70.5 213t-47 155.5t-25.5 120 q-6 -66 -41 -179.5t-91 -277.5t-87 -266zM798 1695q-7 34 14.5 70t68.5 54q61 27 105.5 -15t43.5 -104.5t-55 -87.5q-45 -20 -86 -14t-62.5 34.5t-28.5 62.5z" />
<glyph unicode="&#xc5;" d="M0 72q0 16 3 27.5t12.5 19.5t17.5 12t24.5 6t27.5 2t33.5 1t35.5 1q25 57 61.5 180t50.5 162q12 37 25.5 80t25 79t26.5 86t32 93l98 287l98 301q31 84 109 84q92 0 119 -84q59 -188 100 -301l102 -299q39 -121 106 -345t101 -325q25 -2 48.5 0t45 0t38 -8t25.5 -21.5 t9 -41.5q-2 -31 -26.5 -48.5t-67.5 -21.5t-86 -3t-96.5 3t-79.5 0q-51 -8 -87 -1t-40 42q-12 78 59 92q23 4 99 6q-35 162 -109 377q-258 -23 -512 -8q-35 -84 -113 -367q29 -8 66 -10l55.5 -3t31.5 -14.5t13 -45.5q0 -12 -2 -22.5t-10 -18t-16.5 -12.5t-22.5 -8t-26.5 -5 t-35 -2h-38h-44h-46.5t-54 -1t-52.5 0t-43.5 2t-39 6t-26.5 12.5t-19.5 21.5t-5 33zM424 1774q-25 129 53 208q74 78 197 78q84 0 147.5 -32.5t89.5 -92.5q45 -84 18.5 -177t-116.5 -140q-57 -31 -145 -30t-148 42q-78 49 -96 144zM463 643q203 -12 438 6q-31 92 -76 228.5 t-70.5 213t-47 155.5t-25.5 120q-6 -66 -41 -179.5t-91 -277.5t-87 -266zM551 1841q-8 -90 74 -125q59 -25 116 6q72 37 64 117q-4 51 -42 81t-87 28q-47 0 -84 -30t-41 -77z" />
<glyph unicode="&#xc6;" horiz-adv-x="2064" d="M-51 66q0 27 8 42t27.5 21t38 8t48 2t48.5 2q33 51 184 308l189 305q68 106 180 297q115 195 164 292h-7q-27 0 -44 2.5t-43.5 10.5t-37 26.5t-2.5 47.5q2 10 9.5 19t18.5 14t22.5 8.5t31 4.5t32.5 1t40 -1t41 -1q37 0 98.5 2t87.5 2q72 0 233 2t275.5 1t212.5 -7 q20 0 31.5 -17.5t14.5 -50.5t3 -63.5t-1 -72.5t-1 -63q0 -8 1 -37.5t1 -43v-39t-5 -38t-13 -27.5t-22.5 -22.5t-32.5 -7.5t-30.5 7.5t-20 23.5t-11.5 30.5t-5 41t-2 42t0 44t1 39.5q0 18 -4 58t-4 60l-623 -2q0 -78 1 -165t2 -172t1 -146q102 -6 320 0q4 23 5 59.5t2 63.5 t5 53.5t17.5 40.5t33.5 16q25 0 40.5 -9t22.5 -32.5t9 -40t4 -49.5q8 -164 4 -428q0 -39 -35.5 -62.5t-68.5 1.5q-16 20 -24.5 50t-9.5 57.5t-2 69.5t-3 65h-157.5t-157.5 -2q0 -47 -1.5 -166t-1.5 -221.5t3 -176.5q37 -8 321.5 -6t331.5 0q6 55 6 215v27.5v29v27t2 26.5 l5 22.5t8 21.5t12.5 15t17.5 10.5t25 3.5q27 0 44 -14.5t22 -45.5t7 -52.5t0 -63.5t-2 -52v-131v-36.5v-46t-3 -36t-9 -30.5q-8 -12 -31.5 -20.5t-53.5 -10.5t-63.5 -3t-62.5 0t-51 -1q-111 -2 -384.5 4t-387.5 0q-31 -2 -55.5 -1t-42 8t-25.5 26.5t-6 52.5q6 35 43 46t85 7 t99 4v350q-78 -4 -229.5 -2t-223.5 0q-31 -49 -64.5 -105t-76.5 -133t-67 -116q10 0 31.5 -1t30.5 -2t24.5 -3t22.5 -6t15.5 -10.5t11.5 -15.5t5 -23q2 -59 -31 -70.5t-125 -5.5q-33 2 -207 0q-111 -2 -110 70zM580 627q53 0 185 2t175 0q-7 488 16 719q-8 -43 -23 -86 t-49 -107.5t-53.5 -99.5t-78 -133.5t-80.5 -139.5q-6 -10 -18.5 -30.5t-24 -39t-24.5 -42t-25 -43.5z" />
<glyph unicode="&#xc7;" horiz-adv-x="1431" d="M138 718q-3 130 24.5 248.5t81 220t139.5 178.5t197 118q51 20 131 28q166 14 286.5 -50t173.5 -204q2 20 2.5 58.5t1.5 67t5 58t15 47t32 19.5q33 2 51 -10t23.5 -44t4.5 -62.5t-5.5 -85t-4.5 -93.5q0 -225 -8 -256q-14 -43 -53 -47q-29 0 -45 15.5t-20.5 36t-12.5 60.5 t-16 69q-43 121 -127 192.5t-197 83.5q-201 18 -352 -129q-41 -41 -79 -103.5t-62.5 -135t-30.5 -138.5q-18 -205 14.5 -343t120.5 -247q168 -209 434 -159q57 12 112.5 42.5t101.5 76.5t73 104q6 8 14 25.5t13.5 26.5t14.5 20.5t18.5 15.5t23 4t27.5 -6q29 -14 34.5 -47 t-2.5 -60.5t-22 -54.5q-133 -283 -465 -297q-18 -33 -49 -80q90 -8 143 -67q51 -61 41 -154q-8 -92 -78.5 -138t-175.5 -30q-61 8 -109.5 43t-54.5 76q-4 20 12.5 51t32.5 31q23 -4 61 -39t72 -41q29 -4 51.5 1t39 20.5t18.5 41.5q4 39 -16.5 68t-67.5 39q-6 0 -18.5 3 t-17.5 5t-14 4t-13.5 4t-11.5 5t-10 6.5t-7 6.5t-7 8t-5 9q-16 37 38 129l5 4q-180 27 -314.5 167t-179.5 325q-29 129 -32 259z" />
<glyph unicode="&#xc8;" horiz-adv-x="1421" d="M68 49q2 12 2 31q4 29 26.5 42t55 14t71.5 2t76 1q2 209 -1 614.5t1 573.5q-23 2 -64.5 2t-68.5 2t-54.5 9.5t-38 26.5t-3.5 50q8 35 54 45.5t134 10.5h893q27 0 42 -14.5t20.5 -40t7.5 -59.5t1 -73t1 -82q2 -39 3 -55t1 -48t-5 -47.5t-13.5 -34t-24 -25.5t-37.5 -7 q-43 2 -54.5 49t-9.5 172q2 55 -8 121h-633q-12 -236 0 -483q96 -6 314 0q0 10 2 57t5 67.5t10 51.5t20.5 44t35.5 15q47 2 61.5 -29.5t12.5 -88.5q-12 -313 -12 -422q0 -51 -57.5 -65.5t-79.5 22.5q-6 12 -6 26l6 181q-55 -2 -155.5 -2.5t-154.5 -2.5q0 -285 5 -559 q287 10 653 -4q12 109 6 238q0 8 -2 26v78t16.5 56.5t51.5 21.5q27 -2 44 -18.5t23 -53t8 -63.5t2 -78v-18q0 -25 -4 -152q-2 -12 -1 -48t0 -61.5t-9 -39.5t-39 -22.5t-81 -8.5t-101 2t-124 5t-124 3q-129 0 -279.5 -4t-269.5 -4h-27.5t-27.5 -1t-25.5 0t-22.5 2t-19.5 5 t-15.5 10t-9 15.5t-4 21.5zM318.5 1917q21.5 47 54 51.5t71.5 -18.5q59 -27 177 -92q14 -10 32.5 -19.5t41 -21t36.5 -19.5q4 0 10 -4q63 -31 84 -49.5t11 -52.5q-4 -18 -12.5 -29.5t-20.5 -16t-22.5 -5.5t-29 3.5t-29.5 8.5t-33.5 13t-31.5 11q-98 43 -219 101 q-84 37 -112.5 64.5t-7 74.5z" />
<glyph unicode="&#xc9;" horiz-adv-x="1421" d="M68 49q2 12 2 31q4 29 26.5 42t55 14t71.5 2t76 1q2 209 -1 614.5t1 573.5q-23 2 -64.5 2t-68.5 2t-54.5 9.5t-38 26.5t-3.5 50q8 35 54 45.5t134 10.5h893q27 0 42 -14.5t20.5 -40t7.5 -59.5t1 -73t1 -82q2 -39 3 -55t1 -48t-5 -47.5t-13.5 -34t-24 -25.5t-37.5 -7 q-43 2 -54.5 49t-9.5 172q2 55 -8 121h-633q-12 -236 0 -483q96 -6 314 0q0 10 2 57t5 67.5t10 51.5t20.5 44t35.5 15q47 2 61.5 -29.5t12.5 -88.5q-12 -313 -12 -422q0 -51 -57.5 -65.5t-79.5 22.5q-6 12 -6 26l6 181q-55 -2 -155.5 -2.5t-154.5 -2.5q0 -285 5 -559 q287 10 653 -4q12 109 6 238q0 8 -2 26v78t16.5 56.5t51.5 21.5q27 -2 44 -18.5t23 -53t8 -63.5t2 -78v-18q0 -25 -4 -152q-2 -12 -1 -48t0 -61.5t-9 -39.5t-39 -22.5t-81 -8.5t-101 2t-124 5t-124 3q-129 0 -279.5 -4t-269.5 -4h-27.5t-27.5 -1t-25.5 0t-22.5 2t-19.5 5 t-15.5 10t-9 15.5t-4 21.5zM543 1696q-8 35 13.5 54t84.5 52q4 0 6 2l113 60q100 59 176 94q39 23 75 17.5t50 -52.5q16 -51 -10.5 -76.5t-110.5 -62.5l-217 -105q-6 -2 -20.5 -7t-21.5 -8t-21.5 -8t-22.5 -6t-19.5 -3t-19.5 -1t-17.5 4t-15.5 9t-12 15t-10 22z" />
<glyph unicode="&#xca;" horiz-adv-x="1421" d="M68 49q2 12 2 31q4 29 26.5 42t55 14t71.5 2t76 1q2 209 -1 614.5t1 573.5q-23 2 -64.5 2t-68.5 2t-54.5 9.5t-38 26.5t-3.5 50q8 35 54 45.5t134 10.5h893q27 0 42 -14.5t20.5 -40t7.5 -59.5t1 -73t1 -82q2 -39 3 -55t1 -48t-5 -47.5t-13.5 -34t-24 -25.5t-37.5 -7 q-43 2 -54.5 49t-9.5 172q2 55 -8 121h-633q-12 -236 0 -483q96 -6 314 0q0 10 2 57t5 67.5t10 51.5t20.5 44t35.5 15q47 2 61.5 -29.5t12.5 -88.5q-12 -313 -12 -422q0 -51 -57.5 -65.5t-79.5 22.5q-6 12 -6 26l6 181q-55 -2 -155.5 -2.5t-154.5 -2.5q0 -285 5 -559 q287 10 653 -4q12 109 6 238q0 8 -2 26v78t16.5 56.5t51.5 21.5q27 -2 44 -18.5t23 -53t8 -63.5t2 -78v-18q0 -25 -4 -152q-2 -12 -1 -48t0 -61.5t-9 -39.5t-39 -22.5t-81 -8.5t-101 2t-124 5t-124 3q-129 0 -279.5 -4t-269.5 -4h-27.5t-27.5 -1t-25.5 0t-22.5 2t-19.5 5 t-15.5 10t-9 15.5t-4 21.5zM263.5 1688q-1.5 18 12 33.5t24.5 23.5t38 24l270 156q61 39 135 0l254 -147q6 -4 19.5 -11.5t18.5 -10.5t15.5 -10t14.5 -11t10 -10.5t9 -11.5t6 -13q4 -16 -10.5 -43t-37.5 -33q-14 0 -19 -1t-25.5 6t-30 10t-34 14.5t-38.5 17.5 q-178 88 -219 105q-90 -35 -238 -111q-37 -16 -55 -23.5t-43 -14.5t-40 -2t-21 22q-14 23 -15.5 41z" />
<glyph unicode="&#xcb;" horiz-adv-x="1421" d="M68 49q2 12 2 31q4 29 26.5 42t55 14t71.5 2t76 1q2 209 -1 614.5t1 573.5q-23 2 -64.5 2t-68.5 2t-54.5 9.5t-38 26.5t-3.5 50q8 35 54 45.5t134 10.5h893q27 0 42 -14.5t20.5 -40t7.5 -59.5t1 -73t1 -82q2 -39 3 -55t1 -48t-5 -47.5t-13.5 -34t-24 -25.5t-37.5 -7 q-43 2 -54.5 49t-9.5 172q2 55 -8 121h-633q-12 -236 0 -483q96 -6 314 0q0 10 2 57t5 67.5t10 51.5t20.5 44t35.5 15q47 2 61.5 -29.5t12.5 -88.5q-12 -313 -12 -422q0 -51 -57.5 -65.5t-79.5 22.5q-6 12 -6 26l6 181q-55 -2 -155.5 -2.5t-154.5 -2.5q0 -285 5 -559 q287 10 653 -4q12 109 6 238q0 8 -2 26v78t16.5 56.5t51.5 21.5q27 -2 44 -18.5t23 -53t8 -63.5t2 -78v-18q0 -25 -4 -152q-2 -12 -1 -48t0 -61.5t-9 -39.5t-39 -22.5t-81 -8.5t-101 2t-124 5t-124 3q-129 0 -279.5 -4t-269.5 -4h-27.5t-27.5 -1t-25.5 0t-22.5 2t-19.5 5 t-15.5 10t-9 15.5t-4 21.5zM342 1804q12 62 80 78q45 10 83 -10.5t53 -55t7 -76.5t-43 -71q-78 -57 -141 8q-53 55 -39 127zM800 1750q-7 34 14.5 70t68.5 54q59 27 104 -15t43 -104.5t-53 -87.5q-45 -20 -86 -14t-62.5 34.5t-28.5 62.5z" />
<glyph unicode="&#xcc;" horiz-adv-x="741" d="M34.5 1917q20.5 47 53.5 51.5t72 -18.5q61 -27 176 -92q16 -10 33.5 -19.5t41 -21t38.5 -19.5q4 0 10 -4q63 -31 82.5 -49.5t11.5 -52.5q-6 -18 -14.5 -29.5t-20.5 -16t-22.5 -5.5t-28.5 3.5t-28.5 8.5t-33 13t-32.5 11q-96 43 -217 101q-86 37 -114 64.5t-7.5 74.5z M84 74q0 14 8 24.5t23.5 16.5t31 10t40 6t44 3t47 2t44.5 3q0 158 1 611.5t-1 584.5q-29 4 -79 4t-79 1t-52.5 15.5t-25.5 45.5q-2 55 29.5 68.5t105.5 9.5q201 -4 320 0q74 4 113.5 -8.5t39.5 -55.5q0 -27 -12 -43t-38 -22.5t-50.5 -8.5t-64.5 -3t-66 -3q-2 -662 4 -1194 q18 0 56 2t62.5 2t52.5 -4t43 -17t17 -38q2 -33 -4 -50.5t-24.5 -25.5t-57.5 -8t-119.5 -1t-136.5 -1h-28h-64.5t-56.5 2t-52.5 7t-37 12.5t-27.5 20.5t-6 32z" />
<glyph unicode="&#xcd;" horiz-adv-x="741" d="M63 74q0 14 8.5 24.5t24 16.5t30.5 10t39.5 6t44 3t47.5 2t44 3q0 158 1 611.5t-1 584.5q-29 4 -79 4t-78.5 1t-52 15.5t-25.5 45.5q-2 55 29.5 68.5t105.5 9.5q200 -4 319 0q74 4 114 -8.5t40 -55.5q0 -27 -12.5 -43t-38 -22.5t-50 -8.5t-64.5 -3t-67 -3 q-2 -662 4 -1194q18 0 56.5 2t63 2t52 -4t43 -17t17.5 -38q2 -33 -4 -50.5t-24.5 -25.5t-57.5 -8t-120 -1t-136 -1h-29h-64.5t-56 2t-52 7t-37 12.5t-28 20.5t-6.5 32zM240 1696q-10 35 12 54t86 52q2 0 4 2l113 60q100 59 176 94q39 23 74.5 17.5t50.5 -52.5 q18 -51 -8.5 -76.5t-110.5 -62.5l-219 -105q-6 -2 -22.5 -8t-23.5 -9t-22.5 -8t-25 -6t-22.5 -2t-21.5 2t-16.5 8t-14 15t-10 25z" />
<glyph unicode="&#xce;" horiz-adv-x="741" d="M-26.5 1675.5q-2.5 18.5 12 33.5t26 23.5t37.5 24.5l268 156q64 39 138 0l254 -148q6 -4 19 -11t18.5 -10t15.5 -10.5t14 -11.5t10.5 -10t9.5 -11t5 -13q2 -6 -1 -18.5t-9.5 -24t-16.5 -21.5t-20 -12q-16 0 -21.5 -1t-25 6t-28.5 10t-33.5 14.5t-39.5 17.5 q-178 88 -219 104q-90 -35 -237 -110q-37 -16 -55.5 -23.5t-44 -14.5t-40 -2t-22.5 21q-12 23 -14.5 41.5zM68 74q0 14 8 24.5t23.5 16.5t30.5 10t40 6t44 3t47 2t44 3q0 158 1 611.5t-1 584.5q-29 4 -79 4t-78.5 1t-52 15.5t-25.5 45.5q-2 55 29.5 68.5t105.5 9.5 q200 -4 319 0q74 4 114 -8.5t40 -55.5q0 -27 -12.5 -43t-38 -22.5t-50 -8.5t-64.5 -3t-67 -3q-2 -662 5 -1194q18 0 56 2t62.5 2t52 -4t43 -17t17.5 -38q2 -33 -4 -50.5t-24.5 -25.5t-57.5 -8t-120 -1t-136 -1h-29h-64.5t-56 2t-52 7t-37 12.5t-27.5 20.5t-6 32z" />
<glyph unicode="&#xcf;" horiz-adv-x="741" d="M51 1804q14 62 82 78q45 10 82 -10.5t53.5 -55t8 -76.5t-45.5 -71q-76 -57 -139 8q-55 55 -41 127zM78 74q0 14 8 24.5t23.5 16.5t31 10t40 6t44 3t47 2t43.5 3q0 158 1 611.5t-1 584.5q-29 4 -79 4t-78.5 1t-52 15.5t-25.5 45.5q-2 55 29.5 68.5t105.5 9.5q201 -4 320 0 q74 4 113.5 -8.5t39.5 -55.5q0 -27 -12 -43t-38 -22.5t-50.5 -8.5t-64.5 -3t-66 -3q-2 -662 4 -1194q18 0 56 2t62.5 2t52 -4t43 -17t17.5 -38q2 -33 -4 -50.5t-24.5 -25.5t-57.5 -8t-119.5 -1t-136.5 -1h-28h-64.5t-56.5 2t-52.5 7t-37 12.5t-27.5 20.5t-6 32zM509 1750 q-7 34 14.5 70t68.5 54q61 27 105 -15t43 -104.5t-54 -87.5q-45 -20 -85 -14t-62.5 34.5t-29.5 62.5z" />
<glyph unicode="&#xd0;" horiz-adv-x="1558" d="M51 752q-6 37 8.5 54t49.5 30q41 10 221 8q-2 240 -17 487q-25 2 -63.5 0t-60 -2t-46 5t-40 22.5t-23.5 46.5q-14 45 61 61q55 13 250 13h244q305 0 440 -68q125 -57 211 -180q106 -150 128 -407t-50 -464q-53 -156 -201 -258q-47 -33 -109.5 -55t-117.5 -32.5 t-141 -14.5t-138.5 -4t-153 3t-143.5 3q-115 0 -163 -4q-70 -8 -96.5 9.5t-26.5 66.5q0 27 9 40t33.5 19t46 6h70t80.5 2q18 248 19 555l-37 2q-12 0 -38 -1t-40 -1t-35.5 1t-35 2t-30 3t-25.5 6.5t-18.5 10.5t-14.5 14t-7 21zM461 137q133 -10 281.5 -5t238.5 36 q135 47 211 180t82 336q6 154 -29 281t-115.5 218t-203.5 128q-37 10 -77 16t-93.5 8t-87 2t-105 -1t-102.5 -1q12 -172 14 -495l146 -4h34q37 0 56.5 -1t51.5 -3.5t49 -6.5t36.5 -12t28 -20.5t10.5 -28.5q0 -47 -35 -60.5t-109 -13.5l-266 4q-2 -332 -16 -557z" />
<glyph unicode="&#xd1;" horiz-adv-x="1579" d="M76 63q-2 29 8 46.5t36.5 23.5t49.5 8t63.5 2h63.5q4 209 0 467v217.5v221.5l-2 280q-23 4 -67 1t-69.5 -3t-48 18.5t-22.5 59.5q0 47 34 57.5t122 10.5h26q152 0 170 -9q14 -6 31.5 -25.5t29 -37t32 -52t30.5 -49.5q43 -72 129 -218t146 -238l260 -434q72 -117 110 -230 q-18 158 -20 250q0 25 -2 331t-2 329v75.5v84.5v75h-53.5t-48 -1t-39 1t-34 6t-23.5 13.5t-16 23.5t-5 37q0 16 9 28.5t24.5 19.5t38 12t49 6.5t57.5 2.5t63 -1h19.5h19h19.5h157q63 0 90 -15.5t23 -68.5q0 -20 -12.5 -34t-36 -19t-46 -7t-58 -3t-56.5 -3v-227 q2 -190 0 -338v-167t1 -158.5t3 -156t2 -157.5q0 -49 -4 -78t-23.5 -50.5t-54.5 -23.5q-8 0 -15 2t-13.5 4t-14.5 8.5t-13 11.5t-13.5 15t-13.5 17.5t-14 19.5t-15.5 21.5t-16.5 26t-18 26.5q-53 84 -320 532q-84 141 -260 418q-70 111 -102 225q14 -106 16 -252 q4 -225 4 -899q23 -2 64 -3t64.5 -3t50 -9t38 -23.5t9.5 -43.5q-2 -12 -6.5 -22t-13.5 -17.5t-17 -12.5t-23.5 -8t-26 -5t-31 -1t-32.5 1t-36.5 1t-37.5 1q-33 0 -85 2t-88 2h-62h-23.5h-22.5h-19.5t-18.5 2t-14.5 5t-13.5 7t-8 10.5t-7 15.5t-4 21zM432 1671q-74 53 37 166 q80 80 193 80q66 2 162 -57.5t134 -61.5q68 -8 125 57q20 20 27.5 28.5t23 19t25.5 9.5t23 -11q31 -27 35 -55.5t-10.5 -56.5t-47.5 -63q-47 -51 -114.5 -69.5t-135.5 -1.5q-39 8 -74.5 24.5t-72.5 38t-55 29.5q-78 43 -164 -39l-14.5 -14.5t-17.5 -15.5t-16.5 -11t-19.5 -8 t-19.5 2t-23.5 10z" />
<glyph unicode="&#xd2;" horiz-adv-x="1513" d="M153.5 601q-20.5 192 26.5 382q35 141 114 261t191 190q117 72 275.5 80.5t283.5 -54.5q193 -98 295 -342q43 -104 58.5 -251.5t1.5 -278.5q-10 -90 -37 -177t-74 -172t-122.5 -150.5t-170.5 -98.5q-139 -43 -285.5 -28t-246.5 79q-57 35 -114.5 95.5t-96.5 133.5 q-78 139 -98.5 331zM307.5 877.5q-28.5 -160.5 4 -330.5t128.5 -287q78 -92 207 -135q139 -39 254 -9.5t193 109.5q94 100 136 274.5t23.5 350.5t-88.5 293q-104 170 -272 215q-150 37 -279 -24.5t-203.5 -178.5t-103 -277.5zM461.5 1925q21.5 47 53.5 51.5t71 -18.5 q61 -27 176 -92q14 -8 28.5 -15.5t25.5 -13.5t28.5 -14t29.5 -17q4 0 11 -4q63 -31 82.5 -49t11.5 -53q-4 -16 -12.5 -26.5t-15.5 -16.5t-19 -7t-22.5 0t-27 6t-26.5 8t-28.5 11t-28.5 11q-96 43 -217 100q-86 37 -114 64.5t-6.5 74.5z" />
<glyph unicode="&#xd3;" horiz-adv-x="1513" d="M153.5 601q-20.5 192 26.5 382q35 141 114 261t191 190q117 72 275.5 80.5t283.5 -54.5q193 -98 295 -342q43 -104 58.5 -251.5t1.5 -278.5q-10 -90 -37 -177t-74 -172t-122.5 -150.5t-170.5 -98.5q-139 -43 -285.5 -28t-246.5 79q-57 35 -114.5 95.5t-96.5 133.5 q-78 139 -98.5 331zM307.5 877.5q-28.5 -160.5 4 -330.5t128.5 -287q78 -92 207 -135q139 -39 254 -9.5t193 109.5q94 100 136 274.5t23.5 350.5t-88.5 293q-104 170 -272 215q-150 37 -279 -24.5t-203.5 -178.5t-103 -277.5zM664 1704q-8 35 14 54.5t86 51.5q2 0 4 2 l113 60q100 59 176 94q39 23 74.5 17.5t50.5 -52.5q16 -51 -10.5 -76.5t-110.5 -62.5l-217 -104q-6 -2 -20.5 -7.5t-21.5 -8.5t-20.5 -8t-21.5 -6t-20.5 -3t-20.5 -1t-17.5 4t-15.5 9t-12 15.5t-10 21.5z" />
<glyph unicode="&#xd4;" horiz-adv-x="1513" d="M153.5 601q-20.5 192 26.5 382q35 141 114 261t191 190q117 72 275.5 80.5t283.5 -54.5q193 -98 295 -342q43 -104 58.5 -251.5t1.5 -278.5q-10 -90 -37 -177t-74 -172t-122.5 -150.5t-170.5 -98.5q-139 -43 -285.5 -28t-246.5 79q-57 35 -114.5 95.5t-96.5 133.5 q-78 139 -98.5 331zM307.5 877.5q-28.5 -160.5 4 -330.5t128.5 -287q78 -92 207 -135q139 -39 254 -9.5t193 109.5q94 100 136 274.5t23.5 350.5t-88.5 293q-104 170 -272 215q-150 37 -279 -24.5t-203.5 -178.5t-103 -277.5zM383 1702q-2 18 11.5 33.5t24.5 23.5t40 25 l268 155q61 39 135 0l256 -147q4 -4 17.5 -11t18.5 -10.5t15.5 -10.5t15.5 -11t10 -10t8 -11.5t5 -11.5q4 -18 -10 -44.5t-35 -33.5q-16 0 -21 -1t-24.5 6.5t-30 10.5t-35 14t-38.5 18q-176 88 -219 104q-90 -35 -238 -111q-37 -16 -54.5 -23t-43 -14.5t-39.5 -2t-23 21.5 q-12 23 -14 41z" />
<glyph unicode="&#xd5;" horiz-adv-x="1513" d="M153.5 601q-20.5 192 26.5 382q35 141 114 261t191 190q117 72 275.5 80.5t283.5 -54.5q193 -98 295 -342q43 -104 58.5 -251.5t1.5 -278.5q-10 -90 -37 -177t-74 -172t-122.5 -150.5t-170.5 -98.5q-139 -43 -285.5 -28t-246.5 79q-57 35 -114.5 95.5t-96.5 133.5 q-78 139 -98.5 331zM307.5 877.5q-28.5 -160.5 4 -330.5t128.5 -287q78 -92 207 -135q139 -39 254 -9.5t193 109.5q94 100 136 274.5t23.5 350.5t-88.5 293q-104 170 -272 215q-150 37 -279 -24.5t-203.5 -178.5t-103 -277.5zM434 1704q-76 53 35 166q82 80 193 80 q41 2 83.5 -15.5t74.5 -40t71 -42t67 -21.5q70 -8 125 57q20 20 27.5 28.5t23 19t26.5 9.5t22 -12q31 -27 35 -55.5t-10.5 -56t-47.5 -62.5q-47 -51 -114.5 -69.5t-135.5 -1.5q-39 8 -74.5 24.5t-72.5 38t-53 29.5q-80 43 -164 -39q-2 -2 -15.5 -14.5t-18.5 -15.5t-16.5 -11 t-19.5 -8t-19.5 2t-21.5 10z" />
<glyph unicode="&#xd6;" horiz-adv-x="1513" d="M153.5 601q-20.5 192 26.5 382q35 141 114 261t191 190q117 72 275.5 80.5t283.5 -54.5q193 -98 295 -342q43 -104 58.5 -251.5t1.5 -278.5q-10 -90 -37 -177t-74 -172t-122.5 -150.5t-170.5 -98.5q-139 -43 -285.5 -28t-246.5 79q-57 35 -114.5 95.5t-96.5 133.5 q-78 139 -98.5 331zM307.5 877.5q-28.5 -160.5 4 -330.5t128.5 -287q78 -92 207 -135q139 -39 254 -9.5t193 109.5q94 100 136 274.5t23.5 350.5t-88.5 293q-104 170 -272 215q-150 37 -279 -24.5t-203.5 -178.5t-103 -277.5zM453 1804q13 62 79 78q47 10 84 -10.5t52.5 -55 t7.5 -76.5t-43 -71q-78 -57 -141 8q-53 55 -39 127zM910.5 1750q-7.5 34 14 70t68.5 54q61 27 105.5 -15t43.5 -104.5t-55 -87.5q-45 -20 -85.5 -14t-62 34.5t-29 62.5z" />
<glyph unicode="&#xd7;" horiz-adv-x="937" d="M78 268q-2 12 8 28.5t30.5 39t22.5 29.5q16 18 221 249q-76 96 -213 244q-2 2 -23.5 24.5t-33.5 40t-12 35.5q0 25 25.5 50.5t50.5 27.5q33 2 98 -75l211 -236q29 29 61.5 67.5t75.5 91t68 81.5q2 4 10 14t13 17.5t14.5 15.5t15.5 14t14.5 11t16.5 7q25 6 57.5 -16 t34.5 -41q2 -8 0 -16t-6 -17.5t-8.5 -16.5t-11.5 -17.5t-11 -15.5t-12.5 -15t-10.5 -12q-170 -203 -229 -259q25 -25 54.5 -54t52 -53t52 -53.5t52.5 -51.5q10 -10 25.5 -23.5t26.5 -24t22.5 -22.5t17.5 -24.5t8 -24.5q0 -23 -20.5 -50.5t-42.5 -29.5h-19.5t-17.5 5 t-16.5 10t-13.5 12.5t-12 12.5t-11 12t-11 11q-33 35 -78.5 79t-88.5 84t-72 71q-150 -160 -207 -232q-61 -76 -98 -75q-27 0 -54.5 25.5t-25.5 45.5z" />
<glyph unicode="&#xd8;" horiz-adv-x="1527" d="M153.5 601q-20.5 192 26.5 382q35 141 114 261t191 190q117 72 276 81t283 -55q27 -14 54 -30q10 16 25.5 38.5t27.5 43t25.5 41t27 39t23.5 30.5q43 55 94 -8q6 -12 7 -26.5t-3 -30t-10 -31t-16.5 -33.5t-19.5 -32.5t-21.5 -34t-20.5 -31.5l-35 -56q80 -86 137 -221 q43 -104 58.5 -251.5t1.5 -278.5q-10 -90 -37 -177t-74 -172t-122.5 -150.5t-170.5 -98.5q-139 -43 -285.5 -28t-246.5 79q-20 12 -41 29q0 -2 -57 -103q-23 -33 -38.5 -52t-42 -39.5t-48.5 -18.5q-23 4 -36.5 12t-14.5 24.5t1 31t14.5 41t21.5 42t26 43.5q6 10 10 17 q12 20 59 104q-39 47 -65 98q-78 139 -98.5 331zM294.5 746.5q-8.5 -240.5 108.5 -435.5l99 160q12 25 61 100.5t76 120.5l375 611q-55 39 -119 55q-152 37 -281 -24.5t-202 -178.5q-109 -168 -117.5 -408.5zM504 199q59 -47 143 -74q139 -39 254 -9.5t193 109.5 q94 100 136 274.5t23.5 350.5t-88.5 293q-20 33 -43 61l-288 -471q-23 -33 -57 -87t-63.5 -102t-54.5 -91l-18 -31z" />
<glyph unicode="&#xd9;" horiz-adv-x="1456" d="M29 1384q-10 43 3 63.5t54 27.5q51 8 82 7t94.5 -5t97.5 -4h41h40.5h38t36.5 -2.5t30.5 -5.5t27 -7t20.5 -11t14 -17.5t6 -22.5q2 -27 -11 -43t-36.5 -21.5t-54.5 -8.5t-63.5 -1t-63.5 -2q0 -68 -7 -446.5t3 -435.5q10 -197 115 -281q76 -59 196.5 -72.5t229 28.5 t143.5 130q29 76 33 197.5t-4 246.5q-8 369 4 627h-54.5t-53 -1t-47 2t-37 11.5t-25 27.5t-9.5 48q0 12 5.5 21.5t16.5 15.5t23.5 10t31 6t35.5 3t41 1h42h45h43h139h15q35 0 51 -1t38.5 -5t32 -11t16.5 -21.5t7 -36.5q0 -23 -12 -36t-36 -19.5t-46.5 -7.5t-57 -2t-57.5 -3 q-12 -238 -8 -526q2 -29 4 -103.5t3 -109.5t0 -98.5t-5 -101.5t-11 -87t-20.5 -87t-31.5 -71q-57 -94 -176 -145t-247 -49t-250 51t-184 135q-68 96 -81 258q-4 70 -7.5 150t-2.5 153.5t2 158.5t4.5 158.5t4.5 162t1 159.5q-20 2 -83 5t-93.5 12.5t-34.5 31.5zM403.5 1896.5 q20.5 47.5 53 51.5t71.5 -19q61 -27 177 -92q16 -10 33.5 -19.5t41 -20.5t37.5 -19q4 0 10 -4q63 -31 83 -49.5t12 -53.5q-6 -16 -13.5 -26.5t-15.5 -16.5t-20.5 -7t-21.5 0t-25.5 6t-27 8t-28.5 11.5t-29 10.5q-96 43 -217 100q-86 37 -113.5 64.5t-7 75z" />
<glyph unicode="&#xda;" horiz-adv-x="1456" d="M29 1384q-10 43 3 63.5t54 27.5q51 8 82 7t94.5 -5t97.5 -4h41h40.5h38t36.5 -2.5t30.5 -5.5t27 -7t20.5 -11t14 -17.5t6 -22.5q2 -27 -11 -43t-36.5 -21.5t-54.5 -8.5t-63.5 -1t-63.5 -2q0 -68 -7 -446.5t3 -435.5q10 -197 115 -281q76 -59 196.5 -72.5t229 28.5 t143.5 130q29 76 33 197.5t-4 246.5q-8 369 4 627h-54.5t-53 -1t-47 2t-37 11.5t-25 27.5t-9.5 48q0 12 5.5 21.5t16.5 15.5t23.5 10t31 6t35.5 3t41 1h42h45h43h139h15q35 0 51 -1t38.5 -5t32 -11t16.5 -21.5t7 -36.5q0 -23 -12 -36t-36 -19.5t-46.5 -7.5t-57 -2t-57.5 -3 q-12 -238 -8 -526q2 -29 4 -103.5t3 -109.5t0 -98.5t-5 -101.5t-11 -87t-20.5 -87t-31.5 -71q-57 -94 -176 -145t-247 -49t-250 51t-184 135q-68 96 -81 258q-4 70 -7.5 150t-2.5 153.5t2 158.5t4.5 158.5t4.5 162t1 159.5q-20 2 -83 5t-93.5 12.5t-34.5 31.5zM602 1675 q-10 35 12.5 54.5t85.5 52.5q2 0 5 2l112 59q100 59 176 94q39 23 75 18t50 -52q16 -51 -10.5 -77t-108.5 -63l-219 -104q-6 -2 -22.5 -8t-24.5 -9.5t-23.5 -8.5t-23.5 -6t-21.5 -2t-21.5 2t-17.5 8t-15.5 15.5t-8 24.5z" />
<glyph unicode="&#xdb;" horiz-adv-x="1456" d="M29 1384q-10 43 3 63.5t54 27.5q51 8 82 7t94.5 -5t97.5 -4h41h40.5h38t36.5 -2.5t30.5 -5.5t27 -7t20.5 -11t14 -17.5t6 -22.5q2 -27 -11 -43t-36.5 -21.5t-54.5 -8.5t-63.5 -1t-63.5 -2q0 -68 -7 -446.5t3 -435.5q10 -197 115 -281q76 -59 196.5 -72.5t229 28.5 t143.5 130q29 76 33 197.5t-4 246.5q-8 369 4 627h-54.5t-53 -1t-47 2t-37 11.5t-25 27.5t-9.5 48q0 12 5.5 21.5t16.5 15.5t23.5 10t31 6t35.5 3t41 1h42h45h43h139h15q35 0 51 -1t38.5 -5t32 -11t16.5 -21.5t7 -36.5q0 -23 -12 -36t-36 -19.5t-46.5 -7.5t-57 -2t-57.5 -3 q-12 -238 -8 -526q2 -29 4 -103.5t3 -109.5t0 -98.5t-5 -101.5t-11 -87t-20.5 -87t-31.5 -71q-57 -94 -176 -145t-247 -49t-250 51t-184 135q-68 96 -81 258q-4 70 -7.5 150t-2.5 153.5t2 158.5t4.5 158.5t4.5 162t1 159.5q-20 2 -83 5t-93.5 12.5t-34.5 31.5zM326 1688 q-2 18 11 33.5t24.5 23.5t39.5 24l269 156q61 39 135 0l256 -147q4 -4 17.5 -11.5t18.5 -10.5t15 -10t15.5 -11t10.5 -10.5t8 -11.5t5 -13q4 -16 -10.5 -43t-34.5 -33q-16 0 -21.5 -1t-25 6t-29.5 10t-34.5 14.5t-39.5 17.5q-176 88 -219 105q-90 -35 -237 -111 q-37 -16 -54.5 -23.5t-43 -14.5t-40 -2t-22.5 22q-12 23 -14 41z" />
<glyph unicode="&#xdc;" horiz-adv-x="1456" d="M29 1384q-10 43 3 63.5t54 27.5q51 8 82 7t94.5 -5t97.5 -4h41h40.5h38t36.5 -2.5t30.5 -5.5t27 -7t20.5 -11t14 -17.5t6 -22.5q2 -27 -11 -43t-36.5 -21.5t-54.5 -8.5t-63.5 -1t-63.5 -2q0 -68 -7 -446.5t3 -435.5q10 -197 115 -281q76 -59 196.5 -72.5t229 28.5 t143.5 130q29 76 33 197.5t-4 246.5q-8 369 4 627h-54.5t-53 -1t-47 2t-37 11.5t-25 27.5t-9.5 48q0 12 5.5 21.5t16.5 15.5t23.5 10t31 6t35.5 3t41 1h42h45h43h139h15q35 0 51 -1t38.5 -5t32 -11t16.5 -21.5t7 -36.5q0 -23 -12 -36t-36 -19.5t-46.5 -7.5t-57 -2t-57.5 -3 q-12 -238 -8 -526q2 -29 4 -103.5t3 -109.5t0 -98.5t-5 -101.5t-11 -87t-20.5 -87t-31.5 -71q-57 -94 -176 -145t-247 -49t-250 51t-184 135q-68 96 -81 258q-4 70 -7.5 150t-2.5 153.5t2 158.5t4.5 158.5t4.5 162t1 159.5q-20 2 -83 5t-93.5 12.5t-34.5 31.5zM403 1804 q14 62 80 78q47 10 84 -10.5t52.5 -55t7 -76.5t-42.5 -71q-78 -57 -142 8q-53 55 -39 127zM861 1750q-7 34 14.5 70t68.5 54q61 27 105.5 -15t43.5 -104.5t-55 -87.5q-45 -20 -86 -14t-62.5 34.5t-28.5 62.5z" />
<glyph unicode="&#xdd;" horiz-adv-x="1247" d="M-38 1411.5q1 13.5 7 23t10.5 15.5t15.5 10t17 6t23.5 3t24 1h29h30.5h295q43 0 62.5 -19t19.5 -58q-2 -18 -6.5 -30.5t-15.5 -20t-22.5 -11.5t-33 -5t-39 -1h-48h-52.5q14 -10 38.5 -47t66.5 -111.5t62 -107.5q23 -39 58 -95.5t54.5 -89t41 -70.5t31.5 -63.5t10 -44.5 q2 16 8 36t14.5 38t23.5 46t27.5 50.5t33 58.5t36.5 62q20 39 50 94.5t50.5 93t42 75.5t38 58.5t28.5 22.5q-23 4 -52.5 2t-63 0t-61.5 7.5t-47 21.5t-19 43q0 45 37.5 57.5t117.5 12.5h213h19h57t43 -4.5t36 -11.5t19 -21.5t8 -36.5q0 -25 -8 -39t-29.5 -20.5t-37 -8.5 t-50 -2t-49.5 -2q-57 -111 -126.5 -233.5t-162 -284.5t-124.5 -221q0 -55 -1 -114.5t-1 -105.5t-1 -106.5t-1 -116.5q25 -4 65.5 -6t70 -4t58.5 -9t42 -24.5t7 -46.5q-4 -16 -14 -27.5t-29.5 -16.5t-39 -9t-51.5 -4h-55.5t-62 1t-61.5 1h-60.5h-62t-55.5 1t-50.5 5t-38 11.5 t-27.5 20.5t-9 30q0 29 12 46t35 22t52.5 7t62 0t67.5 2q0 55 2 151.5t2 162.5v129l-55 98l-385 637q-25 2 -48.5 1t-45 0t-36.5 5t-25.5 17.5t-10.5 35.5q-2 14 -1 27.5zM434 1675q-10 35 12.5 54.5t85.5 52.5q2 0 5 2l112 59q100 59 176 94q39 23 75 18t50 -52 q16 -51 -10.5 -77t-108.5 -63l-219 -104q-6 -2 -22.5 -8t-24.5 -9.5t-23.5 -8.5t-23.5 -6t-21.5 -2t-21.5 2t-17 8t-15.5 15.5t-8.5 24.5z" />
<glyph unicode="&#xde;" horiz-adv-x="1323" d="M63 1421q0 43 115 49q11 1 189 5h30q174 4 232.5 -5.5t60.5 -54.5q0 -16 -6 -27.5t-20.5 -17.5t-28.5 -11t-40 -7t-43 -3t-47 -2t-46 -1v-164q45 -2 105.5 -1t113.5 2t113.5 -3t107.5 -13q131 -25 223 -102.5t121 -196.5q23 -94 8.5 -199.5t-67.5 -185.5 q-96 -145 -301 -161q-55 -8 -210 -3t-220 3q-4 -43 -4 -195q25 -4 64.5 -6t69 -4t57.5 -8.5t42 -20.5t12 -37q-6 -47 -54 -55t-138 0q-248 4 -273 4q-10 -2 -26.5 -2h-23.5h-20.5t-19.5 1t-15 2t-14.5 4t-11.5 8t-9 11.5t-5 14.5t-2 18q0 27 13.5 42.5t46 21.5t58 8t74.5 2 q20 2 29 2q2 170 5 576.5t7 636.5q-18 0 -63 -1.5t-69.5 0t-56.5 7.5t-47.5 23.5t-15.5 45.5zM449 463q43 0 119.5 -3t126.5 -4t110.5 2t110 15t85.5 35q61 37 90 117t18 167t-56 146q-33 39 -80 63.5t-116 31.5t-119 9t-144 -1t-139 -3q0 -330 -6 -575z" />
<glyph unicode="&#xdf;" horiz-adv-x="1232" d="M53 74q0 20 8.5 33.5t17.5 19.5t29.5 8t34 2t40 -1t38.5 -1q16 170 2 510t2 485q14 119 59.5 205t113 131t137 68t151.5 25q156 6 259.5 -61.5t105.5 -174.5q0 -16 -2 -32.5t-10.5 -34t-12.5 -28.5t-19.5 -29.5t-21.5 -26t-26.5 -27t-25.5 -24.5t-30.5 -26.5t-28.5 -25.5 q-123 -109 -122 -176q0 -35 42 -79t101 -94t117.5 -109.5t100.5 -143.5t42 -178q2 -152 -87 -239t-237 -87q-180 0 -274 111q-39 47 -51 103t10 106q18 37 61.5 50t82 -7.5t42.5 -69.5q2 -20 -5 -36.5t-20 -28t-30 -17.5q61 -82 182 -80q82 0 133.5 51.5t51.5 141.5 q-2 66 -45 131t-103.5 120.5t-122 109.5t-103.5 117.5t-42 127.5q0 68 35 123t106 119q55 49 79 70.5t51.5 56t29.5 59.5q-10 45 -67.5 72.5t-137.5 23.5q-119 -4 -199.5 -62.5t-107.5 -166.5q-25 -96 -27 -263t9 -307q12 -260 2 -436q-6 -139 -19 -162q-6 -10 -18 -16 t-31.5 -7t-36 -1t-40 1t-36.5 1q-35 0 -50 1t-36.5 5t-31 12.5t-15.5 21.5t-4 36z" />
<glyph unicode="&#xe0;" horiz-adv-x="1110" d="M111 197q-8 190 202 299q57 31 134 56.5t140.5 49t104.5 47.5q68 43 58 107q-8 57 -70 91t-154 34q-154 2 -219 -84q39 -43 23.5 -93.5t-68.5 -60.5q-45 -12 -80 17.5t-35 82.5q2 119 113.5 188t261.5 73q262 4 346 -168q20 -39 31.5 -85t12.5 -112t1 -106.5t-5 -131 t-7 -125.5v-12q0 -25 -1 -38t0 -36.5t5 -37t10.5 -28.5t17.5 -22.5t28 -7.5q47 0 59 62q0 4 9 4t19.5 -5t18.5 -16q25 -39 2.5 -92t-78.5 -74q-33 -14 -83 -8t-85 37t-48 88t1 143q-49 -127 -143 -200.5t-227 -75.5q-76 -2 -138.5 20.5t-106.5 79t-50 140.5zM224 1438.5 q-13 27.5 16 74.5q20 29 42.5 34t41 -4t49.5 -32q41 -35 114 -110q12 -12 43 -41t48 -45q23 -20 35 -32.5t24 -28t17 -26.5t4 -24.5t-7 -25.5q-8 -16 -19 -24.5t-24.5 -8.5t-25 2t-27.5 11t-26.5 16.5t-29 20.5t-26.5 17l-166 144q-70 55 -83 82.5zM266 215 q6 -68 52.5 -99.5t115.5 -29.5q176 6 295 225q47 94 43 291q-18 -47 -82.5 -81t-162 -67.5t-144.5 -60.5q-123 -74 -117 -178z" />
<glyph unicode="&#xe1;" horiz-adv-x="1110" d="M111 197q-8 190 202 299q57 31 134 56.5t140.5 49t104.5 47.5q68 43 58 107q-8 57 -70 91t-154 34q-154 2 -219 -84q39 -43 23.5 -93.5t-68.5 -60.5q-45 -12 -80 17.5t-35 82.5q2 119 113.5 188t261.5 73q262 4 346 -168q20 -39 31.5 -85t12.5 -112t1 -106.5t-5 -131 t-7 -125.5v-12q0 -25 -1 -38t0 -36.5t5 -37t10.5 -28.5t17.5 -22.5t28 -7.5q47 0 59 62q0 4 9 4t19.5 -5t18.5 -16q25 -39 2.5 -92t-78.5 -74q-33 -14 -83 -8t-85 37t-48 88t1 143q-49 -127 -143 -200.5t-227 -75.5q-76 -2 -138.5 20.5t-106.5 79t-50 140.5zM266 215 q6 -68 52.5 -99.5t115.5 -29.5q176 6 295 225q47 94 43 291q-18 -47 -82.5 -81t-162 -67.5t-144.5 -60.5q-123 -74 -117 -178zM436 1198q-2 10 2 21.5t9.5 20.5t17.5 22.5t23.5 23.5t29.5 29q16 16 46 43.5t44 42.5q74 78 115 110q29 23 47 32t42 4t44 -34 q27 -47 13.5 -74.5t-83.5 -82.5l-165 -144q-8 -4 -22.5 -15t-25 -17t-23.5 -15.5t-24.5 -13.5t-24 -6t-21.5 0t-19 10t-19 23q-4 10 -6 20z" />
<glyph unicode="&#xe2;" horiz-adv-x="1110" d="M111 197q-8 190 202 299q57 31 134 56.5t140.5 49t104.5 47.5q68 43 58 107q-8 57 -70 91t-154 34q-154 2 -219 -84q39 -43 23.5 -93.5t-68.5 -60.5q-45 -12 -80 17.5t-35 82.5q2 119 113.5 188t261.5 73q262 4 346 -168q20 -39 31.5 -85t12.5 -112t1 -106.5t-5 -131 t-7 -125.5v-12q0 -25 -1 -38t0 -36.5t5 -37t10.5 -28.5t17.5 -22.5t28 -7.5q47 0 59 62q0 4 9 4t19.5 -5t18.5 -16q25 -39 2.5 -92t-78.5 -74q-33 -14 -83 -8t-85 37t-48 88t1 143q-49 -127 -143 -200.5t-227 -75.5q-76 -2 -138.5 20.5t-106.5 79t-50 140.5zM213 1124 q-66 55 16 131l99 93q96 94 149 137q64 51 121 2l211 -203q2 -2 14.5 -13t17.5 -17.5t15 -16.5t15.5 -17.5t12.5 -17.5t10 -18t3 -17q0 -16 -20.5 -35.5t-40.5 -21.5q-6 0 -11.5 1t-10.5 2t-12 5t-11.5 7t-13.5 9.5t-14 10.5t-16.5 13t-17.5 13q-16 14 -61 56.5t-74 67 t-57 44.5q-61 -41 -213 -178q-23 -16 -33 -23.5t-27.5 -15.5t-29 -7t-21.5 9zM266 215q6 -68 52.5 -99.5t115.5 -29.5q176 6 295 225q47 94 43 291q-18 -47 -82.5 -81t-162 -67.5t-144.5 -60.5q-123 -74 -117 -178z" />
<glyph unicode="&#xe3;" horiz-adv-x="1110" d="M111 197q-8 190 202 299q57 31 134 56.5t140.5 49t104.5 47.5q68 43 58 107q-8 57 -70 91t-154 34q-154 2 -219 -84q39 -43 23.5 -93.5t-68.5 -60.5q-45 -12 -80 17.5t-35 82.5q2 119 113.5 188t261.5 73q262 4 346 -168q20 -39 31.5 -85t12.5 -112t1 -106.5t-5 -131 t-7 -125.5v-12q0 -25 -1 -38t0 -36.5t5 -37t10.5 -28.5t17.5 -22.5t28 -7.5q47 0 59 62q0 4 9 4t19.5 -5t18.5 -16q25 -39 2.5 -92t-78.5 -74q-33 -14 -83 -8t-85 37t-48 88t1 143q-49 -127 -143 -200.5t-227 -75.5q-76 -2 -138.5 20.5t-106.5 79t-50 140.5zM186.5 1259.5 q8.5 30.5 23.5 60.5t36 56q70 94 168 94q39 0 78.5 -24.5t66.5 -52t56.5 -51t50.5 -23.5q49 0 90 78l13 19.5t12 18.5t11.5 15t13.5 11t14.5 5t15.5 -2q98 -27 6 -188q-63 -111 -166 -111q-43 0 -86 24.5t-72 53.5t-57.5 53.5t-46.5 24.5q-47 0 -90 -70q-2 -4 -10.5 -14 t-11.5 -14t-10 -14.5t-10 -12.5t-11.5 -9t-12.5 -7t-12 -3t-15 1q-33 6 -43 28.5t-1.5 53zM266 215q6 -68 52.5 -99.5t115.5 -29.5q176 6 295 225q47 94 43 291q-18 -47 -82.5 -81t-162 -67.5t-144.5 -60.5q-123 -74 -117 -178z" />
<glyph unicode="&#xe4;" horiz-adv-x="1110" d="M111 197q-8 190 202 299q57 31 134 56.5t140.5 49t104.5 47.5q68 43 58 107q-8 57 -70 91t-154 34q-154 2 -219 -84q39 -43 23.5 -93.5t-68.5 -60.5q-45 -12 -80 17.5t-35 82.5q2 119 113.5 188t261.5 73q262 4 346 -168q20 -39 31.5 -85t12.5 -112t1 -106.5t-5 -131 t-7 -125.5v-12q0 -25 -1 -38t0 -36.5t5 -37t10.5 -28.5t17.5 -22.5t28 -7.5q47 0 59 62q0 4 9 4t19.5 -5t18.5 -16q25 -39 2.5 -92t-78.5 -74q-33 -14 -83 -8t-85 37t-48 88t1 143q-49 -127 -143 -200.5t-227 -75.5q-76 -2 -138.5 20.5t-106.5 79t-50 140.5zM256 1323 q22 55 88 61q61 6 101 -35.5t32 -99t-65 -90.5q-86 -45 -140 29q-45 66 -16 135zM266 215q6 -68 52.5 -99.5t115.5 -29.5q176 6 295 225q47 94 43 291q-18 -47 -82.5 -81t-162 -67.5t-144.5 -60.5q-123 -74 -117 -178zM639 1307q19 49 74 67q66 25 109.5 -15t39.5 -100.5 t-53 -91.5q-88 -53 -147 17q-49 55 -23 123z" />
<glyph unicode="&#xe5;" horiz-adv-x="1110" d="M111 197q-8 190 202 299q57 31 134 56.5t140.5 49t104.5 47.5q68 43 58 107q-8 57 -70 91t-154 34q-154 2 -219 -84q39 -43 23.5 -93.5t-68.5 -62.5q-45 -10 -80 19.5t-35 82.5q2 59 34 109.5t85 82.5t118.5 49t137.5 17q262 6 346 -165q20 -39 31.5 -85t12.5 -112 t1 -106.5t-5 -131t-7 -125.5v-12q0 -25 -1 -38t0 -36.5t5 -37t10.5 -28.5t17.5 -22.5t28 -7.5q47 0 59 62q0 4 9 4t19.5 -5t18.5 -16q25 -39 2.5 -92t-78.5 -74q-33 -14 -83 -8t-85 37t-48 88t1 141q-49 -125 -143 -198.5t-227 -75.5q-76 -2 -138.5 20.5t-106.5 79 t-50 140.5zM266 215q6 -68 52.5 -99.5t115.5 -29.5q176 6 295 225q47 94 43 291q-18 -47 -82.5 -81t-162 -67.5t-144.5 -60.5q-123 -74 -117 -178zM301 1315q-23 125 59 225q68 82 181 82q162 0 225 -137q45 -113 14.5 -205t-108.5 -135q-72 -39 -158 -29t-139 64 q-57 51 -74 135zM428 1319q18 -49 61 -74q27 -16 61 -16t58 16q29 18 47.5 53t14.5 80q-9 80 -68 115q-45 25 -99 4.5t-73 -74.5q-20 -55 -2 -104z" />
<glyph unicode="&#xe6;" horiz-adv-x="1636" d="M109 219q2 121 62 192.5t134 104.5q57 27 127 48.5t128 40t97 38.5q74 45 60 129q-10 68 -94 92.5t-175.5 2t-123.5 -73.5q33 -43 20 -88q-10 -31 -39 -49.5t-69 -8.5q-45 8 -61.5 63.5t3.5 112.5q16 45 59.5 82t99.5 58.5t121.5 33t129 3t116 -31t87 -67.5t40.5 -106 q119 204 332 204q152 2 252.5 -88t124.5 -209q37 -201 -12 -239q-29 -23 -182 -25q-57 -2 -233.5 1t-225.5 -1q0 -78 18.5 -141.5t52 -108.5t82.5 -65q90 -41 199 -18.5t172 96.5q35 29 68.5 25.5t48.5 -42.5q12 -33 -1.5 -60.5t-56.5 -66.5q-88 -76 -237.5 -92t-253.5 35 q-150 72 -193 250q-53 -100 -98 -148q-135 -135 -299 -141q-80 -4 -137 17.5t-88 61.5t-44.5 85t-10.5 94zM266 233q0 -61 30 -97t71 -39t79 1q129 27 218 177.5t75 306.5q-31 -49 -102 -74q-14 -4 -41 -12q-57 -18 -84 -27.5t-70 -26t-62.5 -29t-46 -32t-37.5 -39.5 t-20.5 -48t-9.5 -61zM887 567q80 4 255 2t257 0q0 94 -28 160t-83 100.5t-135 34.5q-72 0 -130 -44t-92 -109.5t-44 -143.5z" />
<glyph unicode="&#xe7;" horiz-adv-x="950" d="M96 520q12 217 126 347t306 130q109 0 197 -45t129 -131q18 -37 23.5 -79t-11 -78.5t-61.5 -47.5q-59 -14 -89 36t11 98q-25 51 -81 78.5t-122 25.5q-121 0 -197.5 -93t-84.5 -261q-8 -244 112 -334q80 -59 198 -49t177 80q6 8 24.5 33.5t34.5 36.5t39 7 q39 -4 46.5 -42.5t-5.5 -67.5q-20 -66 -79.5 -112t-131.5 -66q-43 -12 -98 -15q-18 -37 -53 -90q90 -8 141 -67q51 -61 43 -154q-10 -92 -79.5 -138t-174.5 -32q-61 10 -110.5 45t-53.5 76q-2 10 2.5 23.5t10.5 26.5t15 22.5t17 7.5q23 -2 60 -37t74 -41q29 -4 51 1 t38.5 20.5t18.5 41.5q4 39 -16.5 68t-67.5 37q-6 2 -18.5 5t-17.5 5t-14 4t-13 4t-11.5 5t-10.5 5.5t-7 6.5t-7 9t-7 9q-14 37 41 127l10 21q-14 2 -29 6q-160 45 -232.5 185t-62.5 347z" />
<glyph unicode="&#xe8;" horiz-adv-x="991" d="M126 607q30 161 120 261q82 92 220 118.5t263 -30.5q158 -78 197 -311q23 -152 -15 -186q-27 -27 -276 -23q-276 6 -363 0q-4 -66 14.5 -126t53.5 -107t82 -76q76 -45 188.5 -30.5t175.5 85.5q82 68 123 17q39 -49 -24 -119q-63 -76 -178 -107.5t-237 -11t-202 91.5 q-96 84 -134 238.5t-8 315.5zM215.5 1438.5q-13.5 27.5 15.5 74.5q20 29 43 34t41.5 -4t46.5 -32q43 -35 117 -110q12 -12 43 -41t47 -45q23 -20 35 -32.5t24.5 -28t16.5 -26.5t4 -24.5t-6 -25.5q-8 -16 -19.5 -24.5t-25 -8.5t-24.5 2t-27.5 11t-27.5 16.5t-28.5 20.5 t-25.5 17l-166 144q-70 55 -83.5 82.5zM272 553q90 4 255 2t255 2q4 127 -56.5 214t-162.5 93q-125 8 -199.5 -80t-91.5 -231z" />
<glyph unicode="&#xe9;" horiz-adv-x="991" d="M126 607q30 161 120 261q82 92 220 118.5t263 -30.5q158 -78 197 -311q23 -152 -15 -186q-27 -27 -276 -23q-276 6 -363 0q-4 -66 14.5 -126t53.5 -107t82 -76q76 -45 188.5 -30.5t175.5 85.5q82 68 123 17q39 -49 -24 -119q-63 -76 -178 -107.5t-237 -11t-202 91.5 q-96 84 -134 238.5t-8 315.5zM272 553q90 4 255 2t255 2q4 127 -56.5 214t-162.5 93q-125 8 -199.5 -80t-91.5 -231zM436 1198q-2 10 2 21.5t10.5 20.5t17.5 22.5t22.5 23.5t29.5 29q16 16 46 43.5t44 42.5q74 78 115 110q31 23 49.5 32t41 4t42.5 -34q29 -47 14.5 -74.5 t-84.5 -82.5l-163 -144q-10 -4 -27.5 -17t-28 -20.5t-27 -16.5t-28.5 -11t-24.5 -2t-23.5 8t-20 25q-6 10 -8 20z" />
<glyph unicode="&#xea;" horiz-adv-x="991" d="M126 607q30 161 120 261q82 92 220 118.5t263 -30.5q158 -78 197 -311q23 -152 -15 -186q-27 -27 -276 -23q-276 6 -363 0q-4 -66 14.5 -126t53.5 -107t82 -76q76 -45 188.5 -30.5t175.5 85.5q82 68 123 17q39 -49 -24 -119q-63 -76 -178 -107.5t-237 -11t-202 91.5 q-96 84 -134 238.5t-8 315.5zM213 1124q-63 55 18 131l97 93q98 94 151 137q62 51 119 2l211 -203q2 -2 14.5 -13t17.5 -17.5t15 -16.5t16.5 -17.5t12.5 -17.5t9 -18t3 -17q0 -16 -20.5 -35.5t-40.5 -21.5q-4 0 -10.5 1t-11.5 2t-12 5t-11.5 7t-13.5 9.5t-14 10.5t-16.5 13 t-17.5 13q-16 14 -61 56.5t-74 67t-57 44.5q-61 -41 -213 -178q-23 -16 -33 -23.5t-27.5 -15.5t-29 -7t-21.5 9zM272 553q90 4 255 2t255 2q4 127 -56.5 214t-162.5 93q-125 8 -199.5 -80t-91.5 -231z" />
<glyph unicode="&#xeb;" horiz-adv-x="991" d="M126 607q30 161 120 261q82 92 220 118.5t263 -30.5q158 -78 197 -311q23 -152 -15 -186q-27 -27 -276 -23q-276 6 -363 0q-4 -66 14.5 -126t53.5 -107t82 -76q76 -45 188.5 -30.5t175.5 85.5q82 68 123 17q39 -49 -24 -119q-63 -76 -178 -107.5t-237 -11t-202 91.5 q-96 84 -134 238.5t-8 315.5zM242 1323q22 55 90 61q61 6 100 -35.5t31 -99t-66 -90.5q-86 -45 -139 29q-45 66 -16 135zM272 553q90 4 255 2t255 2q4 127 -56.5 214t-162.5 93q-125 8 -199.5 -80t-91.5 -231zM625 1307q18 49 73 67q66 25 110 -15t41 -100.5t-54 -91.5 q-88 -53 -146 17q-49 55 -24 123z" />
<glyph unicode="&#xec;" horiz-adv-x="630" d="M0.5 1438.5q-13.5 27.5 15.5 74.5q14 23 29.5 31t33 4t33 -12t35.5 -25q43 -35 115 -110q14 -12 45 -41t47 -45q23 -20 35 -32.5t24.5 -28t16.5 -26.5t4 -24.5t-6 -25.5q-8 -16 -19.5 -24.5t-24.5 -8.5t-24.5 2t-28 11t-27.5 16.5t-28.5 20.5t-25.5 17l-166 144 q-70 55 -83.5 82.5zM98 891q2 29 20.5 44t40 18t59.5 6.5t56 7.5q8 0 31 4t33 5t26.5 1t26.5 -7t19 -20q8 -14 10 -32.5t1 -42t-1 -35.5q6 -137 6 -699q16 0 44 1t44 2t36.5 -2t31 -11t15.5 -24.5t1 -43.5q-4 -23 -24.5 -36t-59.5 -19t-66.5 -7t-80.5 -1h-15q-14 0 -37 -2 q-45 0 -82.5 1t-65.5 6t-43 20.5t-16.5 40t7 40t28 21.5t37 7t51 2t54.5 3q8 57 2 339t-6 345q-14 -2 -43 -3t-44.5 -2t-37 2t-32.5 10.5t-19.5 22.5t-6.5 38z" />
<glyph unicode="&#xed;" horiz-adv-x="630" d="M82 891q2 29 20.5 44t40 18t59.5 6.5t56 7.5q8 0 30.5 4t33 5t27 1t26.5 -7t18 -20q8 -14 10.5 -32.5t1 -42t-1.5 -35.5q6 -137 7 -699q16 0 43.5 1t44 2t37 -2t30.5 -11t15.5 -24.5t1.5 -43.5q-4 -23 -24.5 -36t-59.5 -19t-67 -7t-81 -1h-14q-14 0 -37 -2q-45 0 -83 1 t-65.5 6t-43 20.5t-16.5 40t7 40t27.5 21.5t37 7t51.5 2t54 3q8 57 2 339t-6 345q-14 -2 -42.5 -3t-44 -2t-37 2t-33 10.5t-19.5 22.5t-6 38zM142.5 1198q-1.5 10 3 21.5t9.5 20.5t17 22.5t22.5 23.5t28.5 29q16 16 47 43.5t43 42.5q76 78 117 110q29 23 47.5 32t41 4 t42.5 -34q29 -47 15.5 -74.5t-82.5 -82.5l-166 -144q-8 -4 -23.5 -15t-25 -17t-23.5 -15.5t-24.5 -13.5t-22.5 -6t-22.5 0t-19.5 10t-17 23q-6 10 -7.5 20z" />
<glyph unicode="&#xee;" horiz-adv-x="630" d="M18 1124q-63 55 19 131l96 93q98 94 152 137q61 51 118 2l211 -203q4 -2 15.5 -13t16.5 -17.5t15.5 -16.5t16.5 -17.5t12 -17.5t9 -18t3 -17q0 -16 -20 -35.5t-41 -21.5q-4 0 -10 1t-11.5 2t-12.5 5t-11 7t-13.5 9.5t-13.5 10.5t-16 13t-18 13q-18 16 -49 45t-50.5 46.5 t-45 39t-48.5 37.5q-61 -41 -211 -178q-25 -16 -35 -23.5t-27.5 -15.5t-28.5 -7t-22 9zM147 891q2 29 20.5 44t40 18t60 6.5t56.5 7.5q8 0 30.5 4t32.5 5t26.5 1t27 -7t18.5 -20q8 -14 10 -32.5t1 -42t-1 -35.5q6 -137 6 -699q16 0 44 1t44.5 2t37 -2t30.5 -11t15 -24.5 t1 -43.5q-4 -23 -24.5 -36t-59.5 -19t-66.5 -7t-80.5 -1h-15q-14 0 -36 -2q-45 0 -83 1t-66 6t-43 20.5t-16 40t7 40t27.5 21.5t37 7t51 2t54.5 3q8 57 2 339t-6 345q-14 -2 -43 -3t-44.5 -2t-37 2t-32.5 10.5t-19.5 22.5t-6.5 38z" />
<glyph unicode="&#xef;" horiz-adv-x="630" d="M10 1323q22 55 90 61q61 6 100.5 -35.5t32 -99t-66.5 -90.5q-86 -45 -139 29q-45 66 -17 135zM111 891q2 29 20.5 44t40 18t59.5 6.5t56 7.5q8 0 30.5 4t32.5 5t26.5 1t27 -7t18.5 -20q8 -14 10 -32.5t1 -42t-1 -35.5q6 -137 6 -699q16 0 44 1t44.5 2t37 -2t30.5 -11 t15 -24.5t1 -43.5q-4 -23 -24.5 -36t-59.5 -19t-66.5 -7t-80.5 -1h-14q-14 0 -37 -2q-45 0 -83 1t-65.5 6t-43 20.5t-16.5 40t7 40t27.5 21.5t37 7t51 2t54.5 3q8 57 2 339t-6 345q-14 -2 -43 -3t-44.5 -2t-37 2t-32.5 10.5t-19 22.5t-6 38zM393 1307q19 49 74 67 q66 25 110 -15t40.5 -100.5t-54.5 -91.5q-88 -53 -145 17q-49 55 -25 123z" />
<glyph unicode="&#xf0;" horiz-adv-x="1097" d="M139 301q-39 180 12.5 341t174.5 254t282 87q160 -2 279 -154q-18 94 -49 184.5t-75 173.5t-95 138q-20 -10 -63.5 -43t-51.5 -39q-4 -2 -12.5 -9t-15.5 -12t-16 -12.5t-17.5 -12.5t-17.5 -10t-18.5 -8t-15.5 -3q-18 -4 -33.5 4t-24.5 22.5t-11 32.5q0 49 63 96 q59 41 133 88q-12 8 -125 70q-18 10 -24 13t-19.5 12.5t-17.5 14.5t-9 13t-5 17.5t4 19.5q31 49 92 35q86 -16 223 -113q2 2 68.5 47.5t103.5 57.5q20 12 44 -0.5t38 -44.5q10 -35 -5 -56.5t-54 -42.5q-53 -37 -99 -61q182 -236 234 -590q70 -483 -98 -694 q-61 -82 -168 -122t-238 -28q-145 14 -243.5 106.5t-129.5 227.5zM285 328q20 -84 88 -146q63 -55 163.5 -68.5t176.5 19.5q61 29 108 96q57 80 72.5 216.5t-31.5 234.5q-39 76 -122 122t-185 34q-150 -16 -234.5 -169t-35.5 -339z" />
<glyph unicode="&#xf1;" horiz-adv-x="1226" d="M80 897q2 39 26.5 52.5t86.5 23.5q20 2 64 14t58 12q29 2 46.5 -11t21.5 -47t3 -63.5t-5 -85t-4 -87.5q41 96 106 165q98 109 226 123q186 20 270 -133q41 -76 47 -198.5t-4 -284.5t-6 -246q31 -4 60.5 -5t53 -2t36 -18.5t5.5 -56.5q0 -12 -7 -22.5t-21.5 -15.5t-27.5 -9 t-36.5 -4h-41t-47 1t-48.5 1q-12 -2 -37.5 -2h-38h-35t-34 2t-28.5 4t-26.5 6t-19.5 10.5t-15.5 14.5t-7.5 18q-2 23 1.5 38t13.5 23.5t23.5 12.5t29.5 4t34.5 -1t36 -2t33.5 1q0 225 11 358q8 74 3 141.5t-20.5 120t-56.5 80t-104 19.5q-92 -12 -190.5 -125t-111.5 -211 q-10 -61 -3.5 -193.5t1.5 -193.5q14 -2 48 0t60 1t42 -9q14 -8 19 -31t-2 -46.5t-21 -33.5q-18 -14 -54 -14t-89.5 5t-84.5 3q-25 0 -59.5 -3t-52 -4t-41 -1t-35.5 3t-23.5 9t-15.5 17.5t-4 27.5q0 31 17.5 47.5t36 19.5t57.5 6t55 5q6 43 2 177t-2 198q12 221 4 340 q-6 0 -32.5 -6.5t-37 -7.5t-33 -3t-32.5 2t-22.5 11.5t-16.5 23t-4 35.5zM292 1259.5q9 30.5 24.5 60.5t33.5 56q70 94 168 94q41 0 81 -24.5t65.5 -52t55.5 -51t52 -23.5q49 0 88 78q6 6 14.5 19.5t12.5 18.5l12 15t12 11t14.5 5t16.5 -2q98 -27 4 -188q-63 -111 -164 -111 q-45 0 -88 24.5t-70.5 53.5t-57 53.5t-48.5 24.5q-45 0 -88 -70q-4 -4 -11 -14t-10 -14t-11.5 -14.5t-11.5 -12.5t-10 -9t-11.5 -7t-13.5 -3t-13 1q-33 6 -44 28.5t-2 53z" />
<glyph unicode="&#xf2;" horiz-adv-x="1058" d="M138 621q38 172 153 270q45 41 89 63.5t95 33.5t119 11q182 0 294.5 -137t119.5 -352q8 -260 -129.5 -415.5t-382.5 -131.5q-129 12 -223.5 102.5t-127.5 217.5q-45 166 -7 338zM250.5 1438.5q-13.5 27.5 15.5 74.5q18 29 42 34t42.5 -4t46.5 -32q43 -35 115 -110 q12 -10 27.5 -25.5t33 -32t31.5 -28.5q20 -20 33.5 -32.5t26 -28t16.5 -26.5t4 -24.5t-8 -25.5q-8 -16 -18.5 -24.5t-23.5 -8.5t-25.5 2t-28 11t-26.5 16.5t-28.5 20.5t-25.5 17l-166 144q-70 55 -83.5 82.5zM268 432q4 -88 39 -161.5t96.5 -119t135.5 -47.5 q143 -2 230 96.5t91 280.5q6 135 -59 244q-43 70 -109.5 104.5t-150.5 24.5q-78 -10 -142.5 -67.5t-99.5 -150.5t-31 -204z" />
<glyph unicode="&#xf3;" horiz-adv-x="1058" d="M138 621q38 172 153 270q45 41 89 63.5t95 33.5t119 11q182 0 294.5 -137t119.5 -352q8 -260 -129.5 -415.5t-382.5 -131.5q-129 12 -223.5 102.5t-127.5 217.5q-45 166 -7 338zM268 432q4 -88 39 -161.5t96.5 -119t135.5 -47.5q143 -2 230 96.5t91 280.5q6 135 -59 244 q-43 70 -109.5 104.5t-150.5 24.5q-78 -10 -142.5 -67.5t-99.5 -150.5t-31 -204zM480 1198q-1 10 3 21.5t9.5 20.5t17.5 22.5t23.5 23.5t27.5 29q16 16 47 43.5t43 42.5q76 78 117 110q29 23 47.5 32t41 4t42.5 -34q29 -47 15.5 -74.5t-83.5 -82.5l-165 -144 q-8 -4 -25.5 -17t-29 -20.5t-28 -16.5t-27.5 -11t-24.5 -2t-24.5 8t-20 25q-6 10 -7 20z" />
<glyph unicode="&#xf4;" horiz-adv-x="1058" d="M138 621q38 172 153 270q45 41 89 63.5t95 33.5t119 11q182 0 294.5 -137t119.5 -352q8 -260 -129.5 -415.5t-382.5 -131.5q-129 12 -223.5 102.5t-127.5 217.5q-45 166 -7 338zM242 1124q-63 55 18 131l96 93q98 94 152 137q62 51 119 2l211 -203q2 -2 14 -13t17 -17.5 t15.5 -16.5t16.5 -17.5t12.5 -17.5t9.5 -18t3 -17q0 -16 -20.5 -35.5t-41.5 -21.5q-4 0 -10 1t-11 2t-12.5 5t-11.5 7t-13 9.5t-14.5 10.5t-16.5 13t-17 13q-16 14 -61.5 56.5t-74 67t-57.5 44.5q-61 -41 -213 -178q-23 -16 -33 -23.5t-27.5 -15.5t-28.5 -7t-21 9zM268 432 q4 -88 39 -161.5t96.5 -119t135.5 -47.5q143 -2 230 96.5t91 280.5q6 135 -59 244q-43 70 -109.5 104.5t-150.5 24.5q-78 -10 -142.5 -67.5t-99.5 -150.5t-31 -204z" />
<glyph unicode="&#xf5;" horiz-adv-x="1058" d="M138 621q38 172 153 270q45 41 89 63.5t95 33.5t119 11q182 0 294.5 -137t119.5 -352q8 -260 -129.5 -415.5t-382.5 -131.5q-129 12 -223.5 102.5t-127.5 217.5q-45 166 -7 338zM216 1259.5q9 30.5 23.5 60.5t34.5 56q70 94 168 94q41 0 81 -24.5t65.5 -52t55.5 -51 t52 -23.5q47 0 88 78q6 6 14.5 19.5t12.5 18.5l12 15t12.5 11t13.5 5t17 -2q98 -27 4 -188q-63 -111 -165 -111q-43 0 -86.5 24.5t-71 53.5t-57 53.5t-48.5 24.5q-47 0 -90 -70q-2 -4 -10 -14t-10 -14t-10.5 -14.5t-11.5 -12.5t-11 -9t-11 -7t-12.5 -3t-13.5 1 q-33 6 -44 28.5t-2 53zM268 432q4 -88 39 -161.5t96.5 -119t135.5 -47.5q143 -2 230 96.5t91 280.5q6 135 -59 244q-43 70 -109.5 104.5t-150.5 24.5q-78 -10 -142.5 -67.5t-99.5 -150.5t-31 -204z" />
<glyph unicode="&#xf6;" horiz-adv-x="1058" d="M138 621q38 172 153 270q45 41 89 63.5t95 33.5t119 11q182 0 294.5 -137t119.5 -352q8 -260 -129.5 -415.5t-382.5 -131.5q-129 12 -223.5 102.5t-127.5 217.5q-45 166 -7 338zM268 432q4 -88 39 -161.5t96.5 -119t135.5 -47.5q143 -2 230 96.5t91 280.5q6 135 -59 244 q-43 70 -109.5 104.5t-150.5 24.5q-78 -10 -142.5 -67.5t-99.5 -150.5t-31 -204zM270 1323q22 55 90 61q61 6 100.5 -35.5t31 -99t-65.5 -90.5q-86 -45 -139 29q-45 66 -17 135zM653 1307q19 49 74 67q66 25 110 -15t40.5 -100.5t-54.5 -91.5q-88 -53 -145 17 q-49 55 -25 123z" />
<glyph unicode="&#xf7;" horiz-adv-x="1142" d="M66 604q-4 66 59 74q8 2 49 0t51 -2q15 -2 660 4h41.5h41t35 -1t33 -5t23.5 -10.5t18 -17.5t8 -25q0 -14 -2 -25.5t-9 -20t-12 -14.5t-17.5 -9t-19.5 -6t-25.5 -4t-27.5 -2t-31.5 -1t-33.5 -2q-86 -4 -213 -5q-231 6 -483 -4q-43 0 -71.5 4.5t-50 21.5t-23.5 50zM455 936 q10 66 82 82q61 14 98 -20.5t35 -87t-35 -83.5q-72 -70 -137 -12q-55 49 -43 121zM456 266q-5 41 16.5 80t66.5 49q88 23 120 -59q27 -72 -16 -131q-29 -39 -76 -41t-76.5 29.5t-34.5 72.5z" />
<glyph unicode="&#xf8;" horiz-adv-x="1067" d="M141.5 621q38.5 172 151.5 270q68 59 137.5 83.5t167.5 24.5q76 0 141 -26q10 23 25.5 59.5t25 55t22.5 39t29.5 28.5t37.5 6q33 -4 47 -19.5t11 -42t-10 -46t-22 -47.5l-53 -101q156 -135 163 -395t-130 -415.5t-383 -131.5q-63 6 -123 33l-41 -84q-16 -27 -25.5 -42 t-30 -31.5t-40.5 -14.5q-113 20 -19 186l39 70q-82 84 -112 205q-47 164 -8.5 336zM266 432q4 -125 72 -219l127 231l211 404q-61 23 -131 14q-125 -16 -205 -139t-74 -291zM442 119q49 -27 103 -27q145 -4 235 99.5t94 285.5q6 143 -61 252q-14 23 -31 43z" />
<glyph unicode="&#xf9;" horiz-adv-x="1222" d="M51 891q0 18 12.5 31.5t40 23.5t47 16.5t61.5 14.5t56 12q61 14 89 -49t24 -160q-2 -57 -9 -138t-7 -97q-6 -82 -4.5 -191.5t20.5 -152.5q23 -53 72 -77t114 -5q104 27 226 217q43 61 49 104q12 80 12 224q0 23 -2 84t-2 92q-12 -2 -43 -7.5t-45 -6.5t-33.5 1t-29 14.5 t-11.5 35.5t3 38t11.5 24t28 16.5t31.5 9.5t43 8q18 2 47 8t46 10t35.5 3t31.5 -9q6 -4 10 -12t7 -22.5t5 -26t2 -32t1 -31.5t1 -33.5v-30.5q2 -178 2 -342q0 -35 -2 -104.5t-2 -119v-96.5q20 -2 59 1t62 3t41 -16.5t16 -50.5q-2 -49 -72.5 -68.5t-142 -14.5t-86.5 19 q-29 35 0 254q-16 -35 -37.5 -68.5t-54.5 -73.5t-68.5 -71t-84 -53.5t-95.5 -28.5q-68 -6 -125 12.5t-97 55.5t-60 90q-27 61 -31 162.5t4 195.5q2 33 8 129.5t6 114.5t-2 104q-182 -53 -178 60zM231 1438.5q-14 27.5 15 74.5q20 29 42.5 34t41 -4t49.5 -32q41 -35 115 -110 q12 -10 27.5 -25.5t32.5 -32t32 -28.5q20 -20 33.5 -32.5t25.5 -28t16.5 -26.5t4.5 -24.5t-9 -25.5q-8 -16 -19 -24.5t-23.5 -8.5t-24.5 2t-28.5 11t-27 16.5t-28 20.5t-25.5 17l-168 144q-68 55 -82 82.5z" />
<glyph unicode="&#xfa;" horiz-adv-x="1222" d="M51 891q0 18 12.5 31.5t40 23.5t47 16.5t61.5 14.5t56 12q61 14 89 -49t24 -160q-2 -57 -9 -138t-7 -97q-6 -82 -4.5 -191.5t20.5 -152.5q23 -53 72 -77t114 -5q104 27 226 217q43 61 49 104q12 80 12 224q0 23 -2 84t-2 92q-12 -2 -43 -7.5t-45 -6.5t-33.5 1t-29 14.5 t-11.5 35.5t3 38t11.5 24t28 16.5t31.5 9.5t43 8q18 2 47 8t46 10t35.5 3t31.5 -9q6 -4 10 -12t7 -22.5t5 -26t2 -32t1 -31.5t1 -33.5v-30.5q2 -178 2 -342q0 -35 -2 -104.5t-2 -119v-96.5q20 -2 59 1t62 3t41 -16.5t16 -50.5q-2 -49 -72.5 -68.5t-142 -14.5t-86.5 19 q-29 35 0 254q-16 -35 -37.5 -68.5t-54.5 -73.5t-68.5 -71t-84 -53.5t-95.5 -28.5q-68 -6 -125 12.5t-97 55.5t-60 90q-27 61 -31 162.5t4 195.5q2 33 8 129.5t6 114.5t-2 104q-182 -53 -178 60zM460 1208.5q1 8.5 4 15.5t9 16l11 16.5t15.5 17.5t19.5 19.5t24 21.5 q14 16 44.5 43.5t45.5 42.5q74 78 115 110q29 23 47 32t41 4t43 -34q29 -47 15.5 -74.5t-83.5 -82.5l-166 -144q-8 -4 -25.5 -17t-28.5 -20.5t-27.5 -16.5t-28 -11t-24.5 -2t-24.5 8t-19.5 25q-4 8 -6 15t-1 15.5z" />
<glyph unicode="&#xfb;" horiz-adv-x="1222" d="M51 891q0 18 12.5 31.5t40 23.5t47 16.5t61.5 14.5t56 12q61 14 89 -49t24 -160q-2 -57 -9 -138t-7 -97q-6 -82 -4.5 -191.5t20.5 -152.5q23 -53 72 -77t114 -5q104 27 226 217q43 61 49 104q12 80 12 224q0 23 -2 84t-2 92q-12 -2 -43 -7.5t-45 -6.5t-33.5 1t-29 14.5 t-11.5 35.5t3 38t11.5 24t28 16.5t31.5 9.5t43 8q18 2 47 8t46 10t35.5 3t31.5 -9q6 -4 10 -12t7 -22.5t5 -26t2 -32t1 -31.5t1 -33.5v-30.5q2 -178 2 -342q0 -35 -2 -104.5t-2 -119v-96.5q20 -2 59 1t62 3t41 -16.5t16 -50.5q-2 -49 -72.5 -68.5t-142 -14.5t-86.5 19 q-29 35 0 254q-16 -35 -37.5 -68.5t-54.5 -73.5t-68.5 -71t-84 -53.5t-95.5 -28.5q-68 -6 -125 12.5t-97 55.5t-60 90q-27 61 -31 162.5t4 195.5q2 33 8 129.5t6 114.5t-2 104q-182 -53 -178 60zM236 1124q-63 55 18 131l96 93q98 94 152 137q62 51 119 2l213 -203l13 -13 t17 -17.5t16.5 -16.5t15.5 -17.5t11 -17.5t9.5 -18t3.5 -17q0 -16 -19.5 -35.5t-40.5 -21.5q-6 0 -12 1t-10 2t-11.5 5t-11.5 7t-13 9.5t-14.5 10.5t-17.5 13t-18 13q-14 14 -60.5 56.5t-75 67t-57.5 44.5q-59 -41 -211 -178q-25 -16 -34 -23.5t-26.5 -15.5t-29.5 -7t-22 9z " />
<glyph unicode="&#xfc;" horiz-adv-x="1222" d="M51 891q0 18 12.5 31.5t40 23.5t47 16.5t61.5 14.5t56 12q61 14 89 -49t24 -160q-2 -57 -9 -138t-7 -97q-6 -82 -4.5 -191.5t20.5 -152.5q23 -53 72 -77t114 -5q104 27 226 217q43 61 49 104q12 80 12 224q0 23 -2 84t-2 92q-12 -2 -43 -7.5t-45 -6.5t-33.5 1t-29 14.5 t-11.5 35.5t3 38t11.5 24t28 16.5t31.5 9.5t43 8q18 2 47 8t46 10t35.5 3t31.5 -9q6 -4 10 -12t7 -22.5t5 -26t2 -32t1 -31.5t1 -33.5v-30.5q2 -178 2 -342q0 -35 -2 -104.5t-2 -119v-96.5q20 -2 59 1t62 3t41 -16.5t16 -50.5q-2 -49 -72.5 -68.5t-142 -14.5t-86.5 19 q-29 35 0 254q-16 -35 -37.5 -68.5t-54.5 -73.5t-68.5 -71t-84 -53.5t-95.5 -28.5q-68 -6 -125 12.5t-97 55.5t-60 90q-27 61 -31 162.5t4 195.5q2 33 8 129.5t6 114.5t-2 104q-182 -53 -178 60zM272 1323q22 55 90 61q61 6 101.5 -35.5t32 -99t-67.5 -90.5q-86 -45 -137 29 q-45 66 -19 135zM657 1307q19 49 72 67q68 25 111 -15t40 -100.5t-53 -91.5q-88 -53 -147 17q-49 55 -23 123z" />
<glyph unicode="&#xfd;" horiz-adv-x="1101" d="M-7 886.5q1 14.5 3 31.5q6 20 25.5 31.5t52 14.5t62.5 3t75 -3t68 -3h22h54.5t43 -3.5t36.5 -10.5t19.5 -21.5t8.5 -34.5q2 -29 -14.5 -44.5t-37 -17.5t-57.5 -3t-51 -3q6 -10 17.5 -33.5t25.5 -60.5t27.5 -70.5t33 -86t31.5 -87.5q123 -315 131 -415q2 94 113 393 q113 295 145 360q-29 -2 -53 -1t-51 6.5t-40 16.5t-21.5 30.5t6.5 50.5q6 12 27.5 19t52 9t67.5 3t72 -1h31h22h40t34.5 -1t32 -3t25.5 -5t21.5 -8t14.5 -13t11 -18.5t3 -22.5q-2 -25 -10 -40.5t-23.5 -21.5t-35 -8t-42 -1t-44.5 1l-357 -934q-4 -8 -10 -24 q-33 -86 -52.5 -133.5t-56 -111t-75.5 -93.5q-33 -29 -80 -40t-91 -3t-82 30.5t-56.5 66.5t-8.5 99q2 37 29 64.5t66 27.5q41 4 64.5 -22.5t17 -62t-43.5 -54.5q41 -31 79 -15.5t63 66.5q68 133 106 332q-139 332 -321 811h-24.5t-26 -1t-24.5 0t-24.5 2t-21.5 5t-18.5 8.5 t-13.5 12.5t-10 17t-2 23.5zM454 1192.5q-1 11.5 2 22t9 20.5t18.5 23.5t22.5 23.5t29 27q14 14 31.5 30.5t32.5 30.5t26 27q74 76 116 110q29 23 47.5 31t41 3t42.5 -32q29 -47 15.5 -75.5t-82.5 -81.5l-166 -144q-8 -6 -26.5 -18t-29 -19.5t-26.5 -16.5t-27.5 -12 t-24.5 -3t-24.5 9t-19.5 23q-6 10 -7 21.5z" />
<glyph unicode="&#xfe;" horiz-adv-x="1159" d="M47 1444q0 12 2 21.5t6 16.5t12.5 13t15.5 10t19.5 8.5t22.5 7.5t24.5 6t26.5 5l30 5t30 7q27 4 47 5t34.5 -6t24.5 -14t16.5 -27.5t10.5 -35t6 -45t2 -50v-60.5v-13q0 -27 1 -291t-1 -286q31 55 54.5 90t60 77t74.5 64.5t91.5 34.5t116.5 6q102 -10 172 -98t95.5 -208 t17.5 -253q-6 -111 -46 -209t-108 -164q-88 -82 -258 -90t-268 82q4 -49 2 -212t0 -216q27 -2 53.5 -1t49 0t40 -5t27.5 -17.5t12 -35.5q0 -20 -7 -34.5t-26.5 -23t-36 -14.5t-51 -8t-56 -2h-67.5h-6h-39h-58t-50 2t-45.5 5t-31.5 9t-24.5 16.5t-7.5 24.5q-2 16 0 28.5 t9.5 21t12.5 15.5t19.5 10t21.5 5t25.5 3t26.5 1h30.5h28.5q8 748 -2 1772q-16 -2 -41.5 -5t-43 -6.5t-37 -2.5t-32 6.5t-20.5 18.5t-8 36zM381 254q14 -45 51 -79t86 -48t102.5 -16t102.5 14t82 47q70 66 97.5 212t-5.5 284.5t-119 175.5q-39 18 -82 11t-75.5 -24.5 t-59.5 -44.5q-84 -78 -137 -227t-43 -305z" />
<glyph unicode="&#xff;" horiz-adv-x="1101" d="M-7 886.5q1 14.5 3 31.5q6 20 25.5 31.5t52 14.5t62.5 3t75 -3t68 -3h22h54.5t43 -3.5t36.5 -10.5t19.5 -21.5t8.5 -34.5q2 -29 -14.5 -44.5t-37 -17.5t-57.5 -3t-51 -3q6 -10 17.5 -33.5t25.5 -60.5t27.5 -70.5t33 -86t31.5 -87.5q123 -315 131 -415q2 94 113 393 q113 295 145 360q-29 -2 -53 -1t-51 6.5t-40 16.5t-21.5 30.5t6.5 50.5q6 12 27.5 19t52 9t67.5 3t72 -1h31h22h40t34.5 -1t32 -3t25.5 -5t21.5 -8t14.5 -13t11 -18.5t3 -22.5q-2 -25 -10 -40.5t-23.5 -21.5t-35 -8t-42 -1t-44.5 1l-357 -934q-4 -8 -10 -24 q-33 -86 -52.5 -133.5t-56 -111t-75.5 -93.5q-33 -29 -80 -40t-91 -3t-82 30.5t-56.5 66.5t-8.5 99q2 37 29 64.5t66 27.5q41 4 64.5 -22.5t17 -62t-43.5 -54.5q41 -31 79 -15.5t63 66.5q68 133 106 332q-139 332 -321 811h-24.5t-26 -1t-24.5 0t-24.5 2t-21.5 5t-18.5 8.5 t-13.5 12.5t-10 17t-2 23.5zM258 1317q22 57 90 63q61 4 100 -36.5t32 -98t-66 -92.5q-86 -45 -138 31q-47 66 -18 133zM641 1303q19 47 74 67q66 23 109.5 -16t40.5 -100.5t-54 -90.5q-88 -53 -145 15q-49 57 -25 125z" />
<glyph unicode="&#x152;" horiz-adv-x="2045" d="M211 477q-57 330 35 597t311 374q170 86 393 51q61 -8 109 -31q66 6 203 7q53 0 181 2t224 1t176 -8q8 -6 15.5 -16t11.5 -18.5t7 -23.5t4 -24.5t2 -29t1 -28.5v-31.5v-30.5q0 -14 1 -38t2 -41.5t1 -40t-2 -38.5t-6 -30.5t-11 -22.5t-20 -8q-10 -4 -15 2t-8 21t-7 33.5 t-12.5 41t-20.5 41.5q-4 4 -8 10t-7.5 12.5t-5.5 12.5t-4 15t-4 14t-4 17.5t-3 18.5t-3 21.5t-4 23.5h-623q2 -43 2 -112.5v-108.5l2 -260q98 -6 312 0q6 23 5 86t11 98t51 37q47 2 61.5 -29.5t14.5 -97.5v-72q2 -78 1 -152.5t-5 -132t-16.5 -92t-32.5 -34.5 q-27 -2 -44.5 12t-24.5 44t-9 54.5t-4 68.5t-4 65q-55 -2 -156.5 -2h-157.5v-218q-2 -98 2 -342q104 -8 273 -8q45 0 178 1t205 1q4 152 4 232q0 16 -2 48t-1 49t6 38.5t22.5 31t46.5 9.5q27 0 44 -14.5t22 -43t6 -51t-1 -61.5t-2 -51v-150q0 -8 1 -35.5t2 -46t-3 -39 t-12 -30.5q-20 -25 -92 -29t-129 2q-6 4 -210 2t-216 -2q-94 0 -213 6q-47 -27 -94 -37q-119 -29 -252 -7t-228 85q-104 68 -174.5 182.5t-97.5 249.5zM343 565.5q30 -194.5 128 -315.5q53 -66 134 -108t179.5 -50t196.5 39q-2 338 0 389q2 92 -2 492q0 14 1 166t-1 170 q-127 33 -232.5 15.5t-186.5 -77t-134 -147.5t-74 -195q-39 -184 -9 -378.5z" />
<glyph unicode="&#x153;" horiz-adv-x="1720" d="M86 501q2 105 43 207.5t115 172.5q66 61 138.5 87.5t170.5 26.5q223 -2 334 -209q141 238 407 209q92 -10 167 -58t116 -128q45 -82 57 -191q10 -127 -20 -155q-18 -18 -81 -19.5t-130 2.5q-182 6 -432 -8q0 -45 7 -86t20.5 -76.5t32 -64.5t43 -50.5t52.5 -33.5 q80 -33 173.5 -20.5t154.5 59.5q10 6 23.5 17.5t21.5 16.5t19.5 12t17.5 10t15.5 6t15.5 2t13 -4t14.5 -9t13.5 -16q35 -51 -47 -129q-53 -53 -152.5 -86t-204.5 -27q-111 8 -195.5 62.5t-123.5 146.5q-63 -109 -173 -163t-255 -40q-131 12 -223.5 101.5t-124.5 220.5 q-25 109 -23 214zM227 434q4 -133 82 -229t189 -99q145 -2 233 97.5t90 281.5q4 131 -63 234q-41 70 -107.5 105.5t-148.5 25.5q-80 -8 -144.5 -63.5t-99.5 -147.5t-31 -205zM971 567q139 8 510 8q0 90 -31 157t-93.5 101.5t-144.5 24.5q-102 -8 -163.5 -90t-77.5 -201z" />
<glyph unicode="&#x178;" horiz-adv-x="1247" d="M-38 1411.5q1 13.5 7 23t10.5 15.5t15.5 10t17 6t23.5 3t24 1h29h30.5h295q43 0 62.5 -19t19.5 -58q-2 -18 -6.5 -30.5t-15.5 -20t-22.5 -11.5t-33 -5t-39 -1h-48h-52.5q14 -10 38.5 -47t66.5 -111.5t62 -107.5q23 -39 58 -95.5t54.5 -89t41 -70.5t31.5 -63.5t10 -44.5 q2 16 8 36t14.5 38t23.5 46t27.5 50.5t33 58.5t36.5 62q20 39 50 94.5t50.5 93t42 75.5t38 58.5t28.5 22.5q-23 4 -52.5 2t-63 0t-61.5 7.5t-47 21.5t-19 43q0 45 37.5 57.5t117.5 12.5h213h19h57t43 -4.5t36 -11.5t19 -21.5t8 -36.5q0 -25 -8 -39t-29.5 -20.5t-37 -8.5 t-50 -2t-49.5 -2q-57 -111 -126.5 -233.5t-162 -284.5t-124.5 -221q0 -55 -1 -114.5t-1 -105.5t-1 -106.5t-1 -116.5q25 -4 65.5 -6t70 -4t58.5 -9t42 -24.5t7 -46.5q-4 -16 -14 -27.5t-29.5 -16.5t-39 -9t-51.5 -4h-55.5t-62 1t-61.5 1h-60.5h-62t-55.5 1t-50.5 5t-38 11.5 t-27.5 20.5t-9 30q0 29 12 46t35 22t52.5 7t62 0t67.5 2q0 55 2 151.5t2 162.5v129l-55 98l-385 637q-25 2 -48.5 1t-45 0t-36.5 5t-25.5 17.5t-10.5 35.5q-2 14 -1 27.5zM289 1804q14 62 80 78q47 10 83.5 -10.5t52 -55t7.5 -76.5t-43 -71q-78 -57 -141 8q-53 55 -39 127z M746.5 1750q-7.5 34 14 70t68.5 54q61 27 105.5 -15t43.5 -104.5t-54 -87.5q-45 -20 -86 -14t-62.5 34.5t-29 62.5z" />
<glyph unicode="&#x2c6;" horiz-adv-x="628" d="M55 1124q-66 55 19 131l96 93q96 94 149 137q64 51 121 2l211 -203q2 -2 14.5 -13t17.5 -17.5t15.5 -16.5t15.5 -17.5t12 -17.5t9 -18t2 -17q0 -16 -19.5 -35.5t-39.5 -21.5q-6 0 -11 1t-10.5 2t-12.5 5t-11 7t-13.5 9.5t-14.5 10.5t-16 13t-18 13q-16 14 -61 56.5 t-73.5 67t-57.5 44.5q-61 -41 -213 -178q-23 -16 -33 -23.5t-27.5 -15.5t-28.5 -7t-22 9z" />
<glyph unicode="&#x2dc;" horiz-adv-x="724" d="M18.5 1259.5q8.5 30.5 23.5 60.5t34 56q72 94 168 94q41 0 81 -24.5t66.5 -52t55 -51t51.5 -23.5q49 0 90 78q4 6 12 19.5t12 18.5t12.5 15t13.5 11t14.5 5t15.5 -2q98 -27 6 -188q-63 -111 -166 -111q-43 0 -87 24.5t-71.5 53.5t-56.5 53.5t-49 24.5q-45 0 -88 -70 q-4 -4 -11.5 -14l-10.5 -14t-10 -14.5t-10 -12.5t-11.5 -9t-12.5 -7t-13 -3t-14 1q-33 6 -43 28.5t-1.5 53z" />
<glyph unicode="&#x2000;" horiz-adv-x="1030" />
<glyph unicode="&#x2001;" horiz-adv-x="2060" />
<glyph unicode="&#x2002;" horiz-adv-x="1030" />
<glyph unicode="&#x2003;" horiz-adv-x="2060" />
<glyph unicode="&#x2004;" horiz-adv-x="686" />
<glyph unicode="&#x2005;" horiz-adv-x="515" />
<glyph unicode="&#x2006;" horiz-adv-x="343" />
<glyph unicode="&#x2007;" horiz-adv-x="343" />
<glyph unicode="&#x2008;" horiz-adv-x="257" />
<glyph unicode="&#x2009;" horiz-adv-x="412" />
<glyph unicode="&#x200a;" horiz-adv-x="114" />
<glyph unicode="&#x2010;" horiz-adv-x="708" d="M51 496q-6 66 43 82q20 6 51 8t73 2t74 -1t80 -3t64 -4h23q29 0 45 -1t45 -3.5t46 -6.5t36.5 -12t29 -19.5t9.5 -27.5q2 -35 -19.5 -52.5t-44 -20.5t-59.5 -3q-131 4 -289 4h-33.5h-34t-31 1t-28.5 2t-24.5 4.5t-22.5 7.5t-15.5 9t-11.5 14t-6 20z" />
<glyph unicode="&#x2011;" horiz-adv-x="708" d="M51 496q-6 66 43 82q20 6 51 8t73 2t74 -1t80 -3t64 -4h23q29 0 45 -1t45 -3.5t46 -6.5t36.5 -12t29 -19.5t9.5 -27.5q2 -35 -19.5 -52.5t-44 -20.5t-59.5 -3q-131 4 -289 4h-33.5h-34t-31 1t-28.5 2t-24.5 4.5t-22.5 7.5t-15.5 9t-11.5 14t-6 20z" />
<glyph unicode="&#x2012;" horiz-adv-x="708" d="M51 496q-6 66 43 82q20 6 51 8t73 2t74 -1t80 -3t64 -4h23q29 0 45 -1t45 -3.5t46 -6.5t36.5 -12t29 -19.5t9.5 -27.5q2 -35 -19.5 -52.5t-44 -20.5t-59.5 -3q-131 4 -289 4h-33.5h-34t-31 1t-28.5 2t-24.5 4.5t-22.5 7.5t-15.5 9t-11.5 14t-6 20z" />
<glyph unicode="&#x2013;" horiz-adv-x="1320" d="M58 509q-1 17 6.5 29.5t17.5 20.5t26.5 12t33 6.5t39 3.5t41 0t42 -2t39.5 -1q86 4 227.5 4t316.5 -2t238 -2q12 0 33 1t31 1t26.5 -1t24.5 -2.5t20.5 -4.5t17.5 -8t12 -11t9.5 -15.5t2.5 -21.5q2 -20 -4.5 -34.5t-20.5 -22.5t-28.5 -13.5t-40 -6.5t-44 0t-50.5 2t-50 1 h-705q-14 0 -50 -1t-53 -1t-47 1t-45 6.5t-32.5 12.5t-25 19.5t-8.5 29.5z" />
<glyph unicode="&#x2014;" horiz-adv-x="1787" d="M59 516q-2 51 25 63.5t90 10.5q219 -8 318.5 -7t268 8t281.5 7h72q41 6 222.5 3t213.5 -3h30h31t26.5 -1t26.5 -2t22.5 -4t19.5 -8t13 -12.5t10.5 -17.5t3.5 -23q0 -14 -4.5 -25t-13.5 -19.5t-18 -14.5t-25.5 -9t-29 -5t-34 -3t-33.5 -1t-35.5 1t-34.5 1q-57 0 -305 3 t-295 -3q-217 -8 -629 -13q-37 -4 -74.5 -2t-69.5 7.5t-51.5 22.5t-21.5 46z" />
<glyph unicode="&#x2018;" horiz-adv-x="419" d="M80 1294q10 102 69 199t125 109q29 4 52.5 -14.5t29.5 -43.5q0 -14 -5 -28.5t-12 -22.5t-24.5 -23.5t-23.5 -21.5q-33 -37 -53.5 -98.5t-14.5 -132.5q41 14 84 -6.5t49 -73.5q10 -74 -45 -116t-123 -13q-63 29 -89.5 109.5t-18.5 176.5z" />
<glyph unicode="&#x2019;" horiz-adv-x="417" d="M80 1468q-10 76 47.5 117t120.5 12q41 -16 68.5 -63t36.5 -104.5t1 -120.5q-4 -57 -32.5 -126t-61.5 -112q-57 -74 -110 -70q-27 4 -45.5 22.5t-22.5 41.5q-2 10 1 21.5t11 21.5t16.5 18.5t19.5 18.5t17 16q76 88 66 228q-25 -4 -52.5 -4.5t-52 22.5t-28.5 61z" />
<glyph unicode="&#x201a;" horiz-adv-x="415" d="M82 80q-8 72 48.5 113t115.5 16q63 -25 89.5 -107t16.5 -182q-6 -57 -33.5 -126.5t-58.5 -106.5q-61 -78 -113 -74q-14 2 -28.5 11t-22.5 20.5t-10 23.5q-2 18 6 33.5t29.5 37t23.5 25.5q86 98 76 236q-45 -12 -87 5.5t-52 74.5z" />
<glyph unicode="&#x201c;" horiz-adv-x="790" d="M80 1298q4 37 19.5 83t35 86t39.5 65q59 78 113 74q23 -2 40 -19.5t21 -38.5q2 -8 -1 -17t-7 -17.5t-11 -16.5t-14.5 -15t-14.5 -14.5t-13 -13.5q-84 -100 -74 -237q27 6 54.5 5t52 -22.5t30.5 -60.5q10 -72 -47.5 -113t-114.5 -18q-63 27 -89.5 108.5t-18.5 181.5z M455 1298q6 55 34.5 125t59.5 109q59 78 113 74q14 -2 27 -11.5t21.5 -21.5t12.5 -25q2 -16 -6 -31.5t-29.5 -37t-23.5 -25.5q-86 -98 -76 -237q45 14 87 -3.5t50 -74.5q10 -72 -47.5 -113t-114.5 -18q-63 27 -90 108.5t-18 181.5z" />
<glyph unicode="&#x201d;" horiz-adv-x="772" d="M80 1470q-10 76 47.5 117t120.5 12q61 -27 89 -109.5t17 -178.5q-4 -57 -32.5 -126t-61.5 -112q-57 -74 -110 -69q-27 2 -45.5 21t-22.5 40q-2 16 5 30.5t14.5 22.5t23.5 23.5t22 21.5q76 88 66 228q-25 -4 -52.5 -4.5t-52 22.5t-28.5 61zM434 1470q-10 76 46.5 117 t119.5 12q43 -18 69.5 -64t36 -104.5t3.5 -119.5q-4 -57 -33 -126t-64 -112q-55 -74 -108 -69q-29 2 -46.5 21t-21.5 40q-2 16 4 30.5t14.5 22.5t25 23.5t22.5 21.5q76 88 65 228q-25 -4 -52.5 -4.5t-52 22.5t-28.5 61z" />
<glyph unicode="&#x201e;" horiz-adv-x="794" d="M82 80q-8 72 48.5 113t115.5 16q63 -25 89.5 -107t16.5 -182q-6 -57 -33.5 -126.5t-58.5 -106.5q-61 -78 -113 -74q-14 2 -28.5 11t-22.5 20.5t-10 23.5q-2 18 6 33.5t29.5 37t23.5 25.5q86 98 76 236q-45 -12 -87 5.5t-52 74.5zM457 80q-8 72 48.5 113t115.5 16 q63 -25 89.5 -107t16.5 -182q-6 -57 -33.5 -126.5t-58.5 -106.5q-61 -78 -113 -74q-23 2 -40 19.5t-21 35.5q-2 18 6 33.5t29.5 37t23.5 25.5q86 98 76 236q-45 -12 -87 5.5t-52 74.5z" />
<glyph unicode="&#x2022;" horiz-adv-x="755" d="M213 774q0 49 34 92.5t93 57.5q66 16 114 -8.5t70 -73.5q29 -51 22 -126t-59 -108q-82 -59 -155.5 -36.5t-106.5 104.5q-12 49 -12 98z" />
<glyph unicode="&#x2026;" horiz-adv-x="1230" d="M76 105.5q0 37.5 25.5 73.5t70.5 46q43 10 76 -10t46 -55t11 -76t-22 -66q-37 -45 -101.5 -41.5t-93.5 58.5q-12 33 -12 70.5zM507 105.5q1 37.5 26.5 73.5t70.5 46q41 10 74 -10t47 -55t12 -76t-24 -66q-35 -45 -100.5 -41.5t-92.5 58.5q-14 33 -13 70.5zM926 116 q0 38 25.5 74t70.5 46q41 10 73.5 -10.5t47 -55.5t12.5 -76t-22 -65q-37 -45 -102.5 -42t-92.5 58q-12 33 -12 71z" />
<glyph unicode="&#x202f;" horiz-adv-x="412" />
<glyph unicode="&#x2039;" horiz-adv-x="585" d="M41 508q-2 20 12.5 47t26.5 42t45 52q20 23 47 51.5t48.5 51t48 51t44.5 51.5q8 6 26.5 29.5t37 42t43.5 32.5q20 14 57 -2t41 -45q2 -18 -2 -34.5t-16.5 -35t-22.5 -29.5t-31 -32q-25 -27 -77 -81t-90.5 -96t-69.5 -83q53 -72 231 -258q2 -4 13.5 -15t15.5 -15.5 t12 -14.5t12.5 -16t10.5 -14.5t8 -15.5t4 -15.5t2 -16.5q0 -12 -5 -23.5t-14.5 -19.5t-19.5 -14t-22 -8q-16 -2 -30.5 3t-29 17t-25 23.5t-24.5 29t-20 23.5l-193 211q-8 10 -29.5 30.5t-33 33t-21.5 30t-10 33.5z" />
<glyph unicode="&#x203a;" horiz-adv-x="585" d="M74 141q0 8 2 16.5t5 14.5t8 15.5t9 14.5t13.5 15t12.5 14.5t14.5 15.5t15.5 15q176 188 231 258q-33 43 -71 85t-91 96.5t-76 80.5q-29 27 -41 42.5t-24 41t-8 47.5q4 29 41 45t57 0q16 -8 29.5 -19t24 -22.5t18.5 -20.5t17 -21.5t18 -18.5q23 -27 88 -96.5t100 -108.5 q33 -37 45 -52t26.5 -42t12.5 -49q0 -10 -6 -23.5t-16.5 -27t-20.5 -24.5t-26.5 -26.5t-24.5 -25.5l-193 -209q-6 -6 -26.5 -30.5t-31.5 -36t-30.5 -21.5t-40.5 -8q-23 2 -42 21.5t-19 43.5z" />
<glyph unicode="&#x205f;" horiz-adv-x="515" />
<glyph unicode="&#x20ac;" horiz-adv-x="1593" d="M84 571q0 27 5 41.5t17.5 18.5t30 4t43 -3t57 -4t70.5 3q-6 129 0 209q-25 4 -72 5t-72.5 3t-46 19.5t-22.5 52.5q0 39 35 52t86 9t109 2q49 221 190 363q154 155 371 165q174 12 285.5 -49t175.5 -211q4 18 -0.5 86t2 116t32.5 52q23 6 39.5 0t25.5 -20.5t15 -36t7 -47 t2 -54t1 -59.5v-39q0 -29 -2 -78t-2 -79q0 -10 2 -49t1 -65t-9 -38q-12 -18 -49 -18t-51 14q-12 8 -17.5 30.5t-9.5 51.5t-8 41q-35 131 -129 219t-221 98q-193 14 -350 -123q-100 -90 -154 -274q78 -6 430 -2h17q39 0 56 -1t38.5 -9.5t28 -30t-0.5 -55.5q-2 -37 -55 -42 t-121 1q-90 4 -411 4q-8 -94 0 -201q68 8 238.5 -1t234.5 -5h60.5t39.5 -11.5t14 -39.5q2 -31 -9 -49.5t-37.5 -25.5t-49 -9t-63.5 -2q-55 0 -209 9t-201 -1q49 -205 189.5 -312.5t338.5 -76.5q106 14 191.5 76.5t126.5 156.5q4 6 12 21.5t13.5 25t14.5 20.5t18 16t22.5 3 t27.5 -12q18 -12 27.5 -33.5t7.5 -43t-8 -43t-16 -40.5q-76 -150 -216.5 -226.5t-342.5 -64.5q-168 8 -297 103.5t-195 236.5q-43 100 -59 181q-4 0 -11 -2q-70 -6 -121 -7.5t-79.5 18t-30.5 66.5z" />
<glyph unicode="&#x2122;" horiz-adv-x="1378" d="M58.5 1404q7.5 50 25.5 64q49 6 144 4.5t161 0.5q154 6 176 -23q27 -29 14.5 -107.5t-47.5 -78.5q-43 -2 -52 24.5t-7 87.5q-55 8 -94 2q-4 -43 -4 -106.5v-141v-108.5q33 6 57.5 -9.5t25.5 -36t-22 -38.5q-12 -10 -40.5 -11t-65.5 1t-49 2q-37 -2 -57.5 2t-31 17.5 t-10.5 37.5q0 25 15.5 30t58.5 3h12q-4 51 -3 176t-1 178q-14 2 -50 2t-50 2q0 -29 -1 -40t-4 -29.5t-8.5 -26.5t-17.5 -14t-29 -6q-29 2 -41 47t-4.5 95zM618 975q-2 35 15.5 47t58.5 8v328q-31 -4 -50 20.5t-16 54t27 37.5q18 6 91 5.5t100 -11.5q6 -4 12 -7t11 -10 t9.5 -11t8.5 -13.5t6 -13.5t5 -16.5t4 -15.5t5 -16l4 -13q8 -25 24.5 -81.5t24 -84t14.5 -64.5t9 -61q8 121 66 319q26 88 61 94q41 4 92 5q47 2 69.5 -1.5t36 -14.5t13.5 -34q2 -68 -66 -61q0 -8 2 -332q6 -2 19.5 -4t18.5 -3t15.5 -3t12.5 -6t9 -10.5t4 -15.5t-1 -21 q-4 -29 -34.5 -38t-96.5 -9q-86 2 -94 26q-16 35 -4 57.5t47 22.5q0 39 2 180.5t2 175.5q-10 -27 -21.5 -68.5t-27.5 -102t-27 -99.5q-16 -49 -23 -71.5t-19.5 -51t-27 -39t-30.5 -12.5q-16 0 -30.5 10.5t-26 34t-18.5 39.5t-16 49t-14 41q-14 43 -40.5 140.5t-36.5 125.5 q-4 -23 -1 -179.5t1 -174.5q39 -4 54 -14.5t15 -44.5q-2 -45 -116 -45q-127 0 -132 53z" />
<glyph unicode="&#x25fc;" horiz-adv-x="962" d="M0 0v963h963v-963h-963z" />
<glyph unicode="&#xfb01;" horiz-adv-x="1384" />
</font>
</defs>
</svg>
